<mxfile host="app.diagrams.net" modified="2021-09-02T21:12:11.055Z" agent="5.0 (Windows NT 10.0; Win64; x64) AppleWebKit/537.36 (KHTML, like Gecko) Chrome/92.0.4515.159 Safari/537.36" etag="bXsFdqJXPkoNnVJleKyn" version="14.7.4" type="github">
  <diagram id="6a731a19-8d31-9384-78a2-239565b7b9f0" name="Page-1">
    <mxGraphModel dx="1662" dy="771" grid="1" gridSize="10" guides="1" tooltips="1" connect="1" arrows="1" fold="1" page="1" pageScale="1" pageWidth="1169" pageHeight="827" background="#003469" math="0" shadow="0">
      <root>
        <mxCell id="0" />
        <mxCell id="1" parent="0" />
        <mxCell id="2022" value="" style="rounded=1;whiteSpace=wrap;html=1;dashed=1;strokeColor=none;strokeWidth=2;fillColor=#E6E6E6;fontFamily=Verdana;fontSize=12;fontColor=#00BEF2" parent="1" vertex="1">
          <mxGeometry x="580" y="120" width="165" height="670" as="geometry" />
        </mxCell>
        <mxCell id="A42xf_0t4kiLN95eDPth-2092" value="" style="rounded=1;whiteSpace=wrap;html=1;dashed=1;strokeColor=none;strokeWidth=2;fillColor=#FFFFFF;fontFamily=Helvetica;fontSize=14;fontColor=#FFB366;opacity=75;verticalAlign=top;fontStyle=1" vertex="1" parent="1">
          <mxGeometry x="590.5" y="200" width="140" height="560" as="geometry" />
        </mxCell>
        <mxCell id="2019" value="" style="rounded=1;whiteSpace=wrap;html=1;dashed=1;strokeColor=none;strokeWidth=2;fillColor=#E6E6E6;fontFamily=Verdana;fontSize=12;fontColor=#00BEF2" parent="1" vertex="1">
          <mxGeometry x="40" y="120" width="165" height="670" as="geometry" />
        </mxCell>
        <mxCell id="2020" value="" style="rounded=1;whiteSpace=wrap;html=1;dashed=1;strokeColor=none;strokeWidth=2;fillColor=#E6E6E6;fontFamily=Verdana;fontSize=12;fontColor=#00BEF2" parent="1" vertex="1">
          <mxGeometry x="220" y="120" width="165" height="670" as="geometry" />
        </mxCell>
        <mxCell id="2021" value="" style="rounded=1;whiteSpace=wrap;html=1;dashed=1;strokeColor=none;strokeWidth=2;fillColor=#E6E6E6;fontFamily=Verdana;fontSize=12;fontColor=#00BEF2" parent="1" vertex="1">
          <mxGeometry x="400" y="120" width="165" height="670" as="geometry" />
        </mxCell>
        <mxCell id="2025" value="Database" style="whiteSpace=wrap;html=1;dashed=1;strokeColor=none;strokeWidth=2;fillColor=#3399FF;fontFamily=Helvetica;fontSize=18;fontColor=#FFFFFF;fontStyle=1" parent="1" vertex="1">
          <mxGeometry x="40" y="120" width="165" height="60" as="geometry" />
        </mxCell>
        <mxCell id="2026" value="Server" style="whiteSpace=wrap;html=1;dashed=1;strokeColor=none;strokeWidth=2;fillColor=#3399FF;fontFamily=Helvetica;fontSize=18;fontColor=#FFFFFF;fontStyle=1" parent="1" vertex="1">
          <mxGeometry x="220" y="120" width="165" height="60" as="geometry" />
        </mxCell>
        <mxCell id="2027" value="Client" style="whiteSpace=wrap;html=1;dashed=1;strokeColor=none;strokeWidth=2;fillColor=#3399FF;fontFamily=Helvetica;fontSize=18;fontColor=#FFFFFF;fontStyle=1" parent="1" vertex="1">
          <mxGeometry x="400" y="120" width="165" height="60" as="geometry" />
        </mxCell>
        <mxCell id="2028" value="Sensor" style="whiteSpace=wrap;html=1;dashed=1;strokeColor=none;strokeWidth=2;fillColor=#3399FF;fontFamily=Helvetica;fontSize=18;fontColor=#FFFFFF;fontStyle=1" parent="1" vertex="1">
          <mxGeometry x="580" y="120" width="165" height="60" as="geometry" />
        </mxCell>
        <mxCell id="2031" value="" style="shape=mxgraph.arrows.two_way_arrow_horizontal;html=1;verticalLabelPosition=bottom;verticalAlign=top;strokeWidth=2;strokeColor=none;dashed=1;fillColor=#FFFFFF;fontFamily=Verdana;fontSize=12;fontColor=#00BEF2" parent="1" vertex="1">
          <mxGeometry x="180" y="131" width="67" height="39" as="geometry" />
        </mxCell>
        <mxCell id="2032" value="" style="shape=mxgraph.arrows.two_way_arrow_horizontal;html=1;verticalLabelPosition=bottom;verticalAlign=top;strokeWidth=2;strokeColor=none;dashed=1;fillColor=#FFFFFF;fontFamily=Verdana;fontSize=12;fontColor=#00BEF2" parent="1" vertex="1">
          <mxGeometry x="360" y="131" width="67" height="39" as="geometry" />
        </mxCell>
        <mxCell id="2033" value="" style="shape=mxgraph.arrows.two_way_arrow_horizontal;html=1;verticalLabelPosition=bottom;verticalAlign=top;strokeWidth=2;strokeColor=none;dashed=1;fillColor=#FFFFFF;fontFamily=Verdana;fontSize=12;fontColor=#00BEF2" parent="1" vertex="1">
          <mxGeometry x="540" y="131" width="67" height="39" as="geometry" />
        </mxCell>
        <mxCell id="2037" value="" style="verticalLabelPosition=bottom;html=1;verticalAlign=top;strokeColor=none;fillColor=#3399FF;shape=mxgraph.azure.tablet;dashed=1;fontFamily=Helvetica;fontSize=14;fontColor=#004C99" parent="1" vertex="1">
          <mxGeometry x="458" y="357.5" width="50" height="37.5" as="geometry" />
        </mxCell>
        <mxCell id="2038" value="" style="verticalLabelPosition=bottom;html=1;verticalAlign=top;strokeColor=none;fillColor=#3399FF;shape=mxgraph.azure.mobile;dashed=1;fontFamily=Helvetica;fontSize=14;fontColor=#004C99" parent="1" vertex="1">
          <mxGeometry x="485" y="291" width="35" height="50" as="geometry" />
        </mxCell>
        <mxCell id="2039" value="Devices" style="verticalLabelPosition=bottom;html=1;verticalAlign=top;strokeColor=none;fillColor=#3399FF;shape=mxgraph.azure.laptop;dashed=1;fontFamily=Helvetica;fontSize=14;fontColor=#004C99" parent="1" vertex="1">
          <mxGeometry x="470" y="424" width="50" height="30" as="geometry" />
        </mxCell>
        <mxCell id="2040" value="Applications" style="verticalLabelPosition=bottom;html=1;verticalAlign=top;strokeColor=none;fillColor=#3399FF;shape=mxgraph.azure.mobile_services;dashed=1;fontFamily=Helvetica;fontSize=14;fontColor=#004C99" parent="1" vertex="1">
          <mxGeometry x="475.5" y="510" width="32.5" height="50" as="geometry" />
        </mxCell>
        <mxCell id="2041" value="" style="verticalLabelPosition=bottom;html=1;verticalAlign=top;strokeColor=none;fillColor=#3399FF;shape=mxgraph.azure.user;dashed=1;fontSize=14;fontColor=#004C99" parent="1" vertex="1">
          <mxGeometry x="590.5" y="630" width="49.5" height="50" as="geometry" />
        </mxCell>
        <mxCell id="2046" value="Mobile Services" style="verticalLabelPosition=bottom;html=1;verticalAlign=top;strokeColor=none;fillColor=#3399FF;shape=mxgraph.azure.mobile_services;dashed=1;fontSize=14;fontColor=#004C99" parent="1" vertex="1">
          <mxGeometry x="458" y="610.5" width="32.5" height="50" as="geometry" />
        </mxCell>
        <mxCell id="2049" value="" style="rounded=1;whiteSpace=wrap;html=1;dashed=1;strokeColor=none;strokeWidth=2;fillColor=#FFFFFF;fontFamily=Helvetica;fontSize=14;fontColor=#FFB366;opacity=75;verticalAlign=top;fontStyle=1" parent="1" vertex="1">
          <mxGeometry x="53.25" y="200" width="140" height="560" as="geometry" />
        </mxCell>
        <mxCell id="2052" value="SQL Database" style="verticalLabelPosition=bottom;html=1;verticalAlign=top;strokeColor=none;fillColor=#3399FF;shape=mxgraph.azure.sql_database;dashed=1;fontFamily=Helvetica;fontSize=14;fontColor=#004C99" parent="1" vertex="1">
          <mxGeometry x="101.25" y="414" width="37.5" height="50" as="geometry" />
        </mxCell>
        <mxCell id="2068" value="" style="rounded=1;whiteSpace=wrap;html=1;dashed=1;strokeColor=none;strokeWidth=2;fillColor=#FFFFFF;fontFamily=Helvetica;fontSize=14;fontColor=#FFB366;opacity=75;verticalAlign=top;fontStyle=1" parent="1" vertex="1">
          <mxGeometry x="233" y="200" width="140" height="560" as="geometry" />
        </mxCell>
        <mxCell id="2069" value="Cloud" style="verticalLabelPosition=bottom;html=1;verticalAlign=top;strokeColor=none;fillColor=#3399FF;shape=mxgraph.azure.cloud;dashed=1;fontSize=14;fontColor=#004C99" parent="1" vertex="1">
          <mxGeometry x="278" y="449" width="50" height="32.5" as="geometry" />
        </mxCell>
        <mxCell id="2070" value="Virtual Machine" style="verticalLabelPosition=bottom;html=1;verticalAlign=top;strokeColor=none;fillColor=#3399FF;shape=mxgraph.azure.virtual_machine;dashed=1;fontSize=14;fontColor=#004C99" parent="1" vertex="1">
          <mxGeometry x="278" y="536" width="50" height="40" as="geometry" />
        </mxCell>
        <mxCell id="2075" value="" style="arrow;html=1;endArrow=block;endFill=1;strokeColor=none;strokeWidth=4;fontFamily=Helvetica;fontSize=36;fontColor=#FFB366;fillColor=#FFB366;" parent="1" edge="1">
          <mxGeometry width="100" height="100" relative="1" as="geometry">
            <mxPoint x="167" y="283" as="sourcePoint" />
            <mxPoint x="247" y="283" as="targetPoint" />
          </mxGeometry>
        </mxCell>
        <mxCell id="2076" value="" style="arrow;html=1;endArrow=block;endFill=1;strokeColor=none;strokeWidth=4;fontFamily=Helvetica;fontSize=36;fontColor=#FFB366;fillColor=#FFB366;opacity=100" parent="1" edge="1">
          <mxGeometry width="100" height="100" relative="1" as="geometry">
            <mxPoint x="347" y="283" as="sourcePoint" />
            <mxPoint x="427" y="283" as="targetPoint" />
          </mxGeometry>
        </mxCell>
        <mxCell id="2077" value="" style="arrow;html=1;endArrow=block;endFill=1;strokeColor=none;strokeWidth=4;fontFamily=Helvetica;fontSize=36;fontColor=#FFB366;fillColor=#FFB366;" parent="1" edge="1">
          <mxGeometry width="100" height="100" relative="1" as="geometry">
            <mxPoint x="527" y="360" as="sourcePoint" />
            <mxPoint x="607" y="360" as="targetPoint" />
          </mxGeometry>
        </mxCell>
        <mxCell id="2083" value="" style="arrow;html=1;endArrow=block;endFill=1;strokeColor=none;strokeWidth=4;fontFamily=Helvetica;fontSize=36;fontColor=#FFB366;fillColor=#FFB366;" parent="1" edge="1">
          <mxGeometry width="100" height="100" relative="1" as="geometry">
            <mxPoint x="534" y="624" as="sourcePoint" />
            <mxPoint x="614" y="624" as="targetPoint" />
          </mxGeometry>
        </mxCell>
        <mxCell id="2084" value="" style="arrow;html=1;endArrow=block;endFill=1;strokeColor=none;strokeWidth=4;fontFamily=Helvetica;fontSize=36;fontColor=#FFB366;fillColor=#FFB366;" parent="1" edge="1">
          <mxGeometry width="100" height="100" relative="1" as="geometry">
            <mxPoint x="347" y="536" as="sourcePoint" />
            <mxPoint x="427" y="536" as="targetPoint" />
          </mxGeometry>
        </mxCell>
        <mxCell id="2085" value="" style="arrow;html=1;endArrow=block;endFill=1;strokeColor=none;strokeWidth=4;fontFamily=Helvetica;fontSize=36;fontColor=#FFB366;fillColor=#FFB366;" parent="1" edge="1">
          <mxGeometry width="100" height="100" relative="1" as="geometry">
            <mxPoint x="174" y="688" as="sourcePoint" />
            <mxPoint x="254" y="688" as="targetPoint" />
          </mxGeometry>
        </mxCell>
        <mxCell id="A42xf_0t4kiLN95eDPth-2086" value="" style="shape=image;verticalLabelPosition=bottom;labelBackgroundColor=#ffffff;verticalAlign=top;aspect=fixed;imageAspect=0;image=data:image/png,iVBORw0KGgoAAAANSUhEUgAAAgAAAAIACAYAAAD0eNT6AAAABHNCSVQICAgIfAhkiAAAAAlwSFlzAAAN1wAADdcBQiibeAAAABl0RVh0U29mdHdhcmUAd3d3Lmlua3NjYXBlLm9yZ5vuPBoAACAASURBVHic7N13vGVVfffxz2m31+kMMwOIIHWDgCBS1BgRa2IS0i1bE43RJDvGNI3RJKaYep486Wr2kzx5TGKMxt6iURAEEdAtSBn6DNPv3N5Off4498Kd4ZZT9j5rr7O/79eLF1Pu3ecHs2bt3/qtlqpWq4hIvOX9oBfYvME//UA30LX073p+XAFmgbmlf5/842Z+bwY44rlOJZr/GyIShpQSABFz8n7QBewGzgBOX/HvHZz4cu81E2HTisDjwKOr/PMIcFAJgohZSgBEIpT3gzSwhxNf7iv/vRNIm4nOqAKrJwiPLP37oOc66pxEIqQEQCQkeT/YAjjAhUv/doDzsW/0HgeLnJggPAJ8B7jdc52j5sIS6RxKAEQatFS2P5enXvLLL/xTTMaVII8A31zxz52e68yZDUnEPkoARDaQ94MzgauAq4ErgXOArNGgZKUycDcnJgX3eK5TNhqVSMwpARBZIe8HWeDZPPXCv4ragjyxyxxwByuSAs91HjUakUjMKAGQRMv7wRC1Uf3yC/8KoM9oUBKVo5xYJbjNc51xsyGJmKMEQBJlaVX+5cBLgeuBy0jmKnypTR3cCnwK+JTnOt8zHI9IWykBkI6X94MdwEuovfCvAzaZjUhi6hGWkgHgRs91CobjEYmUEgDpOEvz+M+j9sK/HrgYSBkNSmwzDXwB+DTwWW09lE6kBEA6Qt4PhoEfBF4FfD8wZDYi6SAValMFn6Y2VXC34XhEQqEEQKyV94NBai/8H6NW4u8yG5EkxKMsJQPAVzVVILZSAiBWyftBP/AKai/9lwI9ZiOShJsBvkgtGfi05zrHDMcjUjclABJ7SzfhvYzaS//laJuexFMR+CTwQeCLuuxI4k4JgMTS0na964DXAq8EBsxGJNKQfcA/Ar7nOo+ZDkZkNUoAJFbyfrALeAPwRmq36InYrAJ8CfgQ8AmtF5A4UQIgxuX9IEOttP+z1Ob1M2YjEonEUeD/Ah/0XOde08GIKAEQY/J+cAa1kb4L7DQcjkg73UJtrcBHPNeZNR2MJJMSAGmrvB/kgB8A3kRtv74O6JEkmwb+lVpV4HbTwUiyKAGQtsj7wRbg54G3AtsMhyMSRwG1tQL/4rnOcdPBSOdTAiCRyvvBWcDbgdcBvYbDEbHBIvAfwPt16qBESQmARCLvB1cDv0LtpD7dtifSuCrwX8D7PNe503Qw0nmUAEhollbzvxp4B3CF4XBEOslnqCUCt5oORDqHEgBp2dLxvG8APOAZhsMR6WT/Dfye5zo3mg5E7KcEQJqW94Mhai99Dxg1HI5IktxIrSLwJdOBiL2UAEjDlkb8bwN+DdhkOByRJLuNWkXgM6YDEfsoAZC65f2gB3gL8BtoK59InNwFvA/4uOc66tSlLkoAZEN5P+gCfgZ4FzqxTyTO7gZ+n9oJg7qNUNalBEDWlPeDLPB64N3oYh4RmzwA/AHw/zzXKZkORuJJCYA8zdJVvD8FvAc403A4ItK8R4B3eq7zb6YDkfhRAiAnyPvBC4A8cJHhUEQkPF8DftFzncB0IBIfSgAEePJmvj8Ffsh0LCISiTLwd8C7PdcZNx2MmKcEIOHyfjAAvJPaef3dhsMRkeiNUVvQ+wEtFEw2JQAJlfeDFLULev4Q2GE4HBFpv7uAX/Bc52bTgYgZSgASKO8HV1Gb57/MdCwiYty/AL/uuc4B04FIeykBSJC8H+wB3g/8uOlYRCRWZoDfA/Ke6xRMByPtoQQgAZZu6ftl4HeAPsPhiEh87QV+yXOdz5kORKKnBKDD5f3gYuCDwKWmYxERa3wa+GXPdR40HYhERwlAh1o6t/+9wK8AWbPRiIiFFoE/B37fc51Z08FI+JQAdKClw3z+ATjLcCgiYr8ngLd7rvMR04FIuJQAdJC8H4wAfwK8EUgZDkdEOsu/AW/xXGfCdCASDiUAHSLvBz8E/BVwiulYRKRj7QNe57nO/5gORFqnBMByeT/YAfwN8GrTsYhIIlSBPwPepS2DdlMCYLG8H7wK+BCwxXQsIpI43wF+ynOde0wHIs1RAmChvB/0UVud+2bTsYhIoi0AvwH8pec6eplYRgmAZfJ+cAnwYeBZpmMREVnyJeD1Ok7YLkoALJH3gzTwDuB9QM5wOCIiJzsOvMlznf80HYjURwmABfJ+sAv4Z+CFpmMREdnA/wF+0XOdadOByPqUAMRc3g9uAP4eGDUdi4hInR4BftpznVtMByJrUwIQU3k/GAD+N/B6w6GIiDSjDPwh8Due65RMByNPpwQghvJ+8Czg48C5pmMREWnR7dSqAQ+YDkROlDYdgJwo7wc/CHwTvfxFpDM8B7gr7wevMR2InEgVgJhYWuX/Pmp7anWOv4h0oj8GftNznYrpQEQJQCzk/WAztb3915mORUQkYp8GflK7BMxTAmDY0sE+HwNOMx2LiEib3AO80nOdR0wHkmRaA2BQ3g9eD9yMXv4ikiznA9/M+8HzTQeSZKoAGJD3gy4gD7zFdCwiIgYVgbd6rvMB04EkkRKANsv7wXZqW/yuNB2LiEhM/CXwds91yqYDSRIlAG2U94Nzgc8CpxsORUQkbr4E/KjnOhOmA0kKrQFok7wfvBC4Bb38RURW82LgtrwfnG06kKRQAtAGeT94LfAFYMR0LCIiMXY2tSTgxaYDSQIlABHL+8F7gX9CV/iKiNRjBPhc3g9+0XQgnU5rACKytNL/g4COvxQRac4HqO0SKJoOpBMpAYhA3g9GqK30f4HhUEREbPc14Ec81zlmOpBOowQgZHk/OAP4DLrMR0QkLA8D36+TA8OlBCBEeT+4lNo2v22mYxER6TD7ge/zXGev6UA6hRYBhiTvB1cDX0EvfxGRKOwCbsz7wXmmA+kUSgBCsLRl5QvAkOlYREQ62A7gq3k/cEwH0gmUALQo7wc/AHwK6DMdi4hIAmwF/mdpylVaoASgBXk/+Ango0C36VhERBJkE/DlvB8813QgNlMC0KS8H/wM8C9A1nQsIiIJNAx8Me8H15oOxFZKAJqQ9wMP+Af0/09ExKRBaqcGvsh0IDbSC6xBeT/4LeAvgJTpWEREhD7g03k/eKnpQGyjcwAakPeD9wO/ZjoOERF5mgK164Q/YToQW6gCUCe9/EVEYq0L+GjeD24wHYgtlADUYansr5e/iEi8ZYF/zfvBT5sOxAaaAtjA0oK/vzAdh4iI1K0CvMlznQ+ZDiTOlACsY2mr3z+gBX8iIrapUrtK+G9NBxJXSgDWsHTIz7+gaRIREZu9zXOdvzYdRBwpAVjF0vG+H0WH/IiI2K4C3OC5zsdMBxI3SgBOsnSxz6fQ8b4iIp1iAXiR5zq3mA4kTpQArLB0pe8X0MU+IiKdZgx4nuc6D5gOJC6UACxZulnqK+hKXxGRTvUwcKXnOkdMBxIHSgCAvB+cAdwKbDMdi4iIROp24AWe68yZDsS0xK9wz/vBCPAZ9PIXEUmC5wD/nveDjOlATEt0ApD3gy7g48C5pmMREZG2eQWQ+K2BiU4AgA8CLzAdhIiItN2b837wTtNBmJTYBCDvB+8FXmM6DhERMeb3k3xvQCIXAeb94LXAP5mOQ0REjCsCL/Vc58umA2m3xCUAeT94IbW9/jnTsYiISCxMAVd7rvNd04G0U6ISgLwfnAvcAoyYjkVERGJlP7UzAvabDqRdErMGIO8H24HPope/iIg83S7gs3k/GDYdSLskIgFYsd3vdMOhiIhIfF0IfCzvB4mYIk5EAgDkgStNByEiIrH3fcCHTAfRDh2fAOT94PXAW0zHISIi1nhN3g86/r3R0YsA835wCXAz0GM6FhERscoi8FzPdb5tOpCodGwCkPeDzcAdwGmmYxERESvtBS71XGfadCBR6MgpgLwfpIEPo5e/iIg07yzgH0wHEZWOTACA9wHXmQ5CRESs9+N5P3iz6SCi0HFTAHk/+EHgY0DKdCwiItIRFqitB/iO6UDC1FEJQN4PngV8ExgyHYuIiHSUB6itB5gxHUhYOmYKIO8HA9QO+9HLX0REwnY2HbYeoGMSAOB/A+eaDkJERDrWT+T94GdNBxGWjpgCyPvBDcBHTMchIiIdbwG4wnOdwHQgrbI+Acj7wS4gAEZNxyIiIolwP3CZ7esBrJ4CWNrv/8/o5S8iIu3zLODvTAfRKqsTAOAdwAtNByEiIonzU3k/eKPpIFph7RTA0jn/twKJuLZRRERiZx643HOdu00H0gwrE4C8H/QBd1Irw4iIiJhyH7X1ALOmA2mUrVMAf45e/iIiYt45wN+aDqIZ1lUA8n7wKuATpuMQERFZ4dWe6/yX6SAaYVUCkPeDHcB3gS2mYxEREVnhCeA8z3WmTAdSL9umAP4GvfxFRCR+TgX+wHQQjbCmApD3gx8C/tN0HCIiImuoAFd5rnOr6UDqYUUCkPeDEeB7wCmmYxEREVnH3cAlnusUTQeyEVumAP4EvfxFRCT+LgB+zXQQ9Yh9BSDvBy8AvgKkDIciIiJSjwXA8Vxnr+lA1hPrCkDeD3qo3b+sl7+IiNiiB/h700FsJNYJAPBe4CzTQYiIiDTohXk/cE0HsZ7YTgHk/eBi4HYgazoWERGRJhwHzvVc54jpQFYTywpA3g8ywAfRy19EROy1CfgL00GsJZYJAPDLwKWmgxAREWnRT+b94HrTQawmdlMAeT/YA9wL9JmORSRszz53hGw2rnn3080tlLhnrzUnm4rE1aPA+Z7rzJkOZKU4ltjfj17+0oG6u9Jccv6o6TAa8tiBOSUAIq07Hfhd4B2G4zhBrIYieT+4Cvhx03GIRGHTcJfpEBp2fKJgOgSRTuHl/eAS00GsFJsEIO8HKSBvOg6RqGwasS8BGJtYNB2CSKfIAB9YWuQeC7FJAIDXAZeZDkIkKlZWACZVARAJ0SXAL5kOYlksEoC8HwwAf2g6DpEobR7pNh1CQ4rFCtOzJdNhiHSa38n7wTbTQUBMEgDgncAO00GIRCWdSjEylDMdRkM0+heJxAC1d55xxhOAvB+cAbzddBwiURoezJFJ23WlxZgSAJGo/NzSlnejjCcAwJ8CdtVGRRq02cIFgNoBIBKZbuC3TQdhNAFYuur3h0zGINIONu4AUAIgEqnX5/3gbJMBGEsA8n6QRtv+JCFs2wFQrcLxKSUAIhHKAL9nMgCTFYCfAi4y+PkibWPbFMDkTJFyOV7HhIt0oBuWbr41wkgCkPeDLPAeE58t0m59PRl6umNz9kddVP4XaYsU8PumPtxUBeD1wJmGPlukrayc/9cOAJF2ednSMfht1/YEIO8HXcC72/25IqbYdgAQ6AhgkTb7AxMfaqIC8DOA8f2PIu1i2wJAUAVApM2uzfvB9e3+0LYmAHk/6AHe1c7PFDHNtgRgYbHM3HzZdBgiSfP7S5fitU27KwBvAXa2+TNFjMlkUgwP6ghgEdnQJcAPt/MD25YA5P2gH/iNdn2eSBxsGuoiZdcJwNoBIGLO77XzuuB2VgDeBsTiBiSRdrFxB4DuABAx5hzgNe36sLYkAHk/GAJ+rR2fJRInNiYAqgCIGPXepd1ykWtXBcADNrXps0RiY7NlCwArlSoT00XTYYgk2WnAm9vxQZEnAEtz/17UnyMSR7btAJiYLlKp6AhgEcPetfTujFQ7KgBvAEbb8DkisTLYnyWXi8ON2/VT+V8kFrbThipApL3T0mrGX47yM0Tiysb5fy0AFImNty3dmhuZqIcnrwbOiPgzRGJp87B9RwCrAiASG2cAL4/yA6JOAN4R8fNFYsvKCoDuABCJk1+I8uGRJQB5P7gauCKq54vEnW07AObmyywWKqbDEJGnvDjvB+dE9fAoKwC/EuGzRWKtK5dmoD9rOoyGjE1q9C8SQ5FVASJJAPJ+cBbwqiieLWID27b/geb/RWLqtUuH6YUuqgrA2yN8tkjs2Tn/rwRAJIYGADeKB4f+ks77wRbgdWE/V8Qmts3/g24BFImxt0ZxVXAUo/SfB3ojeK6INWyrAJTKVaZmdASwSEydBVwf9kNDTQDyfpAD3hrmM0Vsk0rB6JBdCcD4ZIGqTgAWibPQFwOGXQH4AXTlryTc8GCOTCb0al2kVP4Xib3rlxbYhybsBOBNIT9PxDqbR+w7AVALAEViLwW8LcwHhpYA5P3gDOD7w3qeiK20BVBEIvL6vB8MhPWwMCsAb6SWoYgkmm0LAEFTACKWGCLEXXahJABLt/5Fsk9RxDa2bQGcni1RLOkIYBFLvC2sLYFhVQBeDuwM6Vki1urtydDbkzEdRkNU/hexyjnAi8N4UFgJwM+G9BwRq9k2+gfdASBioVC2BLacAOT9YBfw0hBiEbGelfP/qgCI2OZleT94RqsPCaMC8AbArpqnSERs3AEwpgWAIrZJU1t43/JDmpb3g1CCEOkUtp0BUChWmJktmQ5DRBp3Q6sPaLUCcB2wp9UgRDpBJpNieDBnOoyGaPufiLXOyvvBxa08oNUE4LUtfr9Ixxgd6iJl2UkYmv8XsVpLVYCmE4C8H/QCr2zlw0U6iY0LADX/L2I1MwkA8DIgtCMJRWxn4xZAVQBErNbSNEArCcCPtfC9Ih3HtgpAtQrjU0oARCzXdBWgqQQg7wf91E7/E5Eltm0BnJwuUi5XTYchIq1pbwIAvALoa/ZDRTrNQH+WrlzYt2tHSzsARDpC09MAzfZYKv+LrGDj/P/YhI4AFukQTVUBGk4A8n4wiI7+FTmBbfP/oAqASAdpTwIAvAroaebDRDrV5mG7TgAE7QAQ6SBNTQM0kwCo/C9yEtsqAAuLZeYWyqbDEJHwNFwFyDbyxXk/GAZe0uiH1GugL8vzn7M1qsfLOirVKsVilUKpQrFYoViqUCxVKRYrFEoVZuZKTEwVWVjUS+NkuVyawf6G/ioZNzldpLenM+/wqlSqFIoVqtrgcILrr9lBJm3ZUZUdoFKtntCX1vrXWhstFissFMqMTxWZnWv5To4bgHc18g2N9lo/CEQ21Nky2s2OrZpdiLP5xTITU0XGJwuMTxUYnypyfKJAsVQxHZoxtm3/A9i+pYeffEVnX+OxWKiwWCizWKw89ePF2o/nF8uMjS8yNlGgXOn8TGFoIMep23tNhyHrKBQrHJ8sMD5ZWPp3keNTBYrFuvvWs/J+cLHnOt+u9xsaTQBe1eDXN8S2MmoS9XZn6N2a4ZQViVqlUuXg0QX2HZpj38F5pmaKBiNsPxt3ACRBd1ea7q71ZzkrlSrHJwscPb5Y+2d8kYmpzmu/NiapSdOVS7NjSw87tpw4CD42vsjjB+d4/MAcYxuv27kBCD8ByPtBFvj+er++GepI7ZROpzh1ey+nbu/luRfVysv7Ds7x+ME5Dh1b6PhSrBJXe6XTKbaMdrNltJtzz6z9WrFY4ej4IgeOLLD30emOWCuhBMBey+3zkvNGmZ0vse/gPI8fnOPAkfnVDvJqaBogVa2zd877wbXA1+qOugk/9rLdDPTZNZcq65ueLXHvw1M88Mg0i4XOnCZ41Yt2snXUvl0AsrFqFfYdmuP+R6bZf3CeiqXZ7Iuft509O3V2WycplirsfXSGex6cOrnq+ux6pwEaedte31B0DeruSuvl34EG+7NcfuEmLj1vlIf2zfC9B6fqKWNZI5WCTUMaXXWqVAr2nNLHnlP6mF8o88Cj0zzw6Ix101yqUnWeXDbNec8c4twzh9h3cI7v7p3k0NEFaGAaIDYJwKhKVB0tk0lx9umDnH36IIfHFrjrexM8cXjedFgtGx7MkcloZXUS9PZkuOicES46Z4RDxxb4zn0T7D8U/zbcldPgqpOlUrBnZx97dvYxNlHg3oem3kCd0wB1nQOQ94MdQNNXDtZjszLUxNi+uYfrr9nBdVdtZ3gwZzqclmhuNZl2bOnhJVfv4EVXbqOvN97bKdVGk2PzSBdXX7plx83f2v/8er6+3oOAXgJEOsxRI02e3af08UMvPpXnXrTZuot0lqndJtvpp/bzIy/ZxQVnDZOKaSFIg6vk6elOv66er6u31420/A+weUSLqJIonU5x/llD/OhLd3POMwZNh9MwtVvJZdNccdEmfuBFp7JtU/zag+b/k2egLxtOBSDvB2ngupYjWi+IVIqRIbtLwdKa7q40V12yhRc/b/uGe7fjRJ2rLNs80sUrv28nV12yhVw2Pm1YVarkGRnsOq2er6unlV4ObGotnPUND+Z0RKUAtcUsr/7+U9m+Of4nQvZ0Z+jr0ON0pXnnPGOQ66/ZEYtprXQqxah2qSROX28mc/O39r9wo6+rp4VGfvWvRlGyUn9flpe9YAcXnTNiOpR1aW5V1rJtczcvvXaH8WqWdqkkVz3rAOppnW2Y/1dHKidKp1JcdsEoL7l6R6zKqSuptCrr2TLazcuffwq93eaqRBpcJddAX/bajb5m3Z417wdDwGWhRbQGdaSyll07ennZ83fQY7ATXYs6V9nI6HAXL3vBKca2Cup49eQaGera8LavjYZWV9bxNS1TRyrr2TLazStecErsDjNR5UrqMTKY4+XPN9N+1bcmV19PJnPzt/a/aL2v2ejlflWI8ayqrydjtEQmdhgezPHKF+6MzW6RTDpl/SFG0j5DAzmuv2YH2Wx75+NVXU223u7Ma9f7/Y0SgKtDjGVVylClXn29GV7xgp1sicHFOyNDOdJxPflFYml4MMeVF21u2+f19mTo1S6VROvvy6y7DmDNBGDp+t8rQo/oJMpQpRHdXWmuu2o7A/1mpwN0AJA04+wzBjn91P62fJbm/2V0qGv3er+/XgXg2UDk90eqI5VG9fZkeMlVZvdZK3GVZl196Za2tF1VV6V3g3UA67XCyOf/QR2pNGdkKMeLrtxG2tABUupcpVndXWmcZw1H/jnqWwWgtzuz5nkA6yUAkc//ZzJaSCXN27mtl6sv2WLks9W5SisuOGs48q2Bqq4KQH9f5pq1fs9oBWDTUFdsb9ASO5x1+gDnnzXU1s8c6MsaP+FN7JbJpHj2uaORPl+DK4H11wGs2ovl/eBMYEdkES1RGVXC8JwLNrX1vHON/iUMZ+7pj2xb4KgGV7JkaR3Ai1f7vbWGMZr/F2tkMilecMXWtq0H0AFAEoZcNs3pO6PZEaDBlazU05X+4dV+fa0EIPL5f1BHKuHZNNzFZRdEV1I94bPUbiUkzzxtIJLnagugrNTdnblktV9fKwG4MsJYnqQKgITpwrOHOWVr9NcIq91KWHZu641kPYmSVFmpryfzjNV+/WktL+8HXcA5UQc02J8lF4P7sqWzXHNZtFMBuWyaoQEtrpJwpFKwNYKTLZWkykoD/dlVy6OrvYHPBSI/Zk0ZqkRhsD/L+c+MbleAOlYJ29bN4SYAA/1Zo4dkSfz0dmfSX79939MG9qu1EqcN8bB5WHtUJRoXnTMS2TY9Ja4Stm2bwp220vy/rCaXTb/i5F8zlgCoI5WodHelufjckUierQqAhC3sNqW+VVbT3ZV+2uL+1RKAC9sQi7JUidR5Zw5FMlevnSsStp7ucKtVqq7Kanq6M+ef/GurzfVHXgHoyqWN3+bWjHKlajqEJ6XA2Dn4NkinUzz7vBG+9s2joT0zlYJRyxLXYqnC9Gyp7Z+bSafIpFOkM6kVP0ZXKK8inU7RlUtTKFZCeZ6NFYA49a1Qa7+dpr83u/PkXzvhLZz3gy3AKVEHYmMZ9bEn5vjvbxw2HcYJUinIZtJksymymRTZbJqubJr+vgyD/TkG+7MM9GUZ7M8y2J9L3Mlgz9jVz+3fPc7cfDmU5w0N5Mhm7Pqf+Oj+OW78VnhJUKsymRQDfbV22d+XZaC39uOhwSxbR7sTm9T2dGdCSQBy2TSDlg2u5hbK/OunHzcdxglSqVpbzWXSZLK1f2ezKfp6l/rWviwD/bW+dWggZ0XCMNif7bvxtn1d116xu7D8aye3FM3/r2FsctF0CE9TrdZGeMWTB3hjT//arlyabZu72b65hx1beti6qZuMZS+zRqXTKc47c4hv3T0eyvNsTFzj1m7L5SqT00Ump4tP+71MJsW2Td2csrWXHVt72JaANrosrFX7NrbR4xOFjb+ozapVKJWqlEpl2OCvUCadYstoN9u3dLN9Sw/bN/fE8q6QTCZFNpv6fuCzy792cgKg+f81xLGRNqJQrLD/0Dz7D80DtcZw+s5+nnn6AKdu6+3Y6sA5zxjirnsnKJdbLzHaOP9vU7stl6scPLrAwaMLAGQzKc46fZALzopmPUeclMrhlP+tbKOT9rTR1ZQrVQ6PLXB4bAHunySVqh3wdNZpA5x+an+sktiuXPrFrJMAqAKwBtsb6cnK5SoP7ZvhoX0z9PVmOOu0QS48eziWmWsrurvSnHXaAPc9PN3ys9Ru26tUrnLvQ1Pc9/AUe07p48Kzh9m+JfqTHk0olcKZA7eyjVqUpNajWoUnDs/zxOF5crkxnrGrH+dZw7FIYru70s9Z+fOTe/vIE4BUirbe3BaGQtHMQqp2mZsv8537Jvj3z+3j2/dOhNYZxcV5IR0MZNvq6tm5EouFcEaWJlWr8NiBOT791YPcePtRKjFbMBaGYimkBYAWVlfjNk0VpmKxwv2PTPOfX3yCW+4aY34hnPVIzertyTxz5c+fTADyfpAGnrZNIGzDg7lYlUTqYfMoqhHFYoU77hnnI5/fx2MH5kyHE5rRoa6WV+/3dGfo682EFFF7jHVgu9372Ayf/dohFhbNdqRhK4aQdKdS9iUAy2tCOl2lUqtmfeRz+/juA5PG4hjoy25e+fOVFYA9QG/UAdg2ioLOK1FtZH6hzH/fcphbvz3WMaOtM05t7dpV2zpW6Nx2e3hsgU985QDjU53x3ze/UA7l79nwgH2Dq/GpAtXO6GLqUipX+WZwnC/dfNhIda6/N5u96Zv7di//fGUCcHo7ArByjqoDR1L1uOfBKT79Pwc7YrR1+q6+lr5f7TZeZmZLfPkbRzoiQQ1rBGxlG+3QJHUjjx+c4+P//YSRo867uwAAIABJREFUJDaXS79y+ccrE4Az2vHhNjbSsYQ2UoCj44t8/qZD1s8ljw51MTzY/CIcG3eudHq7nZwuGi2nhmUirATAxjbawUnqRmbnSnzua4eYmGrvFEhX7qkjgdteAbCtI61W6ZhSY7PGJgp8/qZDoS1UMuX0FqYBbEtci6UKUzOdP7f67XsnmJmze4HuxHQ4/cvmEU2v2mZ+scxnbzzY1nUQuWzqycF+WysAvT0ZenvsWkg1OV0MZQ+57Y6NL3LLnaucMGSRXTuaW+KSTqcYaaF6YML4ZOe//OGpOVWbhTYFYNngCjp7mqpe8wtlvvyNI207Drkrl962/OO2VgBsbKCdvEWlUQ8+PsPD+2ZNh9G0raPdTZ1FPzKYs+6I2rGJ5LTbfYfmrF5IFsYUgI27VKZnS6Hdf2C78akCt3+3PYlsVy49uvzjtlYAbCujgkpUJ7vlrmPWrgfIZFJNtUGdrhZvpVLV2mm6crnKbAhTGDYOrpLURutxz94pjoxFn7h3d2WenAtNA+T9oAt42k1BYbNt/h/USE+2WKjwwKOtn6pnyrZNjc+TKnGNv3Z0nFGYnCmGUr2wMklNWButx917o1/U2tudeXI+c7kCsJunnwoYOnWkneHeh6asLblu3dxEAmBZ4lqtwnFLR8TNOnJ8wXQITUny/L+mV5/usSfmQru9dC3ZbCq1fBbA8ks/8vJ/JpNqaRuWCfOLZeYMH90YR9OzJfYdtPOkwGYqALatrp6aKXbccc4bsTVRD2sLmCoAnaFSrXLfI1ORf04mk7oYnkoATo/6A0eHuppagGWSGuja7nkw+kYahcH+XEM3H/b3Zq27ICmJ01a29S3LwqgApNP2Da6KHX6/Sivue3g68gOuMpnUedDGCoCNJaokdqT1OnBkvu0HWIQhlaq91Otl47RVpx8AtJpczq4kbVkYZwCMDtm3S0V969rmF8o88kS0u62ymdRZ0MYKgI0dqSoA64u6kUalv6/+BMDK0moCO9dc1q4X4LLJEA5rsrFvTfIJgPV4ZH/UCUD6NHgqAdgR6adhZ0eaxJFUI8Yt/Us80EACYGXlKoHt1sYKwMxcKZS1GrpgrfNEfZBXLpc6BZ5KADav87WhsK0jLVeScU1lK2ycAoDGEgDbEtfFQoXZ+eTNreay9iUAugRI1jI9G+0JtF3Z9GZoUwIw0Jely7IMfWKqSMXWvW5tMjlTtPI2tt7u+k5My2ZTDPbbtbgqSScArmTbQk1I7hbAJG5TbVTUd9B0d2WGoE0JgG2jKFCGWo9KpcrUjH2jzXSd74pNQ10N7RiIgyTO/0Ntl5FtwjgCuL/Pvl0qkzO6X6Ue4xFWWLu70z0A6bwf9ALN3ZJSJxtLVDqkoj42HsGaqvOtbmW7TWjiauOfVRgVACtPV01oG21UlGuseroy6Rtv29eTRvP/q1IjrY+Ne3nrrQDYdgAQJLPdZjMphgfsmqqBcLYA2pj4JLVK1aip2egqAKkUpDNc1JYEwMqOVI20LlUL10nUe2iMbYlrpVINpaxsm9Fh+6ZqiqVKKEe+2tZGIbnrVBoVddeaTacvjDwByGXTDPbXv+o6DmbmStbeeCcbq/dlYVvnOjFt56LMVtm4xiisRM3G//YkVqmaEvFf5UwmdXbkCYBtnSho9N8ICwsAdd1BPjSQI2vZ4TJJ7VhtrDBOhrDAy8ZdKgu6X6VuUXet6TSjkScAylA7m4Xvf+YXN+6AbGy3ST1dzcZ58FBOALRw6kODqwZE3LmmUqn+6CsAFv7lVCNtgIUZwHwdIxArK1cJTFxTqdp2TduEcYiWjW00qbtUmlGNuHNNp1ACsBo10gZYNgKB+ioAdrbb5C2usnGqBkLaAmjh1EcSk9RmpSLuXFOpVF+kCYCN2XmxVGEqhPJcUtR7ql6cLCxsvAbAtv3Vc/PlRC5ctXGqploNbwrANkmdpmpGT0+0Bzyl0/Smgf6oPmB4IEcmY1d2HvUlDJ2mv9e+BGCj/bXdXemGbgyMgySO/sHOl+D0bOu7NVIp+/7bK7pfpSGNXFvejFQq1ZMGIqsj2VhG1fx/Y2x7Uc4vlDdcA2BbxwrJbbc2lsHD2AI42G/f1Mf4VDK3qTYr6gQgnaYnDUTW29nYkSZ1JNWsvh67KgD1rO+wMXFN6roVG/+swpgHt3HqQ/P/jemLuLqaTqW6I60A2Jidq5HWL5NJ0WPZGoB6Ejwr220CKwC93RnrElAI58/KysGV7ldpSPQVgFSXpgBW0DWVjYm6gUahns7Xts61VK4mcuGqbf3LslASAAv/2zW4asxAxNOr6TTdkU0B9FiYnU/NFCmVNEdVr9Fhu04hg41L5el0itEhu/67xicLVp7I2Coby+ClUjjJmm27VCCZVapm9fVmIr/mOZ1K5SKrANg2igI10EZtsaxUXk/nOzKYI522a3GV5v/tcXyq9WTNxl0qs7pfpSFbRqPvW9PpVDayBMDG7FwJQGPa0UjDdLyOkbKVL5WEttvNw3a1PwinDG7j4Er7/xvTjr41s5QARNKarOxIEzqSataWUbv+jOtZAGhj55rEdpvJpBgetGuqBsLZZaS+tfNtbUsFgEx0FQALO9KkllKb0d+XtW4HQD0jZVWu7GDjRTgQ0hZAGysfCWyjrWjH4CqTSUWTAKTTKYYtW0i1WKgwO18yHYY1tlj4oqzrDADLEtepmSLFUvLmVm1M1MLaZWRjBUCDq/oNtGlwlUmn0pFMAYwO5Uhblp4rQ23M9i09pkNoSKVS3fDPuK8305FVjU5kW6IG4ewysnGXSqlUZXqD47flKe3qWzOZVCqSCoCNGarmqBpz2s4+0yE05PDYIuXy+p2vlaXVhLZbK/uYEJK1YQt3qYSx8yFJ2tW3LicAof/R2NiR6gjg+o0OdTE0YNcoZP+huQ2/xsaXSlJLqzZWAMJIAGyc+khqktqMTDrFrh29bfmsFCnSwHzYD7axI01qKbUZp++ya/QPsO/Qxs08qS8V2wwN5Mhloz0kJQphJGs2tlENruq3c1tv29p2pVIlDSyE/WDbGmmlUmV8SnNU9TptZ2Q3SEdidr7EeAfuAFgsVJiZS97CVdv+nJYl9hKgBCapzTrt1PYNrirVajX0CsBAXzbyIwzDNjmtayrrNdifta4T2l/H6D+bSVk3rZHUjtW29gfh7TKybXAFMD6pwVU9UinY08a1VZUK4U8B2NhAkzqP2ozTTrVr9A+wr475/1EL95UndW7VxinGMMrgNu5SSeo21WZs29RDbxv/fCOpANj4lzOpI6lmnN7GElUYKpUqBw5vPMtl46gyqe3WxkXGiT0COKFJajPaWf4HqFaohL4GwMaOVI20PqNDXWzfbNf+/8Nji3WNQOzsXJO3uKqnO0Nfr12jYAjnLPzNll2+BclNUhuVyaQ467SBtn5mNBUACztSNdL6XHj2sOkQGlZP+R/sq1xVqlUmErhw1cYBBiS3ApDUaapGnXXaQNundyqVaiXUBCCXTVu3kGpuvszCYtl0GLHX15vhzD32zf/vP1hf87atc52cLlJO4MJV2xI1qE1DTUy3nqzZ+N+uWwA3lkrBBWe1f3BVrYY8BWBbJwoa/dfrvDOHrDuBbHauxHgdZ6/buK88qdNWNl4yNhHCLqNMJsWwZYOrxUKF2QRuU23UnlP6jNxsWamGXAGwMkNN4Dxqo3LZNOeeOWQ6jIbVc/gPWJq4JjQBsLOPCaf8b90uFQ2u6mJqanV5EWB4CYCNHaka6YbOPmOArpxdI2So7/hfsPOlksR2m8mkGBm08M9K8/+yhq2buo1drFapVsuhJgA2LtBRI11fKgUXPNO+xX+FYoX9h+tr2jaWlZM4BTA6ZN8oGMKpMtqYpI5Nqrq6EZMLq0vl6nxoawBSqdphKjYpl6tMziRvJXUjztjVz0B/1nQYDXtk/+yGt/8ts61znVtI5sJVGwcYoEuAZHVDAzlON3iwWrlcnQmtAjA0kCObsSs91zWV68tl0zznwk2mw2jK3kdn6vq6rlyagT67Epykdqy2JWpQW4i6WGj9JDzbpgCSuk21EVdevNloRatUrk6GlgDY1kAhuR1pvS67YNS6lyPUtsgdHquvsGXjSyWpC1dtHAWHsQ1usD9r3S6VyalkblOt15l7Btp27e9ayuXqeGgJgI1/OZUArG3b5m4rV/4D7H2svtE/2Dn/n8QFgJDcQYaVSWpC22g9erozPPci85XVcqU6lgZmw3iYjX851UhXl06nuObSrVYuuKpW4cEGEgAbO9ckJgA2ntUAIc3/J/Tug051xUWbYnGpU6VSPZwGDobxMJ1T3TkuPmeEkSG7Dh1ZduDIfEPXrtrWbsvlKpMhnCpnGxsrjBDSGQAW/rerb13drh29PHNPe8/8X0s5rASguytt3QUd07MlikVdU3my0aEuLjrHvm1/y+59aKrur02nUtYlOklduGpjhbFYqjAVwi4jG6epkrhNdSO5bJqrLtliOownVSrV/WngQKsPsm0UBSpRrSaVgqsv3WLdkb/LpmaKPH6wvsN/AIYHc2Qs+29Naru1cRQ8Ptn6y78rl7ZuG25St6lu5NKYLaquVNifBo4ALf1p2fiXU4dUPN0FZw2zbbN9ydyyu/dONTQ6trHdJjUBsHEKIJQDgCwc/Se1ja5nx9YezovZoupKpfpo2nOdCnColQfZWKJSIz3RmXsGrN3zD7WLR/Y+Ot3Q99jYbpO4cLW7K01/b3xGTvUKYx7cxiQ1qdtU17J5pIsXP297rBZVV6tQrbJveVltS+sArGykCexI17L7lD6ufc6WWDXQRt370BSlOk/+W2Zju03i4iobpxghnHlwGysfSWyjaxkayPGSa3bE7i6VxUK5cu0Vu0vLUTW9DiCdTjFi4CrDVhSKFWZmdU0lwI4tPbzoudtIW/z2L1eqfK+BxX/LbEsAkrpw1caXYLUK42FUACysUikBqOnvzfLSa3fQG4MtfydbWKwsALScAIwM5qxbNKYGWrNltJvrrtpOxrIjnE/20OMzzC80toyltycTy7+Y60nqtJVtiRrUFqQ2WpE6WSpV25Vjk6RuUz1ZT3eG66/dEatFfystFspTEEICYONfzqR2pCuNDOZ4ydXbycWsNNWoSqXKd+6bbPj7bBxVJnXhqo1/VsdCmAcfHsxZl5wndZvqSrlcmuuv2RHrynihWDkCTyUATa8BsPEvZ9Ln/wf6slx/7Y5YnEbVqvsemW5qr7WVpdUEJq6ZdIrhGHekaxkbD2P+3761D0lsoytlMimuu2p77N+LxVL1CYDl+kTzFQB1pFYZ6KvNS9m4qvpkxVKFb39voqnvtbFylcTEdXS4y8r1KaGcAGhj35rANrosm03xfc/dxo4tPaZD2VCxVHkUQkgAbMtSq1UYn0pmIz11ey8vvGIb3V12l/2XffeBSeabPHDEtvPVk7pw1cZEDeDYeAhnAFj4357UwdXwYI4XXbnNmjUbpXL1XmgxAejvzVr3MpmcLlJucXGOjS4+d4RLzhu1eqvfSvMLZe5+oPGV/1Ar09lWVk7qyMrGsxqmZ0sUQtitYeN/exKrVKed2sfzL9tq1XqqcrkawFMJwFGgtOLndbExQ03aQqre7gxXX7aFPaf0mQ4lVHfdO0Gx1FwnOzrUZV0ilNSR1eZR+/qYMEb/vT0ZenvsWqOTtG2qmXSKSy8Y5cKz7bs7pVyp3gVLiwA916nSxGmAVs5RJaQjTaXg3DOH+JHrd3Xcy39qpsj9jzR26t9KcV+gs5okjqxSKfumakDz/0mwa0cvP3TdqVa+/BcWy5VrL989BSeO+A8Auxp5kI0daRIa6dbRbp53yWa2jNrXedbjlrvGqFSan8axsnNNSOK60vBgjmzWslIN4VQArOxbE9BG+3uzPPfiTZx+ar/pUJq2fAgQnJgA7Acub+RBNnaknXxN5ehQFxc+a5hn7hmwrsRdrwceneaJw/MtPcO2qaukLly1bYHxslAWAFrZt3bu9GpvT4bznznE+c8ctjIpXWmhUH5y69TKBOC+Rh6SzaYYGrBrIdX8YrnhE+NssHNbLxeePcyuHb2mQ4nU3EKZ275zvOXn2La4KqkLV7dYOP8/M1disdD6PLhtSSp0ZnV1dLiLC88a5sw9/dadeLuWhcXyY8s/XpkA3NPIQzZpIZVRfT0Z9uzs45xnDFlZLmzGLXcea3l19WB/1qrVutDZI6v1bLGwAhDGAUA27lIpFitMd8g21Vwuze4dvZx9+iCnbu+8QVWhWHnyXd98AmDhS8f2BGB0qIs9O/s4bWcfWzfZ1zm24uF9szx2YK7l59hYWu3EkVU9bExswzgCeHTIvsOPbF+k2teb4bSd/Zy2s49TtvZ0zGh/NYVi5RvLPz55CqAM1LX3xMaO1KZGOtifZdNwF5tGutg03MWWkW4G+u0/va8ZC4tlvvHtsVCeZeO8su2JazOGBnLWVWogufP/NrXR3p5MrW9d+mfzSBejFv4/b1apVP3y8o+ffKN4rrOY94OHgLPreYiNHemm4S5yzxg0HQZQu0a5K5c+4Z9cLk13V5qRwRy5rH2dX1S+8e0xFpo88e9kNlaubEpcw2Lj/D+EMwVgYxvt7clwTlz61lSK3An96lN97fBAriPuQGnWwmK5cs3lu1ddAwC1aYC6EoDRYbvmqACcZ9m3ZzPp7n1oiof3zYb2PNtGV/MLnblwdSM2zv/PzZebPpp6JRunPs7Y1c8Zu+zdGpcUM3Olqa0rfn7yMLOudQBDAxqhSvQOjy1wawir/pd15dIMWjaNktj5fwsrAGGU/8G+JFXssbBYOeHm36YSABszVLHL3EKZr3zjSEsH/pzMxo61k8+tWI+Nh1iFsQBwoC9Ll4VrH8QOi4XyAyt/3lQCYGNHKvaoVKp85RtHmAu59G3j3GoSKwCD/Xa+BMOY/9fgSqJUKFbuWvnzk/+W3U/tUqB12diRij1u/c5xDo8tbPyFDbLtACCwa3V1WGwc/UM4FQD1rRKlYqn61ZU/PyEB8FynADy40UNs7EjFDnsfm+Heh5q75ncjtnWu5XKVyemi6TDazsZR8PxCmbn51itWqq5KVI5PFirlcvXmlb+2Wp1t3WmA7q40/X12LaQSOzxxeJ6b7zgWybNTqdoBKzYZnypQqSbxCGD7KgBhjP5BCYBEY3K6yBe/fviOa6/YfUKFv+EEQA1UonDw6AJfuuUw5RAX/a00PJgjk7HrdK8kzv+DpQlACPP/uWzauvtVJP5m5kp87qZDzM6XvnHy7zWeAFhYnpN4Ozy2wBdvPhTphTc23iufxPn/gb4s3V02LgBM5gmAEm/zC2U+d+MhZudKAHec/PsNJwA2dqQSX0ePL/KFmw5TKkVb6rYxcU3iFkAb9/9DOH9WNrZRia/FQoXP33SIqZkn1xF96+SvWS0BeABYc+WRGqmEZWyiwOdvOkSx1Pr1qRuxsd0mcQrAxhMAFxbLzMy1fhOejYsfJZ6KpQpf/PqhlX3ILLX7fk7wtATAc50i8L3VHppOpxgd0hyVtO74ZIHP3Xiw5et962XbzpWZuVLb/t/EiY3z/2FVajQFIGGYmy/zma8e5MjxE6al7vRc52kdylrL+W8CLjr5F4cHcx19TaK0x4Ej83zl1iMsFtrzguvtydDbY9cFIEks/4Odo+AwjgBOpUjUjXQSjfHJAl+4+fDynP9KT5v/h9WnAKCWADyNbaMoiZ97Hpzi8zcdatvLH+wcWSVxAWBfr32JGoSTrA0P5MhatktF4uXAkXk+9dWDq738YZX5f1i/AvA0Ns6jSjxUKlVuvnOMBx6dbvtn29huNf9vjzAqADa2UYmPvY/N8PU7jq13d8qqCcCqFQDPdQ6yyomANpbnxLz5hTKf+dpBIy9/sLNyNRbSwTI2sXH+f7FQYXq29QWANlapxLxqFe783jg33n50vZf/FLXF/U+z3pF+NwHPXPkLaqTSqGPji/z3LUeYnW+9k2yWbaOrYimcl4ptbNwCGFaiZlsbFfNm5krcePtRDh7d8N6UOzzXWTU72CgBcJd/0teboafbvvk5Mee+h6e59TtjkR7ws5FMOsXwoF07V5JY/gc7pwDCuAEQdL6KNOahx2e45a6xencKfW2t39goAXiSRv9Sr4npIjffcYxDx8K/0a9Ro8NdpFN2La5K4g6A3p4Mfb32DTDCuAOgp9vO/3Zpv8VChVvuOsbD+2Yb+bavrvUba5656bnOg8DB5Z9vtjA7l/aqVKrc9b0J/utLT8Ti5Q92Jq5J3AFg4+gfwrkDwMY2Ku134Mg8H/vS/kZf/gvArWv95kbX+n0duAHUSGV9h44tcPOdx5iYitf1tTbOrSZxCsDG+f9isbLymNWmaXG1rGd2vsQd94yz99GZZr79Vs911ixTbZQA3MhyAqBGKqsoFCt8MzjO/Y+YWeG/Eds612o1mQmAjTsAdAKgRKlQrBDcP8ndeydbWUf11fV+c6ME4CaATCbFsK6plBWKxQr3PjzN3Q9MMr9YNh3OmmzrXCdnikYXTZpiW6IG4ez/Bw2u5ESVSpV7H5rmrnvHwzgw7X/W+82NEoDvApObhruGLVtHJRGZWyhzz95J7n14mmLMz6of6MvSlbPratkkzv/3dGcY6NuoK4qfYyH8WaXTKUYs26Ui0Xl43yzfuvt4WNuAF4Db1vuCdf/Wea5TyfvBzZuGu14WRjRir8npIt99YJIHH5uhvPaBE7Fi46gyieV/G/+cAMZCqACMDul+laRbLFTY+9g09z08zeR0qGuovrHe/D9sXAEAuGnTiBKApDp6fJHg/kkeOzBL1Y73/pNsLK3qBEA7FEsVJkNYAGjbFJWE5/DYAvc9PM0j+2ejmvb76kZfUE8CcKOtGbo05/hkgceemOOxA7NW70m3sXNVBcAOxycKoSTENiap0rxiscLex2e47+FpxqP/u/7Vjb6gngTgW8MDuSqgOlWHqlZr2ejyS79TjqG17eyKhcUyc/PxXVAZFRsrAGHM/4N9bVQaNzVTZP/heZ44PM+Bw/OU2rPId5YN5v+hjgTAc53Cg48cPdzTndkRSlgSC+VylScOz/PYgTkePzjHQoxX8jcjl00z2G/XwrIkjv67u+z7c4IQdwBYWKWS9RWLFQ4cXWD/oTmeODxvakD1uY3m/6G+CgCTM8XPbt/S84bWYxIT5ubLjE0ucnyiwPhkkeOTBSani1Rsm9RvgI0dq83TLc2ydQQcxh0A/b1Zurvs2qUiJyqXq0xMF5mYLjAxVeTg0QWOji3GoW/9eD1fVFcCML9Q/pNqlTdoK2A8VSpVCsUKhWKFxUKF8ckCx1f8E8JeUuvYOq+cNDaeAFjr9Fv/s7KxjSZRpVplsVBhcrrIxFSx9u/pAhPTRWbiOV1aAD5dzxfWlQBc/Zzd9z26b2xq80jXUEthtcl9D08zMxfLP5imlMtPveALxQrFUuWEnyfx4JiN2Li4aiyBUwA23gEwNpncBYCPH5jjyPHO2alSqVQplioUS1WKxQqFUoVi8cSfW9i/ftlznal6vrDuybeJ6cJNm0e6Xt58TO1z5/fGmV/orDltaczwYM6a8woAKuVq2HuArXDrd8a4/e7jpsNoSKkUTruycZrq3oem2H943nQYsr6P1fuFdScAc3PlvwJinwDML5T18hc+89WDG3+RGJfkv6s2TgEksUplmQrwyXq/uO4VKM+7bNfnp2dLsf/TVwMVkbjLZlMM9tt1BLAGV1b4uuc6R+r94oaWoB6fKNzVeDztlcSFVCJil01DXdi2qDqJ21QtVHf5HxpMAGbmSn5jsbSfEgARiTsbFwAmcZuqhera/resoQSgUKx8aGGxHOs9ZWOTnbNCVUQ6k43nH6gCEHt3eK7zeCPf0FACcO0Vu0tjE4UHG4upfcoJXUktInaxcQeAqqux11D5HxpMAACmZov/0ej3tMv4VDj7c0VEojQ6bNcCQA2urBB9ArCwWPnzuB6MoAxVROJuaCBHLmvXEcDjU4U4HG8ra7vPc537Gv2mhlvhtZfvPn5sfPFQo9/XDtoCKCJxZ+P+f83/x17Do39oIgEAmJwpfq6Z74uaKgAiEnc2zv9rB0DstS8BmF8o/1ElhsesKksVkbizcQugBlex9rjnOnc0841NJQBXP2f3A0eOL8bqrNWZ2RKFYqx3KIqIsNnCCoAGV7HW0N7/lZpeiTI+VfjHZr83Cpr/F5G46+5K099X9xUssaDBVew1Vf6HFhKAhYXK++J0KJBKVCISd1bO/2twFWdHga83+81NJwDXXrF74fDY4p3Nfn/YdAKgiMSd5v8lZJ/wXKfpgXhLm1GnZorva+X7w6RGKiJxt3nYviOANbiKtabL/9BiAvC8S3d9YnyyMNvKM8JQLFaYni2ZDkNEZF2qAEiI9gFfbOUBLR9HdWyi8MlWn9EqrVAVkbhLp1OMDtl1BLAGV7H2t57rlFt5QMsJwOxc6TdNHw2sQypEJO6GB3Ok0ynTYTREg6vYWgQ+2OpDWk4Arrl892OHxxYea/U5rVAjFZG4s3H/v3YAxNZHPNc52upDQrmRYmK6+LdhPKdZmqMSkbjT/L+E6K/CeEgoCcDiYuXP5ubLRiaKqlU4PqVGKiLxZuUlQEoA4uh2z3W+GcaDQkkArr1id+nw2MI3wnhWoyani5hegyAishHbDgHS4Cq2Qhn9Q0gJAMD0bOndYT2rEZr/F5G46+vJ0NOdMR1GQyZnNLiKoWPAv4f1sNASgKsu2/W1Y+OLE2E9r15jEzqkQkTiTfP/EpIPeK4T2ksvtAQA4PhE4SNhPq+uz1QFQERibvOIfScAqm+NnTLwd2E+MNQEYHah/Cvzbb4gSFmqiMSdbfP/oOpqDH3Kc53Hw3xgqAnAtZfvnjl4ZOELYT5zPfOLZeYWWjoISUQkcpoCkBCEtvhvWagJAMDUTPEtxVKlLStH1EBFJO4ymRTDA3YdAbygwVXc3Ou5zpf5u4x2AAARdUlEQVTDfmjoCcA1l+9+7MCRhbZcE6w5KhGJu01DXaTsOgFYfWv8/HUUDw09AQCYmC68tdKGIoDuABCRuLOx/K++NVamgX+O4sGRJABXX7b7tkPHFh6J4tkraQpAROLOxgRAfWus/JPnOtNRPDiSBABgbKLwa1E9G6BcqTI5XYzyI0REWqZLgKRFkZT/IcIE4HmX7vrokeOLx6J6/sRUkUpVp1SJSLzZtgWwXKkyOaXBVUx82XOd+6J6eGQJAMCx44vvj+rZ2qMqInE32J8ll4u0mw2dBlexEvrWv5UibZlXPPvUP52YKs5F8WytUhWRuNP8v7TgceBTUX5A5Knp4bGFf4ziuVqlKiJxt3nYviOAxyZVXY2JvOc6kR7GEHkCMDdf/pXZ+VIp7OeOqwIgIjGnCoA0aT/wt1F/SOQJwLVX7C4cPLrwyTCfOTNXYrHQ1isHREQaZuMOAE2vxsLveq6zEPWHtGV1ysxs6S2LhfBOBlKGKiJx15VLM9CfNR1GQzS4ioW9gN+OD2pLAnDN5buPHDgyf1NYz9MeVRGJO9u2/4FG/zHxbs91Qp82X03b9qdMThd/crFQCSW1VAVAROJO8//ShG8DH2nXh7UtAbjm8t1P7D80F8qWBmWpIhJ3Ns7/a3eVce/0XKdthzC09YSKqdnSa1vdEVAsVZia0SlVIhJvVlYANLgy6eue63yunR/Y1gTg2st3Tz1xaL6lcwHUQEUk7lIpGB2yKwHQ4Mq432z3B7b9jMrZ+fJbJ2eKTW9v0ByViMTd8GCOTCZlOoyGaHBl1Gc91/l6uz+07QnAtVfsLh04PP/HzX6/GqmIxJ2NJwBqcGVMFXiXiQ82ckvF5Ref+p6xicJkM9+rRSoiEnea/5cGfMRznW+b+GBj11QdOrrw641+T7WqI4BFJP5sTAA0uDKiBLzb1IcbSwCee8mpf3/42MKhRr5naqZIqaxrKkUk3mzbAqjBlTG+5zp7TX240YuqjxxffFMj106rRCUicdfbnaG3J2M6jIZocGXEAvC7JgMwmgA879JdnzpwZL7u7EclKhGJOxvL/xpcGfE3nuvsNxmA0QQA4NjE4mvKdWaeWqUqInFnYwKgwVXbTQN/aDoI4wnA1Zftvm3/4fnb6/nascnFqMMREWmJbfP/oAqAAX/muc4x00HE4q7K8anCT3Tl0vel1omnWK4wN19uZ1giIg0rlascOhr5Ve6hGhvX4KqNjgF/bjoIgFS1kVV4Ecr7wVuAvzEdh4iISITe7rnOX5gOAmIwBbDC3wO3mQ5CREQkIgHwV6aDWBabBMBznQrwc4Dq/CIi0mnKwM94rhObG5dikwAALB2H+Jem4xAREQnZ//Jcp64F7+0SqwRgyW8DRvdGioiIhOgRDB75u5bYJQCe68wAv2g6DhERkZC82XOdOdNBnCx2CQCA5zofBz5lOg4REZEW/R/Pdb5kOojVxDIBWPILQOwyJhERkTodBn7FdBBriW0C4LnOY8DvmI5DRESkSb/ouc5x00GsJbYJwJI/B+42HYSIiEiDPum5zkdMB7GeWCcAnuuUqJ0NEI/jCkVERDY2Bfy86SA2EusEAMBznZuBD5mOQ0REpE6/7rnOE6aD2EjsE4Alvw4cNR2EiIjIBm6idrR97FmRACwtoniH6ThERETWsQj8rOc6VkxbW5EAAHiu88/Af5mOQ0REZA2/57nO/aaDqJc1CcCSnwEOmA5CRETkJAHwx6aDaIRVCYDnOmPAa9CuABERiY/Y3fRXD6sSAADPdb4C/InpOERERJbE7qa/eliXACz5LeAO00GIiEjixfKmv3pYmQAslVl+Epg1HYuIiCRWGXDjeNNfPaxMAAA813kA+CXTcYiISGK9y3Odr5kOolnWJgAAnut8CPio6ThERCRxPoFlq/5PZnUCsORNwH7TQYiISGI8BLzOlgN/1mJ9AuC5zjjw00DFdCwiItLxFoAf8Vxn0nQgrbI+AQBYmoP5I9NxiIhIx/t5z3W+bTqIMHREArDkPcA3TQchIiId60Oe6/imgwhLxyQAnuuUgJ8CZkzHIiIiHecu4G2mgwhTxyQAAJ7rPEhtUaCIiEhYJqjN+y+YDiRMHZUAAHiu869YvjVDRERiowq81nOdh00HEraOSwCW/CbwOdNBiIiI9f7Ic51PmQ4iCh2ZAHiuUwF+AnjAdCwiImKtr2DpOf/1SFWrVp9jsK68HzwLuA0YNh2LiIhY5QDwbM91jpgOJCodWQFY5rnO/dQuDdIhQSIiUq8S8KOd/PKHDk8AADzX+SzwTtNxiIiINX7Vc52bTQcRtY6eAlgp7wcfprYuQEREZC0f9VznBtNBtEPHVwBWeCNwp+kgREQktu4H3mA6iHZJTAUAIO8Hu4FvAdtMxyIiIrEyDVzpuc49pgNplyRVAPBcZx/ww0DBdCwiIhIbi8APJunlDwlLAAA81/k6HXaes4iINK0C/LTnOl8xHUi7JS4BAPBc5wPA35iOQ0REjHur5zofNR2ECYlMAJb8EvBp00GIiIgx7/Fc5+9MB2FKohYBnizvBz3A54Hnm45FRETa6q8910n0dHCSKwAsXe34KrQ9UEQkSf4d+EXTQZiW6ArAsrwfbAVuAp5lOhYREYnUl4BXeK6T+N1gSgCWLJ0R8HVgj+lYREQkEt8CXui5zozpQOJACcAKS7cH3gRsNR2LiIiE6n7gas91jpkOJC4SvQbgZEu3B14PTJmORUREQvME8BK9/E+kBOAknuvcCbwSmDcdi4iItGyc2sv/MdOBxI0SgFV4rnMjcAO1O6FFRMRO89QW/CXqiN96KQFYg+c6nwFeB2iRhIiIfUrADZ7r3GI6kLhSArAOz3U+DPyC6ThERKQhVeCNSwM5WYMSgA14rvPXwLtNxyEiInX7Vc91/tl0EHGnBKAOnuu8D/g903GIiMiG3u+5zp+ZDsIGSgDq5LnObwO/ZjoOERFZ0+94rvMbpoOwhQ4CalDeD36O2lXCKdOxiIgIUJvz/4WlKVupkxKAJuT94KcBH8iajkVEJOGKwOs81/lX04HYRglAk/J+8Grg34Au07GIiCTUHPDDnut83nQgNlIC0IK8H1wHfBzoMx2LiEjCjAMv91znG6YDsZUSgBbl/eBq4DPAkOlYREQS4gBwnU74a40SgBDk/eBS4AvAZtOxiIh0uL3UXv6Pmg7EdtoGGALPde4Ang8cNB2LiEgHu4valb6Pmg6kEygBCMlSKeoaQDdOiYiE72vACzzXOWI6kE6hBCBEnus8BFwN3G86FhGRDvIJ4HrPdaZMB9JJlACEzHOd/cC1wLdMxyIi0gF8alv9FkwH0mm0CDAieT/oBf4P8KOGQxERsdWfeq7zq6aD6FSqAETEc5154MeB91I7plJEROr3G3r5R0sVgDbI+8ENwD8BvaZjERGJuTLwZs91PmQ6kE6nBKBNls4K+ARwqulYRERiahZ4jec6HzcdSBIoAWijvB/sBP4LeI7pWEREYuZ+aov9dLpfm2gNQBt5rnOA2oFB/246FhGRGPlP4Dl6+beXKgCG5P3gt6ktEEwZDkVExJQStcV+f2Y6kCRSAmBQ3g9+hNriQN0mKCJJcxD4Mc91bjIdSFIpATAs7weXAJ9EiwNFJDlupPbyP2Q6kCTTGgDDPNe5k9qiwG+ajkVEpA3+FHiRXv7mqQIQE3k/6Kb2F+NtpmMREYnAFOB6rvMx04FIjRKAmMn7wauAfwQ2m45FRCQkd1Pb4veA6UDkKZoCiBnPdT4JXETt6ksREdv9P+AKvfzjRxWAmMr7QRp4F/AeIGM4HBGRRhWAt3uu89emA5HVKQGIubwfXAV8GNhjOhYRkTrtA27wXOc204HI2jQFEHOe69wMXEztpCwRkbj7b+ASvfzjTxUAi+T94M3AX6BbBUUkfqrAHwC/7blOxXQwsjElAJbJ+8H5wL8BF5iORURkyV7gZz3X0eJli2gKwDJLl2U8B/hb07GISOKVgfcDjl7+9lEFwGJ5P3g18AF0ZoCItN+3gTcunWYqFlIFwGKe63wcOJfaPlsRkXZYAN5J7fpevfwtpgpAh8j7wUuAvwNONxyKiHSum4Cf0aE+nUEVgA7huc4XgPOBP6M2LyciEpZp4OeB5+vl3zlUAehAS1cMfxB4tulYRMR6nwHe4rnOPtOBSLiUAHSovB9kgF8GfgfoMxyOiNjnGPBLnut82HQgEg0lAB0u7wdnUFsbcJ3pWETEGh+m9vI/ZjoQiY4SgITI+8FPUztFcIvpWEQktvYBP+e5zmdNByLR0yLAhPBc51+Ac4B/Nh2LiMROFfgb4Hy9/JNDFYAEyvvBi4H/DTzLdCwiYtz91Lb2fd10INJeqgAkkOc6X6J2l8BbgMOGwxERMw4BbwMu1Ms/mVQBSLi8HwwA71j6p99wOCISvUngj4H/5bnOrOlgxBwlAAJA3g92AO8F3ghkzUYjIhGYB/4K+CPPdY6bDkbMUwIgJ8j7wTnAHwI/aDoWEQlFCfhH4Hc913nCdDASH0oAZFV5P7gK+BPgStOxiEhTqsB/AL/luc5e08FI/CgBkHXl/eCHgT8AzjYdi4jU7YvAb+q2PlmPEgDZUN4PssCbgPcA2wyHIyJruw34Dc91vmo6EIk/JQBStxU7Bn4JGDEcjog85XvAuzzX+S/TgYg9lABIw/J+MEitIvDLwKmGwxFJsseoVeb+r+c6FdPBiF2UAEjT8n7QBfwU8KvAuYbDEUmSo8DvA3/nuc6i6WDETkoApGV5P0gBrwJ+He0aEInSI/z/9u7n1YoyjuP422uGBQX9QNMoggyEa7MJKgrbFAQRaZuoRdFgtB5a9HcMhEFBDG7apUTQJtIWlf0woqGyqBbSBYPSSkLNW9cW3zkcO6l17ZzzPT/eLxiec+/dfFb3+ZxnZp4HdgMvVWXxW3YYTTcLgIaqbtrtRBF4CFiTHEeaBWeBt4jzO950qV/DYgHQSNRNuw14HngCdxaULsUJYA+wuyqLr7PDaPZYADRSddPeDDwHPINnDUj/xWFimX+Py/waJQuAxqJu2muJk8eexTcHpEErwBvAC1VZvJ0dRvPBAqCxqpt2LfAgsSLwMLAuN5GU6hjwCvBiVRZHssNovlgAlKZu2g3AU8QJhFuT40jj9ClxMt+rVVmczg6j+WQB0EToDh/aBTyGzwpoNi0DrxHL/O9nh5EsAJoo3S6DjxNl4K7kONIwHAVeJt7dP5odRuqxAGhida8S7gKeBK5LjiOtxhKwj/jG/25VFn8m55H+wQKgiddtObwDeBp4ALg8NZB0ft8Be4lJ/6OqLPznqolmAdBUqZv2amKXwZ3deFVuIs25L+gm/aosPssOI62GBUBTq1sZuJ8oAzuAjbmJNCc+Ib7l73WHPk0zC4BmQt20C8DdRBl4FNiSm0gzZAU4SH/S9319zQQLgGZS3bSLRBHYCdyRHEfT5w/gHWJ5f19VFj/kxpGGzwKgmVc37U1EEXgEuAe4MjeRJtRJYD8x6b9elcXx5DzSSFkANFfqpl1HrAjcB2wH7gWuSQ2lLKeJpf39wAHiyf3l3EjS+FgANNfqpl0D3E6Ugd61OTWURuUM8CEx2R8ADlZl8XtuJCmPBUAaUDftrUQR6K0S+EDhdPqVeGL/A2LCf68qi1O5kaTJYQGQ/kXdtJvorw7cCSzieQWT5iRxwM7HwKFu/MbNeKQLswBIq9TdNrgF2DZwbcVdCsfhFPA5/Yn+EPCl2+1Kq2MBkIakbtrLgNv4eylYJG4hrE2MNq1+BL4CDg+MR/xmL/1/FgBpxOqmXU+sDvRKwRbiQcPNwCbmd9XgLPAT8H13fcs5k72v4UmjZQGQEnW3E64nysCN9IvB4M8bgIWkmJdiBThGnIq3REzwvbH3ecmn8KU8FgBpCnS3F26gXwg2EhsaXQGs78YLfb7Y3xeI1+OWzxmXz/O7M911Ajh+kevnbvzFZXppsv0FOQYAiSeFUiAAAAAASUVORK5CYII=;" vertex="1" parent="1">
          <mxGeometry x="247" y="305" width="90" height="90" as="geometry" />
        </mxCell>
        <mxCell id="A42xf_0t4kiLN95eDPth-2088" value="" style="shape=image;verticalLabelPosition=bottom;labelBackgroundColor=#ffffff;verticalAlign=top;aspect=fixed;imageAspect=0;image=data:image/png,iVBORw0KGgoAAAANSUhEUgAAAgAAAAIACAYAAAD0eNT6AAAABHNCSVQICAgIfAhkiAAAAAlwSFlzAAAN1wAADdcBQiibeAAAABl0RVh0U29mdHdhcmUAd3d3Lmlua3NjYXBlLm9yZ5vuPBoAACAASURBVHic7N13mB3nYR7695tyetned4HFohcSIMQqEmyyem9PbMtx3O0kV0+kxL6J//CjxNey8zy27k3y5HGur+U4kovsSFSjKIqdAEmABSwgiI5dbO/t9DLl/rHEGiB2sbvnzDnfnJ3394+E3TMzL8/Z3Xln5ptvhG3bIG8Yfe6f/zaE/eeyc7xrsvP+b7fJDnHV6NFfOgEbd8rOAQDCxn/ueODb/152DgA4+fFPHATwhuwcVHPqDz/64wXZIQBg9Llf+msI/LLsHABgC/uHXUf+5tOyc1ylyA5ARERE1ccCQERE5EEsAERERB7EAkBERORBLABEREQexAJARETkQSwAREREHsQCQERE5EEsAERERB7EAkBERORBLABEREQexAJARETkQSwAREREHsQCQERE5EEsAERERB7EAkBERORBwrbtVb/51WNfbwJwG4CGqiWiivmENfqBnUj8muwcAGBAWfwvyq7flp3jqt+xL/xhyDa3y84BAGMI/ujvla1/LzsHAOx4c3LLHT/r/xPZOai2PPrrB39tsTGYkZ0DAH7Z6v+dJuSPyM4BAAtCf+2bYvufVWlzcwBe/8Z9vz+z2gu0937hq8e+3gngjwEcAbClctmo2oZEGDvthOwYAIA8lDgAV+zkAGARPoSQlR0DADAqQp8E8EnZOQBgpiMiOwLVoGxE/6bsDFdNIogm5GXHAADMwP8+VPnv3lePfX0QwFEA/+Eb9/3+6LXfU97zwl8CcBrAL4E7fyIiolq3BUv79NPv7uOXLReArx77+p8C+BaAuupmIyIiogqrA/Ctrx77+vIlCAUAvnrs6w8B+KqsVERERFQVX/nqsa9/AACUrx77ehTAXwEQcjMRERFRhQkAf/XVY1+PKwB+HrzeT0RE5BXdAP6ZAuB9spMQERFRVb1PAXBYdgoiIiKqqsMKgAOyUxAREVFV7VcA6LJTEBERUVXpfBYAERGRB7EAEBEReRALABERkQexABAREXkQCwAREZEHsQAQERF5EAsAERGRB7EAEAEouOhZWHn+WhI5piDc87tdhCo7wnX4l4YIwBSCsiMsm0RAdgSiTWNauOf3aUr4ZUe4DgsAEYApF+10J4V7yghRrZu03fO7PWG763ebBYAIwLgIwHbBZYB5+JB12WlColo2I/woumBXZ0G46mwEwAJABABYhA+nRFx2DBwTLbIjEG0qFgSOiWbZMXBCNLlufI+70hBJdFS0IiHkPRvrHOK4KKLStk+0Wb0p6jGMsLTtT4oAXhaN0ra/GhYAoncVoOCnokNKS5+BH08rrVXfLpEX2BD4mdKORQkPv01Dx09FJywXXGJ8LxYAomuMIIS/Fn0YQKQq27Mg8LJowreVXuR47Z+oYhah41vKNrwp6qs23uesiON/Kr2Yha8q29soTXYAIrdJCQ2PiG7sQgJb7TRa7SwaUYAC25H1F6BgWvgxiSDOIMZR/0RVUoCCp0UbzosYdloJtIkcmu08NFiOrP/qQL9J+HEJUQyI6hxIlEpqAVCEQHuwFa3BJrQFmhHxhTCdncNkbhpjmUksFJIy45XEp+jYHd+OPfE+hPUQfIqOnJnHUHoMA8lhDKSGZUekdTqPGM6LGCAADRZCtoly5xSxAKSgO1QliKgUIwhhRAkBABRhIwKj7HMCtr108ODGU/2rkVYAOkOt+Ejng2gNNl339R3RXgCADRuvz57GsxPHkTcLMiJu2OHGA3i44/3QxY1va2eoDXc334aB1DAeH30ec/kFCQmpVAYUJASvmBFtNhYEEk6MDaid/f6yqhcAVaj4UOcRHGzYd9P3S0DgcOMB7I714bHR53Ah0V+1jBulCQ2f6vkgdse3rfna3kg3fnPHz+MfrjzKswFERCRN1Q9pHmy/C4fW2PlfK6yH8NmeD6EtKP8+ztV8oOP969r5X6UqKj6/9aOu/m8iIqLNraoFoDfajTuaDm14OVVR8bktH4ZPkXeP9mp2RHtxuPHAhpfzKTo+1f1ztXjWiIiINoGqFoB7mg+XvMOr88Wxr36no3mccE/LbSUv2xRowI7Y+s8cEBEROaVqBSCihbEl0lnWOm6p2+1QGmfU+aLoDLeXtY5DjfscSkNERLR+VSsAWyKdEGWe8O4Kt684wl6WLeGusk/hNwfcNz0kERFtflUrAH7VmZmQfJp7ZlTyq+U/2zmmR6Aq1Sk1tnDP3ecc+0C0ebnhyZq0tqoVAN2hh6y46QyArpQ/datlm4DtzCxUa0nZ7nnvki76HGl1mWj5JZe8pehTYfg4rXUtqFoBmC3Ml72OomUgWUw5kMYZsw5M5jOTn4dZpQLgpilnJ+CeLLS6fFBDKs4SQOs33xqGzRMANaFqBWA4PQa7zAlQh9JjVdtZrsdQeqzsdUxmZxxIsj5paEi75PEP4ywANWO2w93zmZO7zLXJe+wubUzVCkDeLOBKcqSsdZxbuORQGmdkjCyGyywBlxJXnAmzTm54OIUJgWERkh2D1mlsW73sCFRD+PNSO6o6D8AT48dKPoKfyE7jrfmzDicq389Gj8KySzuzcSHRj7OL1S01R0ULMpIfO/uiaHZm7m2qiv79zZjYEpcdg2rAwL5mjG/lz0qtqGoBmMnN4cWpVze8nGEb+Onos2VfQqiEydwMjk+/vuHlMkYOj40+53ygNWSh4imlvLkLyjEugnhN8NbHWnPio30ocmAX3UQm6sNrP7dVdgzaAPXuX3n4a9Xc4FB6DIZlYGu0e103imTNHL4z8COMZiYrnq1UV1IjAGxsiXSt6/ULhQQeGXocs7nyB0aWYg5+5KGiG1nHnnG/HiMihJ+ITuQln4GgjSv6Ncx2RNA2uAi9YMqOQy6z2BjEsU/vQjoekB2FNkB85egfSTms3h7bigfa7kJroGnF79uwcXbhMp6fPFEzj87dFduGI213oGXV/ybgjdnTeGr8BRQto7rhVlCPAj5sjaED2YpupwgFx0Qz3hT1vD+4xul5E4efuYK+U1Oyo5AL2AI4d3sH3rqvG6bGx2XXGmkF4Krt0S3oCrej3leHkBbAQiGBufwCziUuYz6/KDNaSQSAvthWdIfaUe+vQ0DxYSo/i8nMDMZzU5jJzcmOeB0BoMXOohV5tCKLrvwC/Eax7PVOBuswoQQxiSDGRRBZHvVvKtH5HBrHU2iYTKN+Mg2tyLMCXlH0a5hvDWO2LYzZ9gjSMd4mWqukFwByl51DF9AxM172el649f0wVHfcckhERDfiORsiIiIPYgEgIiLyIBYAIiIiD2IBICIi8iAWACIiIg9iASAiIvIgFgAiIiIPYgEgIiLyIBYAIiIiD2IBICIi8iAWACIiIg9iASAiIvIgFgAiIiIPYgEgIiLyIBYAIiIiD2IBICIi8iAWACIiIg9iASAiIvIgFgAiIiIPYgEgIiLyIBYAIiIiD2IBICIi8iAWACIiIg9iASAiIvIgFgAiIiIPYgGg65iqVvY6bCFgKaoDaYiIqFJYAOg6yVCk7HWkAyFYQjiQhoiIKoUFgK6TCkVdsQ4iIqosFgC6TsYfRFHTy1pHIhxzKA0REVUKCwDd4HLntpKXTQfDmGhsczANERFVAgsA3WCisQ2z8cYNL2cLgbNbd/P6PxFRDWABoBWd79mJdCC07tfbQuBS13akguUPIiQiospjAaAVFXQfTu45jKHWbthrHNGnA2G8vusQRps7qpSOiIjKVf5N37RpWUJBf+c2TNc3o2V+GtFMEpFMCqppIBsIIRmKIBGOY7ypDZZglyQiqiUsALSmZCiK5DW39qmWBVOp3R1+c6ABO2K9aPDXIaqFEdUj8CkakkYayUIaiWIKg+kRDCSHYdhmRbOEtCB2xHrRHmxBVA8jqocR1oLIGDkkiykki2lMZKdxITGAtJGpaBZVqNga6cLWSBfiehRRPYyIHoZhGUvvTTGFufwiLiYGMJWbrWgWAGgNNmFHtBf1/jiiehgxPQJVqMvvS6KYxEBqBIOpUZgV/pyINiPxlaN/ZMsOQVRpYS2EO5sPYne8D/W++LqWKVoG+pNDeH3uNPqTQ45lUYSCW+v34ED9bnSF2yCw9qBJGzZGMxM4PX8Bb86dcXSH1xPuxPuaDqAv2gOf4lvXMguFBM4vXsaJmTeRKqYdyxLTI7iz+RB2xbYh7lvffBJ5s4DLyUG8OnsKI+lxx7IQbXYsALSp+RQddzUfwp3Nh+BTSp/fYCA1jKfHX8RkdqasPHvi2/FA211o8NeVvI6FQgLPTZzAOwsXysrSHGjEQ213Y3tsa8nrKFoGXpl5E8enX0feLJS8noDqxz0th3F7063QROnTSJ9P9OO58eOYyc+XvA4ir2ABoE2rI9SKz2/5KKJ62LF1vjD1Kp6feHnDywVUPz675cPojXQ7lmUwNYpHhn6KjJHb8LL3tt6OI613rOvsw3qkjQy+O/jTko7At0Q68dmeDyOkBR3JYts2np04juPTrzuyPqLNSr37Vx7+muwQRE7bX78Ln9/6UQRVv6Pr7Ql3ojXYhEuJKzBta13LNPnr8aW+z6A92OJoljpfDHvj23ElNYK0kV3XMrqi4dM9H8T7Gm9xbOcPLJ1pOVC/C0kjg8ns9LqXO9y4H5/u+RB86vouPayHEAK90W40+OO4nBiEBR7jEK2EBYA2nTubD+GjnQ9AqdCdCU3+evRFt+CdhQtrloC2YDP+ed/nEHHwLMS1AqofB+p340pqBMk1rsVrioYvbfsMtkV7KpJFEQp2xnph2RaG02Nrvv7+1jvxUPv7ISo0cVRLoAlbIl04vXABNksA0Q1qdyg30Qp2xHrxcPs9Fd9OW7AZn+r54E2PoiNaCF/Y+jH4HTy6XYlP0fGFrR9DTL/5JEyf7P4AOkOtFc0CAA+03YU98e03fc3+ul24t/X2imfpDrfjY10PVXw7RLWIBYA2jeZAIz69xk7ZSTtjvXig7a4Vv6cKFZ9fx07ZKVfLhqasfGfvfa13rLlTdtInuj+AtmDzit/rDLXi493V2ykfqN+Fu5tvq9r2iGoFCwBtGh/rerCskf6luKflMFqDTTd8/Y6mW6tytH2ttmAz7m4+dMPXmwINuK+l8kfb19IVbcUjbwGBj3U9BLWMkf6leKDtrnXf/knkFSwAtCnsim9DZ0jOUwgfarv+kkNQDeCelsNSstzVfBvC7xlN/2Db3RW7zn4zbcFm7Kvbed3XbqnfjebAxh80VS5FKHiw7e6qb5fIzVgAqOYJIaT+cd8W7cHWSNfyv+9pOYyAw3cfrJdP0a+7tt4VbsfOWK+ULMDSkffVwZiaUHGk7U5pWfbUbXf8TgyiWsYCQDWvJ9yJRn+91Ay3NewH8O4sfw17pGa5pX738in22xr2Sc1S54stz33QF9tStTERqznUKPf9IHITFgCqebskHuFe1RfrgSpUdIc7EFQDUrP4FB+2RrqgCKWsWf6csiu+bel/Y9skJ1m6S4SIlrAAUM3b6YIdy9WdrhvKCLC003VDGQGWdrpCCFeUkYgWkjZWhMhtWACopsX06LofGlNpPeEOdIc7ZMcAsJSlJ9wuOwaApZ3u9uhWV5QRYOm9ISIWAKpxTs7zX66YHnFNnqgeQURzRxZg6RHMblGpWRmJag0LANW0iB6SHWFZVA879kCbcvkU3TVnRgC46h78qIuKEZFMLABU08KaewpAgxas2iyE69GgyLkVcSUtq8xQKENYd0dJI5KNBYBqWtEqyo6wLJabkh3hOvHFSdkRlnWlrsiOsKxgGbIjELkCCwDVtFQxIzvCMpGZANb5WN6Ksy0gMS47xTKxjqcDVktqjacmEnkFCwDVtJThngKA7BREbkZ2CgCAnZ6FnXZHFgAQqUHZEZal3fQzQyQRCwDVtMVCApZtyY4BABDJK67Z0dnzg7Dnh2THWGJbEDMnAdiykwAAZvMLsiMQuQILANW0glXEldSI7BgAAGX8OSjjz8mOAQCw+o/C6j8GN+x0xewbS+Vo7h3ZUWDbNi4nr8iOQeQKLABU8y4k+mVHgFi8AJEehRh7Fm7Y6VqXnoOdmoY9cUZ2FCijzyz979gzkpMAw5lxZIyc7BhErsACQDXvQmJA+mUAZeRJAIDITkPMviU1iz11Dvbi0qA788LTUrPAtqCMLWVQRp+C7HJ0bvGS1O0TuQkLANW8ZDGNN+YkHukWFqFe+rvlf6pn/oe8LACM43+x/P/Nt74LOzMnLYsy+KPlOwBE8gqU4celZZH+c0LkMu6ZnWMNQZhotbOIoVj2VCs2BBagY1IEkIfqSD5ZBIB6FNBi5+CHWfb6ilAwI/yYgR+Wiya1WcuxyVdwS/0u6Ipe9W2r574JFJPL/1YmX4IydQJWy11Vz2KNvgnr8tF/+kIxA/PEX0J76PeqngVmHuo7//26L6mn/xuszg8AEj6no5Mvw+AcAETLXF0AdFi4157GdjuJGCow4YsNLMCH8yKG46IJZg3t8FqQwxF7Cu12Fj44fPrbBgwITCOAl0QTrgi5z3Bfj7SRwUtTr+P+tjurul2RGr7u6P8q9dQ3YD30d0A1Z8CzLZhH/58bvmyeegTqwS9ANFT3SYXqhW9BZK+fjEikR6Be+juYO3+5qlkmczN4a/5sVbdJ5Hbq3b/y8Ndkh1hJt53B5+wh9CINv9M7uGsEYKILGeywk5gQAaRQ/SOTjVBg4y57Fh+1x1CPAtQKXVNVAERhYC8SiMHAiAi7viANp8fRHmpFg7+uOhs0MtCP/iZEbvqGb4ncDER+Hlb7kepkAWA8/w1YF1cYaGdbsAZfgbr3Y4Dmq0oWZeoEtJNfw0rX/JXpV2E13w6EqvO0wqyZw9/2/wA5M1+V7RHVCleOAdhhJ/FFexDxShz1r6IRefyCdQVbbHfPEvYJexT32NNQqjiYar+9gF+wBqC5YHT7zdiw8YOhn2EmP1+VrWmv/AeIxOqDypT+f4Ry+R+qkAUwT/8I5ut/v+r37flBFH/y+0szBFaYSA1BO/HvAHuVS1KWAf34VyAylZ8d0LItPDL4OBYKiYpvi6jWuK4AhGDg52w5U5gKAB+yx50/pe6Q/fYCttvJtV9YAQ0o4D7bXXPdryRvFvCdgR9XtgRYBrST/xHK2LNrvlR780+gDP64clkAWOefgPH0H6/9uisvwfjZ1wCzcsVapIagvfAvgbV2uPl5aMd+ByJduTkcDNvED4efdM08EURu47pLAB+xx9AKeffp+mEhDBOXhXsepQoAURTxGXukYqf816MdWYwgjIRw92WSvJnH6YXzaAk0On85IL8A/aV/DWV0vbfX2Uv3vxtZ2C13AsLJyyg2jBf/HMazf7ruI3t7+iLs4VehbLsPwuGn4imTL0E/9lsrXhJZiSgsQB36CeyGfbDDnY5mSRbT+M7AD9GfHHZ0vUSbiasKQAQGPijp6P9azcjhpGh01TXvQ/Y8eiH/8oQubFwQMdkx1mTaJs4sXIRhm+gMtUIV5d/toUy8AO34lyEWzm982dk3Iebegt1wAHCglNgLwzB++gewTv9o48smJ2GdfwKirhuiYUvZWWBkoZ77/6C9/p+AjV5nN3NQhn4CCAV2w35HBk2eW7yM7w4+xil/idYgvnL0j1xzYbfPTuLTtjtO1/2DsgUjcM+z5j9pj2CHpNP/11qEjr9UtsuOsSEhLYh7W27H4cb9UMTGr3qJhbNQT/0ZlKlXyg8jVFi9n4W593dgB5o2vLidmYN54i9hnnoEcOCWNqXzINQjX4bSfsvGF7ZNKAPfg3rmfzjyECQ72Axz77+CtfXTQAmf03B6DE+Pv4TRzETZWYi8wFUF4B57Gnfb7niC2XOiFSdFg+wYy37DulSZWyFL8N+VncjV4PwJYS2IHbFe7IxtQ2+0G9pNzgqIxGUoY89CGXvm3TnsHf41UXywWu+C1fEg7PYHYAcaV32pnZ2HdfkYrEvPwRo6ARgFZ7MAEC27oW5/AErf/RDNO1Z/oVWAMvXK0vsy9lxFnn5oB5thdzwIq+OhpbsFbjJnwGR2BucT/biw2I9JlzyJkahWuKoAfMIexU7bHaN13xZ1eEJU5zalteiw8GVr46edK+U7ylaMwtnrx9WmCRVRPYKIHkZED+EDc6fQkBqAyM5A5CaBap4+FgrsYAvgb4IdbMJUoBfR4ZGlx/mmZ2Gnpqoyen85TiAORFsgwk3INneiwTcHkZ0GctNL9/VX83Y6NQA71AoEmmEHmvB46xFM2xZSxTSSxTSyZu3P63/Enqrorc7kjKdFa01NjrYerpoIqJq3tq2FWVan2DZq/ffAsE3MFxYxX1gEANw78gSUnKS7HGwLIjMBZCYg5oG0ehHhgfUNpKtInNwikFuEPX0RuYUolNistCwwcxDJQSA5CAHgvFaPBd1dA3TLtc9eRAicodDtnhWtm66mue42QCIiIqo8FgAiIiIPYgEgIiLyIBYAIiIiD2IBICIi8iAWACIiIg9iASAiIvIgFgAiIiIPYgEgIiLyIBYAIiIiD2IBICIi8iAWACIiIg9iASAiIvIgFgAiIiIPYgEgIiLyIBYAIiIiD2IBICIi8iAWACIiIg9iASAiIvIgFgAiIiIPYgEgIiLyIBYAIiIiD2IBICIi8iAWACIiIg9iASAiIvIgFgAiIiIPYgEgIiLyIBYAIiIiD2IBICIi8iAWACIiIg9iASAiIvIgFgAiIiIPYgEgIiLyIE12ACIir1GEgogWQlQPQ7NNiOIc7OICYBtS8ggtAuhxCDUM20guZTGzUrJA8UPodRB6DDBzsI1F2MUkALv6WYQKocch9Di6lHbMFzNIFdMwbbP6WSqABYCIqMIUoWBrpAs7Y73YHt2CmC8KAXHD62wjCSt5DtbiKZiJdwArX5E8ItABNX4LlPitUIIdgFhhV2AVYGUGYC6egrV4CnZhrjJZtCiU+AGo8VuhhPsANXjji2wTdn5qOYuVGURFCoHQoER3L703sX0Qehx493P6xWteliqm0Z8awoXFAfSnhlC05BS3crEAEBFViK5ouLPpEO5sPoiA6l/z9UKLQq2/HWr97dBtA+bscRgTP4FtJB3Jo8Zvhdb+CYhA+9ovVnxQIrugRHYBnV+AlboIY+wHsDJXHMkiAm3Q2j8JNX4LsEIZuv7FKkSgHVqgHWj9EOzCHIyJx2DOvwzYVvlh1AC0lg9Ca74fUAJrvjyih3FL/R7cUr8HRcvA67On8eLUa8iaufKzVBELABFRBRxq2IcjrXcgoodLW4HQoDbdB7XhThhTT8GY/FnJlwiU0FZonZ+DEt5WWhYASmQHfDt/F+bCmzDGHoFdmC1pPUKLQGv/FNSGuwBR2jA04WuA3vMlaC0Pozj2CKzEmZLWAwiozfdDa/3I0mWQEuiKhjubD+Jgw168NH0SJ6bfgOVEKakCFgAiIgdpQsXHux/GvrqdzqxQ8UFr+yiU2F4UB/4CdnFxQ4urjfdA7/pngFAdiaPWHYQS3YHilW/CSp7f0LIi2Alf729D+BocySIC7fBt+5cwJn4KY+IxbOiygOKHb+uvQIkdcCSLX/Xhwba7sS3Sje8NPl4TZwN4FwARkUMiWgi/1PdZ53b+11BCW+Hb+XtQQj3rXEJA6/w89O5fdGznv7xmNQzftn8NtfmBdS+jxG+Bf8e/dWznf00aaG0fhd7764DiW98Svgb4d/47x3b+19oS6cKv7vgimgNO/3c6jwWAiMgBPkXHz2/7FDpCrRXbhtDroPd9GcLfsuZrtc7PQmt+sGJZIBTonV+A2njvmi9VIrvg2/obgLL2OIhSqfGD8G39Naw1nkCoYfj6vgwR6KhYljpfDL+47dOI6aVdVqgWFgAiojIJCHyq54NoCTRWfltqEL5tvwOhhlZ9jdp4D7TmhyqeBQD0ri9CiexY9fvC37J0dF7i9f6NUGL7oXV8evUXCAV6769D+JsrniWshfDFrR+HrugV31apWACIiMp0b+v7sDPWW7XtCX8L9C3/YsXvKaGepWv+VQujQt/6G+/eMvfe72lL1/xvUlacprV8AGrdbSt/r+MzUCLOX55ZTWuwCR/rquBZmDKxABARlSGqh3FP8+Gqb1eJ7YMS23fD17XOzzl+zX8tQgtDa/vYjVma7ocIVO6SyGq0zs8C7znyFv5WaE0PVD3Lvrqd6Aqv47ZLCVgAiIjKcH/rndAUOTdU6R2fxrXXvJXYASjh7VKyqA13QwTalv8t1CDUtg9JySL0emhN91/3Na3jk1W5DLGSh9vukbLdtbAAEBGVqN4Xxy31e6RtXwQ6oNb/0+luvf0T0rJAKNDaPrr8T7X5IQi1xDkQHKC2fmj5LIAS7IYaPygtS1e4HX3R9d69UT0sAEREJdod74MQa8xiV2FK3dLlB+FvhQh2Ss2ixg4s73TVuupfFrmWUENQokvlTFllTEA17a1bfaCkLCwAREQl2hUvfWY9p6jRPYCiQ43fKjvK0vTB0T1LZUTCtf/3uvqeuOG92RHrlV4W34sFgIioBGEthM5Q29ovrLR3d7pK/BbZSQAAavyWd+f3l0+J7XdNGQmqAXSH3DUYkAWAiKgEbprpTQm0QQm6Y+ciAu0VnWRnI4QWgRKRf5bmqiYX/cwAfBYAEVFJoqU+5KcChN6wrqfYVYPQYoCvMo8xLoXil3/0f1VEc8/PDMACQERUkqibpnn1V34GwvUSegywi7Jj/BNfk+wEyyJ69SZEWg9eAiAiKkFArdy89huVUFeYhU8WoaGguqcczan1siMsC1TwWQilYAEgIipBupiRHWHZtOGeU+5Fq4hFwz2Pwp100XuTNrOyI1yHBYCIqAQJIyU7wrKFQkJ2hGUpI4Nk0T3vzXxhUXaEZaliWnaE67AAEBGVIOmiP+aJYgoZlxx1p4ppV703s/l52RGWpQz3nDUCWACIiEoymZ2BYZuyYwAARjOTGM1MyI4BwF1Z5guLGEiNwIYtOwoAYMwl78tVLABERCUoWkUMJIdlx0DaHVgJDgAAIABJREFUyGI0PYELiX7ZUQAA5xP9uJgYcMVO9/xiPzJGFiNp+Tve+cIipnNzsmNchwWAiKhEbtjpXt3ZumGne7WMpF2y0z3/7udz3gWf0/lF+RneiwWAiKhE5xf7kTcLUjO8NX8WwNLO91JiUGqWt+fPLZeQU+/mkmUuv4DRd0vImYULUi/X2LDx9vw5adtfDQsAEVGJsmYOx6dfl7b9i4kBjKTHl//93MRxaWcBcmYeL02dXP73W/NnMSNxAN6z17wXyWIar828JS3L6fkLmMrNStv+algAiADkVJ/sCLQOORdNvnPVKzNvShn1bts2np04ft3XpnKzeHv+fNWzAMBLUyeRNf/pTgTbtvHc+PGbLFE5o5kJnFu8fN3XXpw6iZxZ/TkBTNvE85Mnqr7d9WABIAIw5m+WHYHWMK/HkFPcV9SKloEnxo5WfbsnZt5YcVDZsxPHq3672WRuBq+ucIR9PtGPC4mBqmYxLAOPjz5/w9dzZh5Pjb1Q1SwAcHTyFSwWklXf7nqwABABGAu4Z75wWpmbP6Nzi5dxbPLVqm3vcnIQz65ydJ0qpvHdK4/BrNI174yRxf++8pNVr7H/cOjJqo5+f3TkGUxkp1f83lvzZ1csKpVyZuHidZdF3IYFgAjASKAVluCvg5sNBttkR7ipo5Mv33DauRJm8vP4/tDPbnqtfzQzgZ+MPFvxLKZt4ruDj930CLdgFfCPVx6tykRFL02dxDsLF276mifHX8BAqvK3b45np/Djkacrvp1y8C8eEYCkFsLRhkOyY9AqJv0NeC2+V3aMNX1/6Gd4Y+6diq1/KD2Kb1/+3rruPHh7/hy+P/Szio1+TxtZ/E3/DzB8zSDE1SwUEvhfl7+LufxCRbLYsPHM+Es3jIlY8bW2jX8ceHTNolCOy8lB/G3/D2BYRsW24QQWAKJ3Pd9wCON+955m9ipTKHik7UGYNXCGxrItPDbyLJ4cOwbbdnY0/uuzp/G3/T/c0JH0mYWL+Pbl7zk+B/1kdgZ/dfEfr7sDYS1z+QX8z0v/2/Gj77xZwD9e+cmG7sYwbBM/GHoCz0+87GgWADgx/Qb+YeBR6beHrod69688/DXZIa7ajQQa4I43bVoEcElEZccAAGiwcYftnltI3hF1SAhddgzH2ULgSqgdO9LDCFryniA2r8QQXnDHnOH5gB8xv7wnmBlCxWMt9+JiuEdahlKMZiZxITmAOl8M9f7yHtU7lZvFj4efwiszb5V0i1+ymMap+XNQFAXtwWYoZRSpnJnH85Mv4ycjzyJnbvyUvmGbOL1wAYliCu3BFvjLuPvm6r31jww+jvHsVEnrGEqPoT85hEZ/HeK+8v7ej2Wm8MPhJyp6BshpLACrYAFY3WYtAACQUQN4I74bITOHjvyMlAwsAEvG/U34m86P4FK4W8r2y5U2Mji9cB4j6XFE9QhiegRCiHUvP5GdxjMTx/H46POYK/OJdoZtoD85hLcXLsCv6KjzxaAp2rqXTxbTODn7Nh4ZehxXHJhbfyI7jZNzp1EwC6jzxxBUA+tetmgZuJDox/eHlna2eau8fUaymMJb82cxkZ1GTI8g5otAYP2f02hmEk+NvYAnx4+5drT/atb/E0DkEQVFw49b78Op2HbsSA+jIzeD9vwMQiUc8dD6GULFlL8BY/4mjARbcSq6vSZO+69lIDWMgdQwgmoA22NbsD26FXFfFBEtjIgegoBA2sgiZSw9RW8gOYwLiX4kKvBI3cVCAo+OPIPHRp/DlnAndsZ70RJoRFgLIaKF4Vd9yJo5pIoZpIw0xjKTuJDox1imtCPsmzEsA8enX8fx6dfRHGjEzlgvusMdiOphhLUQwloQRauIlJFBqpjBbH4eFxMD6E8NV+Ta+sXEAC4mBhDSgtgR60VftAdxPYqIHkZYC0JAIGVkkDYyWCwkMZAaxoXEgOse8bsRLABEqxgMtmMw2L78b61Kt1XZNiB6q7KpNdkQEKI6M8tZQoG1gSOvWpM1c3h7/ry0iXquZdnWcjG5loCQMpPgdG4W0++ZKU9WloyRxVtzZ/DW3Jmqb7vaWACI1skQanU2tHn3geRysh8mdC03Zdmsav/8GhEREW0YCwAREZEHsQAQERF5EAsAERGRB7EAEBEReRALABERkQexABAREXkQCwAREZEHsQAQERF5EAsAERGRB7EAEBEReRALABERkQexABAREXkQCwAREZEHsQAQERF5EAsAERGRB7EAEBEReRALABERkQexABAREXkQCwAREZEHsQAQERF5EAsAERGRB7EAEBEReRALABERkQexABAREXkQCwAREZEHsQAQERF5EAsAERGRB7EAEBEReRALABERkQexABAREXkQCwAREZEHsQAQERF5kCY7AFElWDkT5kwexkwe5kIBti07kTspIQ1akx9aox9qXAeE7EQbJ2CjqbCIjtw02vMziBoZ2ZHIg2wAC3oUY/4mjAWasaBHZUdaEwsAbSp2zkTqpRkUBlKyo9QcJaIhcqQFentQdpR168uM4FMTRxE3+HmTu4wFmvD9tgcx5auXHWVVLAC0aRQG00i/OA0ra8qOUpOslIHEY2MI7I0jdEcjhOre0wE+y8AHp0/g9sUzsqMQragjN4PfGnwEzzYexosNt8J24ek1FgDaFIrjWSSfmpAdY1PInVmEXbQQOdIiO8qqPjX5PPYnL8uOQXRTmm3i52ZegQBwrOGg7Dg34CBAqnl20ULq2LTsGJtK/mIShWF3Xkvfkxrgzp9qyoOzr6E1Pyc7xg1YAKjmZU7OwUoWZcfYdNIvTMMuWrJjXCdgFfCJyRdkxyDaENW28NmJZ113EYAFgGoeB/xVhpUxYEzlZMe4ztbMGMJmVnYMog1ry8+iobAoO8Z1WACoplkZE1aGg/4qxZjJy45wnc4cL/VQ7erIu+vnlwWAaprbdlCbjdve367clOwIRCXryM3IjnAdFgCqabz2X1lW0pAd4ToNxYTsCEQlc9vPLwsAEa3OdVMoui0PUe1iASAiIvIgFgAiIiIPYgEgIiLyIBYAIiIiD2IBICIi8iAWACIiIg9iASAiIvIgFgAiIiIPYgEgIiLyIBYAIiIiD2IBICIi8iAWACIiIg9iASAiIvIgFgAiIiIPYgEgIiLyIBYAoipRVRXBYAC6rkEIITsOlcG0BWZzQdjg5+hmeVNF3tRg27KTuJMmOwDRZhYI+NHT3YW2tlYEAv7lHb9pmpiansHw0CjmFxYkp6T1mMiEcWy8E4OpOEaSERi2Ap9qoieSxJboIh7oGEG9Pyc7pudNZkN4fqwbFxfqMJGNwLYBIYC2YBqHmydxR8s4GgL8nAAWAKKK2bKlCzt3bIei3HiiTVVVtLe1or2tFTOz8zh9+h3k8wUJKWktNgSeHunBTwa3oWhd/1kWTBWXFutwabEOL4534nN9F3F365ikpN5mWAJPDPfiiZGtMKzrz8zYNjCeCePRwW14fGgrPtV7CQ90DMPrJ+J4CYCoAvbu2Y3du3auuPN/r6bGetx91x3w+/1VSEYbYVgC//Xt2/CDge037PzfK2dq+NsLe/CXZw7wlHOV5UwN//mNO/DYUO8NO//3MmwF3+vfib88d0uV0rkXCwCRw5qbmtDd3bGhZfx+H/bt3VWhRFSqnw5vw8WFug0t8+ZsC46Od1coEa3k+/3bMZ6JbGiZt2aacWKyvUKJagMLAJGDVFXF3hJ35M3NTWhra3E4EZVqMBnDk8NbSlr2BwN9mM6GHE5EK7m4WI+XJjtLWvaR/h1IFHwOJ6odLABEDurp7kIgUPqp/J07tjuYhsrx48E+WHZpF4mLlorHhnodTkQr+dGVvpIvuWQMHU+ObHU0Ty1hASByULwuXtbywWAAfp93j0jcwraBK4lYWesYTJa3PK3NsASGU+W9zwNlfs61jAWAyEHxWLTsdcTi5a+DyjOTCyFnlneT1HQuhJyhOpSIVjKeia456G8to+koTNubu0Jv/lcTVYCu62Wd/r8qFmUBkG00vbEBZSuxbWAsw8+ykoZT5X9ORUvBlEfHa7AAEDnEti1H1mMYpiProdL5VWc+A59qOLIeWpmuOPM751e8+TmxABA5xDBMFArlT+aTyWYcSEPlaApky16HKiw0cca5imoMlv856YqJuD/vQJrawwJA5KCp6ZmyljdNE7Oz8w6loVI1BzNoDZZXxHbE5xHgGYCK6o0mENPLK90HGmagCm/O3MQCQOSgoaFR2GVMAzcyMgrLcua0JpXnSMdIWcvf1z7qUBJajYCNe8v8nMr9nGsZCwCRg5LJJCYmpkpa1jAMDAwMOZyISvX+9lE0lngpoDuSwC2N0w4nopU81DGEmK+0swB7G2axPe7dh3GxABA57MzZ80inN7bjsG0bb58+i7wDYwjIGZqw8Ot73oZP3dgZmZBWxK/vOe35B81US0Az8at73t7wafy4L48v7TxToVS1gQWAyGGGYeDlV17F6Oj4ul5fLBp48823MTXFI0a36Y4k8XsHX8G26OK6Xr+vfhb//rZXSj5zQKXZHlvA7x56Bd2RxLpef6hpCr936NWyxw/UOj4OmKgCikUDp985i7HxCezauR3RaATiPYeEhmFgeGQMV64MolAoSkpKa2kLpfGVW1/D0YkuPDPSg9lc8LrvCwG0BtP4cM8A3tc8KSkldYVT+N2Dr+H5sS48O9qDuXzguu8L2OgIp/HxLf04wMszAFgAiCpqbm4ex0+8ClVVEYtGEI1FYJk2srkc5ucXOOCvRggB3N8+gvvbR5Au6hhKRTGdDaE9nEZ3OIGAVttzNxQzPuTmgiim/fDHc/DXZaAFau8OBkXYeLBzGA92DiNV1DGUjGEmF0RHJIWecBI+h+Z32CxYAIiqwDRNzC8sYn5hfaeSyb3CehF76uewp35OdpSy2JbA3IVmLFxuhFm4cVegh4po3DOJWE9t3pYa0YvY2zArO4arsQAQEXlMfjGAiZPdyC8GVn1NMaNj4mQXkqNxtB4chRbkZarNhoMAiYg8pJD0Y+i57Tfd+V8rPRHF0PN9sIp8sNFmwwJAROQVtsDEyS7YG3yCnpHVMXWqvUKhSBYWACIij5i72ITcfGlPvksM1SM1HnM4EcnEAkBE5BGJwXqpy5O7sAAQEXmAZSgopP1lrSO3EFz7RVQzWACIiDwgvxAEynzonZHVYeZ589hm4apPsuiiPlJwURYDCmwAbplavCDc894Q0foUUuUd/V+7nqC/9iYJcoOu3BR+fuwJ2TGWuaoATCGAPXDHRCnTWN8tMtVgQmAWfjQhLzsKrHezEFGNceiR92U87drzIkYGu1NXZMdY5qpDuQnhnp3upIuyAO7JMwM/DNeciyAiolK5qgBMIQDLBTuXIhTMuOwodxzuGHwzIdyRg4iIyuOqAlCAguOiSXYMHBPNrigi1zot6qSfes9DwQnRKDUDERE5w1UFAABeEY2YlHj9fViE8IZokLb91ZgQ+KnSIbWYPCvakIQubftEROQc1xUACwKPKR1ISRifuAgdj4uOqm93vSYRwFHR4tRYng05LerwjohL2DIREVWCq+4CuGoOfvwvZRsesiexx67OXQFvinocFS2uuhVxJSdFA8ZFEB+2xlCPQsW3l4WKp0QbLghOAUpEtJm4sgAAQA4qHhMdOIsYtiOJVjuHJuShOnT8a0BgGgFMigDOixhGUNr82DKMIYhvKdtw0J5HBzJotXOIwblHdaahYVIEMIkA3hANyIJPASMi2mxcWwCuGhARDCACCECFjTCcmYAiBc11A/02woDAa6IBQAMggABM+GA5st6M+38sakokEkFzUwMaGhqg6xoMw0A+X8D09AympmdgWeV/blQFigar6TbYDfth1x+AHd8OW/GVvVqRm4Uydxpi/jSUmZNAetSBsLXJiu+E3XQQdv1+2A17YWvRstcpjAzE/FkoC+9AzL4FMXfagaSbQ039pTchkOAgtBXloCLHI3VX0XUdu3ZuR2fnyo9R7ehoQz6fR//AFQwNefePfi2wYztg3PF/wa7b4/y6Q+0wG/Yv/cMyoJ77JtRzfwFYzp3Vcz1fDMat/yesLZ9wfNU2ADvWB2vLxwEAyvhzUF//Q4jstOPbqjXuvuBNVKOam5tw7/vvXHXnf5Xf78ee3btw8OABCFG7Z6Q2M3PnL8N4+O8rsvO/gaLB3PtbKD78HdixbZXfngvYrXej+HPfr8jOfyVW+wNL2+v6YFW252YsAEQOCwYDuPWWffD51n96uLWlGdt6t1QwFZXC6ngQ5i3/FrZa/qn+jbDjO2Dc9X/DVt01IZnT7GArinf9Gexgc3U37IvBuOOPYcd2VHe7LsMCQOSwvXv3QFU3fjlm27atCIc506Jr+Oth3vYH0jZvx3ph7v8/pG2/GozDXwP0iJyNKzqM2/8ToNTUlXBHsQAQOaitrRVNjfUlLasoCnbv2uVwIiqVceDfwA7InfnS2v4lWPGdUjNUitX1Qdht75eawa7fB2vbF6VmkIkFgMhBTU3lzSLZ0FAHReGvpRtYLXfLjgAIBWi5U3aKirBb7pIdAYBLPmdJ+JeGyEHxWHkTJimKglhM0ilRWmb764FQm+wYAACrfq/sCBXhlv8uu+GA7AjSsAAQOURRFITD5U8oFYtxymXp6qsw4n+d7Dp37Cgdpeiw4+4YgGcHGlxT9qqNBYDIIaqqOnIrn6ry11I221WTM5myA1SADWG75z22LRlPWJGPf2mIHGIYhiOz+uVyeQfSUDmUhbOyIywTC2dkR3CeZQCLF2WnAACI7DREblJ2DClYAIgcYts2Zufmyl7PnAProDIVFl0zJa8y754y4iRl3h3FRsx7d2pgFgAiB42NTpS1/PTMDPL5yj/lkdamTrwgOwJgGRCTJ2SnqAgx8aLsCAAAMXFMdgRpWACIHDQ5NY1UKlXy8pcuXXEuDJVFPf1fILJyTw2r574JkbgsNUOlKOPPQhl9WmoGMfs61IFHpGaQiQWAyEG2bePUqTMljQUYGBhEIpGoQCoqSTEF7TV5MwEqC+ehnvt/pW2/GtQ3/hDIz8vZuJmD9uofAC4ajFhtLABEDkumUnjt5JvIZrPrXmZ4eAQXL/VXMBWVQkweh3byPwJGprrbnXkT2vF/szRYbhMTuTnoL30ZIjVc3e1mp6Ef/wpEaqiq23UbFgCiCpifX8ALL76MK4NDsO3VbzFKp9N48623cebshZu+juRRBr4H35OfgzLzWsW3JawctLf+FPrz/8I1gxArTcy+Bf3Jz0O59HdYenhvZSmDP4b+5GdcMwZBJu8+BYGowizLwvnzlzA4OIx4PI54PIpoNAbbNpHL5jA5NYPZWY74rwnpUWjP/Rqsul1A/T7Y9XthxfsAoZe9apGfhZg/C7FwBmL2FISsU+IymVlob/4JcOFbsBoOwK7fA6tujyMPChJGFlg8D2X+DMT8aYjkoAOBNwcWAKIKy+XyyOWmMDk5JTsKlcWGsnAOWDgHDHwPG3/eI60pMwYlMwaM/IzvbxXwEgAREZEHsQAQERF5EAsAERGRB7EAEBEReRALABERkQexABAREXkQCwAREZEHcR4AIiIvEA6txqH1eNGiFsFAqEN2jGUsAEREHuCL5ly1Hi8aDzTh+20PyI6xjJcAiIg8wF+XA0R5c+3roQJUn+lQIpKNBYCIyAMU1YIvmi9rHf669T/hktyPBYCIyCPqest7+FS5y5O7sAAQEXlE3bZZhJpTpS3bO4tQS2nLkjuxABAReUjrbSNQ9I1dx9fDBTQdmKhQIpKFBYCIyEP0UBFbHrqEYFN6Xa+Pdi+g54FLUFSrwsmo2ngbIBGRx+ihArrv68f85SYsXG5EMe277vtC2PDF8mjcM4lIe0JSSqq02i8Atg1zvggzZcDKGLDSBoQQUEIqlLAGJaJDrddlp6wYn1FANJVENJuEZpR/e46lKkgGI0iGY8j5/A4kJAAIhUJobKyDpukwDRP5Qh4zM3MwTd5SVUssW2AkHcWlhTpYEPCrBpoDWeyom4da5i12MtT3zaC+bwZWUUVuIYBixgd/NA9/PAdRw0f8eVPDUCqKsXQEBVNFQCuiM5xGb2wRArX3OVVKbRYAGyiOZlAYTKMwlIaVufkfUSWswbclBN/WCPS2wKaYyqpxcRY7Ri4hkK/cpBwFzYeBji2YaGqH7dQ0Yh7T3NyE3bu2IxQK3fA9y7IwPjGJ/v5BZDIZCelovUxbwTMjPXhiZAuyxo1/NsN6Efe3j+CBzmGEtKKEhOVRdBOh5jSA9V0WcKvFgh9PDG/BickO5E31hu/HfXk82DmMI+0j8Kks3zVXAIrDGaRfnYU5X1j3MlbaQO5MArkzCWjNfoRub4TeHqxgyspRTQM7Ri6jbbbyA3J8RgG7hi6iZX4G57fs4hmBDfD7fdizexdaW5tXfY2iKOjsaEd7WyveOXMOY2McZOVGQ6kY/u7CHoykI6u+Jl3U8dhQL16a7MBv7j2FnghPm1fbmblGfOvCXqSKvlVfs1jw4wcD2/HiRAd+c+/baA95+66GmhkEaKWKWHxsFIknxje0838vYzqPxGNjSDwxDitrOJiwCmzglktvV2Xnf6365DxuO/86NKPG3i9JVFXFHbffdtOd/7UURcGB/XvR3NxY4WS0UeOZCL7x1vtuuvO/1kLej/966hAWCyzL1XRxsR5//s6tN935X2s6G8J/O3UIGWPzXh5ej5ooAMZEDgs/HIUx7tzp7uJwBos/HIUxW97MWNXUMzWEeFrOkYWvWMCOkYtStl1rtvdtW/GU/1r27tkNTau5k3KblmUL/M2FPTCsjV3+ypkavnNpV4VS0Xulij789bl9G75MmSj68N3+HRVKVRtcXwDyF5NY/OkY7Jzz12ustIHFR0dRGHL/9ddQLoOtY4NSM7TOTaF5YUZqBreLx2PYurW7pGUDAT927uxzOBGV6pnRHgwmYyUt+/ZsM05OtziciFby+PCWks+4vDLZjrPzDQ4nqh2uLgDF0QxSx6YBq4KjNg0bqWcnYcy4+0xA6/wUFFv+qNy22UnZEVytq6u8R312drRDUTjg0g1enCjvs3xpotOhJLQayxZ4faqtrHW86OHPybUFwFwsIvnMJGBX/pYN27CQfGoCVsa917gjmaTsCACASNYdOdwqFl3fteLVKIqCcDjsUBoqVd7UMJPb+GWcaw2nog6lodUMJOJIrPO6/2q8/Dm5swDYQPLpCdiF6h3xWmkDqeemqra9jYqm3TFa1V/Iw2eUPghzMxNCIBIprwAAQCzq3T9IbjGaCZd97JExdMzlAs4EohWVu/MHgNlc0LODAV1ZAPIXE2WN9C9VcTyL4rD7xgOopumqnW4wx0eCrkTTVChK+b9Sfn/5f9SoPMm8M59Bosi7ASpppXv9S5EssgC4gm3ayLw+L2376ddm4baJotw2c1UNTnhWFcWigXy+/LEkyWRtT8ayGXSEy/8MBGy0h/hZVlJYL/+yrU+10Bzw5kGN6wpA/lISVlretXhzroCCC88CUG1IJMq/VJNIcBIZ2ZoCGfjV8v4OtQSzZa+Dbq4vtlD2AVJHKAnFo0c1risAhUH5jdkNGag2LSwulLV8JpNFvuCeyz1eJQTQG10sax198fJ+FmhtIa2Inmh5A5O9/Dm5qgDYRQvFUfmnYgpDadddBqDacOXKcFnz+p89d8HBNFSOz267BE0p7Q9BUDPwsS39DieilXyy91LJy8Z8BXyoW+78KjK5qgAUx7KVved/neycCWO6cg/Zoc3Lsiy8c+Y87BKGkI+NTWBmZrYCqagUHeEUPtg9UNKyn+m9iLjP3XOLbBa74vM43FzaHVxf7Dtfkw9vcoqrCoCVcs/1MtNFWai2zM3No7//yoaWSWcyOHeeUy27zYe6r2BP/cZK2aGmKdzTNlahRLSSL+08g30NG5ul9J62MRxscu+t39XgrgLgoofzyByISLXv0uUBvPzKSaTSNx9PYts2xsYmcOLEaygWvXsk4laqsPGv9r+JL+08s+aRok+18NEt/fjVPaerlI6u0hUTv7n3bTzQOQR1jQF9AdXAF/ou4Bd2nK1SOvdy1ZNHrIx7ns9sswBQmRYWFnH8+Kvo7OxAfV0MsVgcoVAAQgjk83lMTs5geGQEqRQHnbrdXa3j2Nswi5fGOzGYjGIoFcNiwQ8BG62hDG5rmsK97SOI+TiAUxZVWPj8tot4uHMYT4304OJiPWZyIRRMBaqw0BlJ4WDTFO5tG/P0af9ruaoAwJR//f8qF0y7T5uAZVkYHh7B8PDSv1VVhW3bsCz+gNWamF7Ah3v+aUxAztTgV03XzdPhdfX+HL7QtzSY1raXPqeAakDwERs3cFUBUMLOzOrkBCXkniy0eZime85yUXkCvMff9YRYuiODVuaqMQBK0D19RAm7JwsREZHTXFUAhIt2ukrEPVmIiIic5qoCoHcEARdcpxGaAq2FT/EiIqLNy1UFQAmo0Jvl73j1ziCE6oImQkREVCGuKgAAoG8Ny44AnwsyEBERVZLrCoB/RwzCJy+WEtZYAIiIaNNzXQFQAgoCB+qkbT94Wz2E5q63xXV3GXv00ZlERJuJu/Z07wrtr5NyH75W50NgR7Tq212LpaowVPfMS5DT5Y/TICKi8riyAEATiBxpRVWnbtIEwg+0VHeb62RDIBWKyI4BADBUDTk/CwARUa1zZwHA0kj88F2NVdte9EgLtEZ/1ba3UcmgO85MJEPuyEFEROVxbQEAgMDeOAJ7YxXfTvBwA3y97jjCXs1cvHpl6GZm4w2yIxARkQNcXQAAIHx3M0J3NVXk1LxQBSJHWhA6WO/4up02H63DeGO71AzJcBSjLZ1SMxARkTNcXwAAILgvjtiH2iACzg2EU8IaYh/pgN+Fg/5Wc7mrDzmfnOvvllBwdutu2G6YqpGIiMpWEwUAAPTOEOq/2IPgwfJu0xM+BaHDDaj/fA88Gq5jAAAQ00lEQVS01toazGaoKk5v349UsLrzFBR0P0737UPGH6rqdomIqHJq6ok3Ql/aeQf2xpA7l0DxSgbGXH4dCwpoTT74esII7IlB+N1zS91GpQJhnNx9G7aOD6FncgjCruw9+RMNbbjU3QdDrakfFSIiWkNN/lVXghpChxqAQw2wUkUURrOwUgasrAkrY0CIpdcoIQ1KRIPeGdxUj/e1hYKBjq0YbelANJ1ENJNCNJOCapb/3GtTVZAORJAMRZAMR6VdciCXcNltsbwERbXMbVOo1fxeUYnoCOzSZceQoqD5MBtvxKxL7hCQQY1787OvFiXmrvd31leH+mJSdgyiksz64rIjXKdmxgAQrUR18dwNm4HW5K73dzTQLDsCUcnG/e76+WUBoJqmBNVNdXnHbdxWAEYCLbIjEJVsLNAkO8J1WACo5vn73D2JU61Sorrr7pQZDLYjofFpnVR7hgOtmNMrP7HdRrAAUM0L3tYAtc5d16o3g8h9zRCquwbd5RUdP2w9IjsG0YYUhYbvtz0gO8YNWACo5glVIHJfCzhA3DmBPXHo7UHZMVZ0KdyN1+O7ZMcgWrenmu9w3QBAgAWANgmtJYDYhzugRDgeoCyKQPBQfVUfxFWKR1vuw9GGQ7AE/4SRe+UVH37UegQn6vbLjrIi8ZWjf+S2WxOJSmYXLaRfnkX+YhKw+KO9EWqDD5H7Wlw38O9mOnLT+OTkMbTnZ2RHIVpmQ+BSuAs/br0Pi5p7xyixANCmZJs2zNk8jJk8zMUiy8AqlJAGtckPrckPJVi7M2SGzBw6c9PozE0jaqRlxyEPsiGwoEcxEmjGWKAZBcX945J4vpQ2JaEKaC0BaC3uGsVOlZFRA7gY7sbFcLfsKEQ1gxfQiIiIPIgFgIiIyINYAIiIiDyIBYCIiMiDWACIiIg8iAWAiIjIg1gAiIiIPIgFgIiIyINYAIiIiDyIBYCIiMiDWACIiIg8iAWAiIjIg1gAiIiIPIgFgIiIyINYAIiIiDyIBYCIiMiDWACIiIg8iAWAiIjIg1gAiIiIPIgFgIiIyINYAIiIiDyIBYCIiMiDWACIiIg8iAWAiIjIg1gAiIiIPIgFgIiIyINYAIiIiDyIBYCI/v/27iy4jfuw4/hvd3ESIAkSACWR1mlJiaKrOiNZohxHVhwrE3sS29OpO2mTHu5z+6invrSPeu9zp31rk45nPL2Sjs+pJpbHR9I4Tm03cmiRFElRFAkCxB59gDSWTYIGuYvdJff7mfGLBSx/2D+w/98eWABIIAoAAAAJRAEAACCBKAAAACQQBQAAgASiAAAAkECpqANsZF7DkedGneIzZt6KOkKgvKYrz/aijgEAHTFzlmREnaJzFIA1cOdt1T+YkzPVkD3VkLvoRB3pc4yMqVQ5q1Qlq8yeolKVbNSR1sRzPDXen5N9qy57qiHnTjPqSADQMSNlyipnWtvgHQWlh/NRR1oVBaBD9V/PqXZtWl4zRrv8X+AtuWreXFTz5qIWfzGr/OGS8scHZVjxr6T2RF3zr04y6QPYsDzblT1Rlz1RV/2Xd5T9Sp8KXy/LSMfzbDsF4Mt40t3/HNfSjYWok6yNJy2+O6ulGzX1XR6O9emBxXdmVbs+LXG0H8Am0vj1nJpjNfU9OSyrLx11nGXiWUtiZPHd2xtv8n+AM7ukhdduRR2jLXuizuQPYNNy523NvzwZy20cBWAVzsySam/djjqGb0s3FtT4zd2oYyzjOZ7mX43nBwMAgmJP1rX47mzUMZahAKxi4efTkrs5ZqeFa9NRR1im8f4c5/wBJELtrZnYXUNGAViFfasedYTAeA0ndpPtZlq/ALAq15M93Yg6xedQANpw7zblNeLV1vyyp+L15otbHgDoJidm2zwKQBv29FLUEQLnxKh9ek03dkckAKCb4javUADaiNu5miDE6TVxhz8ASROnbbBEAQAAIJEoAAAAJBAFAACABKIAAACQQBQAAAASiAIAAEACUQAAAEggCgAAAAlEAQAAIIEoAAAAJBAFAACABKIAAACQQBQAAAASiAIAAEACUQAAAEggCgAAAAmUijoAEJVCThopuxqpeOrJSp/OGPp0ytCtO4ZcL9wsaUvaOuhppOKq2i9Nz0ljU6ZuzhhassPNYhhSpc/TSMXTSNlTrSGNTbfWzXzdCDeMpN6eVo6RsqdsupVlbMrQ9JyhkIdJmbQ0fG+cBnulyVlDY9OGxmcM2U64WUxDqpZa62W47Gl+8f66MVVrhJtFkvoL98ap4skyPxunmbvhv2ey6dZne7jiaaAoTdxuZRm/bchxQ48TWxQAJE6p6OmZ844e3rbylmCxIb14LaW3P+z+AbKUJV085mj0oCNz2Z9z5HrStfct/evPLTVDmGAO7nT19FlHxfzKU+vH44b+6bVUKBv1ar+n50ZtPVRdOctczdBP3rD0/ifdH6dMSrp82tap/a6MFV6640qvvGfpZ29boUwwJ/a5+s5pW7nMyv/+wZipH79u6c5C98dpuOzp2VFbWwdWHqfb84b++TVLH97s/jjlM9J3z9g6+rCrlV657Ug/fdvSq+9ZoZf8OLLO/ujiX0cdIo6cmSUt/XYh6hiBSlWyyuwoRB1DkuTZnurvzYb+d0/td/WDi7aq/e0//elUayLcMuDpo3FTzS7tgQ+XPf3wW7YO7lx5UpFae+Pbq54O73b1uylTc7XubNDzGemZ87YuHXeUSbd/3EBROrnf1eJSa4+qGwxJ5w46ev4xW6Vi+8dl09LRPa4Giq1x6tYe+M4hT3/yhK29w17bcTINafdWTwd2uLoxaXbtSEkx7+n3H3V04bCjlNX+ceU+Tyf3uZpbbB2d6AbTlL551NFzF2z19bR/XD4jHdvrqpiTPh43u1aQ9j/k6kffsrVzi7fi5C+1Mu8d9rRvxNX/jZuqNcI9OmGVMsruWeVNHTKuAUBinNrv6nvnbGVXmeAedGiXqz96vCmzC9uIgaKnF55sakups92QSp+nP3uyqUpf8LsthiH94PGmju7pbMucSUlPn7V19kB3Ztzzhxx95/TqE9yDju9z9fxjdtuNvh9bSp7+9NtNDfZ2tt63DXp64XJT/YXgx8kypR9esnVgR2fjlMtIz43a+r2HuzPjPnHc0cVjjqwOZhFD0pkDjp4d7U6b3rXF0x8/bquvp7P1vr3q6c8v28pnuxJnw6AAIBFKRU+XT69947O96unC4WAnOkPSM6Or72mvJG1Jz47agReSR77maNeWtU9Y3z7pqBxwIRkqebp0fO3re++wq9NfDXaiM03p2Qt2x0XkvlxG+v654MvRY0cdDZfXvr6/e6bzibFT26uezh1a+2s8tMvtuGh2Kp1qHb1qd3Smnd68p6fOhHyBTcxQAJAIz5x3Ot7z/6KLxxwNdbin3okzBxzt2bq+jeCOIU/nDgY3uZT7PD1xYn3LS6cU6B6dodYe61on3PuePGWrVAxunB497GhkHROuJO0bcXVqf3AT3bZBT984sr5xymek7z0S3HvGMv0V0afO2CrmghunS8fXX0SP7nH11e3JvSqQAoBNr5BT2wv+OmGZrWsCgnLE5x6Q3+c/6Gs73HVPuFLr/HhQh7sH733zYL0yKelAgBvzOI3ToV3uCheJdm7/dnfdBfiLtg56q15D82XyWWnvSHAF4Mhuf+s56CMSGwkFAJveSNn/B9zPxPQg02jtzfmxdcDr6LxrJ4J4XevdS+7GcoLKkknJ1yTXyhLcxPKQz3EypHWdPuhGFim4cerNe75PbwTxejYqCgA2vThNctV+TxmfX761TLX9ytVaBTLpBrQBDWScAsqybdDzfa1FLqOOLx78MsOBlNhgCkmssgQw3uU+L7EXA1IAsOkFsRHuLwSz1z0Y0EVzcVpOUJNcEMuJ03qRFMhFktl06zSW7ywBjVO5Nx7LaC0nPuO0EVEAsOmt9ergbi4nqAv447ScTbl+g3pNQSwjRuu3tRz/k2XsXlMwi9lwKAAAACQQBQAAgASiAAAAkEAUAAAAEogCAABAAlEAAABIIAoAAAAJRAFow8z7uEF6TJk9Pm9BFyAza6orv7MLADEVt3mFAtCGVdl894a0yjF6Taah1GAm6hQAEJpUzOYVCkAbZs6SWYzPHnMQ4vbmi1seAOimuO1YUgBWkR7ORx0hMFYpI7MnXoefNtP6BYDVmHlLqYF4HfWkAKyicKocu3M262JIxdFq1CmWyewuKv1QT9QxAKDrCuersbvuiQKwCiNnqXAufhPnWuWPlJQaCuDnxLqgeL4qI8PbEMDmld3Xq8yOQtQxlmHL+yUyOwvqOV2WYcWruXUqu79XPccHo47RlllIqfebW2N3egIAgpDZWVDhbCXqGCvaXFe5dUn+cEmZh3o0//Kk7OlG1HE6YhZSKp6vbohD7OmRvErf36GF/55S43/vRh0HAHwzsqYKZ6vKPlyMOkpbsSoAaSOlpmdHHWNF1kBG/U+NqDlel32rIXuqLmdmSZ7r/7exA2EYsvrTSlWzSlVySm/LyUhvnAM8RtZU8dEh5Q6XZE/UZU+11rPXdH0vu+Z6mq35HyezkJLpM46ddjRbc3xnsdOWzKL/oyaztabvZdQcM5BvzNRs1/c42Y4CydK0ghknJ5OSWfT3OTTSnmZr/o9ALrrBfLNpvulotubvg7DQMALJsmTKdxZJcrOW73GSJKv33ja4em8bnI33kU3jL1/5m8hmsKFcRUcGvqIt+aq25qvKWlndWbqjm4u3NLYwruvTv5Ad00IAAMBGFskRAMtM6cLQKZ2pHpNpfL51lTL9KmX6daB/r05Wjuilsf/Sx3c/iSImAACbVujHiHtTRf3Fvj/QI0Mnlk3+X1TK9On53U/r8W3nQkoHAEAyhFoADBl6euclDWT71/S8r1ePaXfv9i6lAgAgeUItAKcqR7SzMLKu514eeUxpM1bXLAIAsGGFWgCODR5c93NLmT6dKB8OMA0AAMkVWgHYkquokvN3Q5qRnm0BpQEAINnCKwB5/3dCGu4ZCiAJAAAIrQBkrLTvZfSli8pZ8fo5RQAANqLQCoARwJ9acptqOEsBpAEAINlCKwA3Fyd8L2N8cVKeYnLrXQAANrDwCkBt0vd9/j+tTQaUBgCAZAutADieq3em/8fH8x29c/tXASYCACC5Qr0PwMsT11Sza+t67huT1zVVnwk4EQAAyRRqAag7Df3LJ/+x5lMBU/UZvT55vUupAABIntB/DOiju5/oHz/6iWp2vaPH/3L2A/39Rz+W4/n/bW4AANASyc31f7cwrr/74B90pnpMJ8qHlTE/f48AT9JUY1o/vfmGPpz7bRQRAQDY1CL7dZ2avaif3XxDr0+8qS35qsq5kvJWThOLtzRWm1DdaUQVDQCATS/yn9druEu6sTCmGwtjUUcBACAxQr8GAAAARI8CAABAAlEAAABIIAoAAAAJRAEAACCBKAAAACQQBQAAgASiAAAAkEAUAAAAEogCAABAAlEAAABIIAoAAAAJRAEAACCBKAAAACQQBQAAgASiAAAAkECmpNtRhwAAAKG6bUp6K+oUAAAgVG+Zkt6MOgUAAAjVm6akV6JOAQAAQvWKeXX0ykuSXow6CQAACMWLV0evvHT/WwAvSJqOMg0AAOi6abXm/NbXAK+OXhmX9LwoAQAAbFYzkv7w3pz/2X0Aro5e+XdJh8TpAAAANpuXJB26Onrl3+7/D8PzvGWP+qtX//aypAuSTko6LmkgrIQAAMC3WUnX7/332tXRK8t27v8fad38RwsjK00AAAAASUVORK5CYII=;" vertex="1" parent="1">
          <mxGeometry x="607" y="255.5" width="102" height="102" as="geometry" />
        </mxCell>
        <mxCell id="A42xf_0t4kiLN95eDPth-2089" value="" style="shape=image;verticalLabelPosition=bottom;labelBackgroundColor=#ffffff;verticalAlign=top;aspect=fixed;imageAspect=0;image=data:image/png,iVBORw0KGgoAAAANSUhEUgAAAgAAAAIACAYAAAD0eNT6AAAABHNCSVQICAgIfAhkiAAAAAlwSFlzAAAOxAAADsQBlSsOGwAAABl0RVh0U29mdHdhcmUAd3d3Lmlua3NjYXBlLm9yZ5vuPBoAACAASURBVHic7N13fJvF/Qfwzz2PJO+9JNnxSuwM2c4eVpwQCAkjYRNSVmIT9ixQoIxCWkoLZfTX0kLLygBaSqBA2TMhe5LEsZM4w7HjWJL3ljWf+/2RQYZ1zyNZsmXn3q9XR3z33F2G/Xx143sAx3Ecx3Ecx3Ecx3Ecx3Ecx3Ecx3Ecx3Ecx3Ecx3Ecx3Ecx3Ecx3Ecx3Ecx3Ecx3Ecx3Ecx3Ecx3Ecx3Ecx3Ecx3Ecx3Ecx3Ecx3Ecx3Ecx3Ecx3HeIf09AI4bDObNmyeaysNHUJFMpBIdLxAhVQKNI0AsQF0AaaEgLQKllSDYQqi0dW358sP9PW6O485ePADgOJ8tFooMh40SofMAOh9AipcNVAPkE0nAso2lS34KxAg5juM84QEAx3lp/Phb1Rqb/VoC8jgIcv3RJgHWEYrn1pYv/dQf7XEcx8nhAQDHeaEwv3geKJ4jQFZAOqBYA+De9eVLdwSkfY7juGN4AMBxCkw0FGvVBH8DcFXge6MuQHjFHqJ+dNu216yB74/juLMRDwA4TsbU/AUXUSr8C0Bs3/ZMywBcvr5s2cG+7ZfjuLOB0N8D4LhgVphXfB+lwqfo85c/AJA8gGyemlc8q+/75jhusBP7ewAcF5wWC8b8zH8S4HH0b6AcBtBr05PGHa5p2LGzH8fBcdwgw5cAOO4MiwVj3qF/AuRmrx4jBJ3xQ9CRnInOhHQ4wqLh0oSDUDdUditCupoR1VCN6PpKhHY0ejsoN4CS9WVL3/b2QY7juJ7wAIDjTjM1r/gfFLhNaX1naAQsuUVoGDoRtsgERc9ENVQh+cAmJFduAZHcSrtyU0pu3FC+5N9KH+A4jvOEBwAcdxJjfvEDoHhRSV1JVME06lzUjjoPbk2oT/2FdjQifccXSKzarvQROxEwY13p0o0+dchxHHcMDwA47pipecWzKOgXAFHJ1bXGarG/6EZ0xen90nf84VIM3fQ+1LYu2boEsIggk1aXLanxS+ccx52VeADAcQAmF9ycJkquUgBxcnUbsifg4JT5kETZOMErGmsbRq58HRHNtUqqb9QkZk5btWqxy6+D4DjurMFPAXAcQDKSClYAyJOrWGuYicpJV4EK/v/WcatD0Zg5DlHNNQjtbJKrniZZ22w19TvW+n0gHMedFXgAwJ31jIbiO0Fwr1y9WsNMVI+bC5DATZxRUYWmjDGIrqtESFeLXPVp+uSC/9XW76wL2IA4jhu0eCIg7qw2beQNOhD6nFy9+qETUT12Tl8MCZKoxt5zF8Eaq5OrqhEhvA6+lMdxnA94AMCd1Vyi6mmARLLqWOP0qJw8L6Cf/E/n0oRh74yb4FbLni6YVJhffG1fjInjuMGFBwDcWaswvzifAMWsOm51KPaeUwJJVPfRqH5mi0rEgcJfyNZTq8QXZmQW+3YOkeO4sxYPALizFqH4I2T2wVSNvwS2qMQ+GtGZmjJGozFrLLOOy+nWXXLbuXtqLZZL+mhYHMcNAnztkOtDi4Uiw+F8StwTKEg+gHhQRIPARoEWAagElbbCpdq6ruKtjkCOxFiwKA+SuxSM74GOpAzsuuC+Pp3674na1oGxnzwLlcPzzcDxCTF45Z2HoVIJa6kk3puamqw4sxDHcWcn/x5k5rgeFOYX5xNKbgapulqi0J/yziU//w8FACIAaslmzCv+CpS+s7486yNgseT3QUmuB5hvdkJQOalv1/09cYZGoabgAmRt/chjneamNqxbtRPnnD+uiAjSZpPJ8oog4DGtViufWYjjuLNS//904watY5+ynwZwGXz/t1ZBCH163a5l/8KxGKG3po28QecWVVUANJ7qNGWMQcX0hf7ozi8EtxNjP/kDQrpaPdbJGKrDi/+47+QvlbtF4fIhyckHAj5AjuMGHL4HgPO7GZnFoca84mcguX8CcDl6F2gOp5S8Y8wv/q7QsGiYP8bnFsQbwXj5gxDUFFzoj678RhLVOJI/i1mn+qAZB/edkkXQILqlTbV1dewHOY47K/EAgPOryQU3pzkisRrAYwD8t3We4jxCXNuNhoVX9bYpQsj1rPKW1JGwxqb0thu/a8ieBGdoFLPOmu/PWPqPJxL90mw2FwdqXBzHDUw8AOD8ptCwYJIoubYBmBiYHkgkCFlhzFv4uK8tTDOUjKJAAauOOXear80HlCSqUD90ErPOmh92wO0+Y8uESEHeNJvNwbOmwXFcv+MBAOcXRfkLxxMifAUgOcBdEYD83phfIpu9rydugutY5bbIBLTqh/s2sj5Ql1vI3JjY1tqJ8p2VPRUJFOTNWouFJw3iOA4ADwA4P5g6aqFBouQHKLhJz28ofdiYX/yIDw8yF/cbM8cExc5/T2yRCehITGfW2bl1n6cikVAsNZlMwTnFwXFcn+LHALlemZF7a6JDcPwPQLTSZ6yxKWjTjUBXnB4uTTgElxOhnU2Irj+IGPM+EKrw1B/FH4z5JXvX71ryieKxwsHMqtOcMVpZ3/2oKX00ohqqPZbv2LYfN3p+XAMivF9bWzspNTW1JgDD4zhugOABANcbxKFxvAMgW0nl9pShqB4zBx3JWR5qnA+NtR363Suhq1gLIsledS+A0reL8m8as3bXWz3Oe5/MrnbOIoxZL3tkHDrj0uSa6XfN6QXI3PY/j+WHD1nQ0tSOuASPMZkWgvg+pXQaIUT2D5njuMGJLwFwPjMaiu8AcIFcPUlU4+CUa1A2+27Gy/8oR3g0qiZchp1zHoQ1VqtkGFESdS8DFsv+WxYIPYdV3paSE9TT/8fZIhNgi0zwWE4pxZ5dVcw2CDDFXFf3sJ+HxnHcAMIDAM4nRYYF6ZTgT3L1nCGRKLvgHtTlFHrVvjVWi9KL7kerfoSC2qTImFd1l1wtCoxjlbdpcxSPr7+1pwxlllceqGWWAwAonqqpq2OeiOA4bvDiAQDnE4kIfyBABKuOSxOG8tl3oTNhiG99qDTYc+4itOoU7cpfXGhYFO+pcMaMxSoAeawG2pPZL9VgIh8AmJQ0oxEl+jqlNPinPTiO8zseAHBeMxqKJwLs43SUCKg4p0TpNL7ndgQVKqYXK0nMEw+4nvBU6GiuGQEgzFO5SxMOe2TfHWLora64VGb5of0KZgCOmmSuq+NHAznuLMQDAM57BI9BJr3vkfxZfptSd2tCsW/aQkgiO7EgIeS2Gbm39nh3L6XukaxnrbG6Xoyw73XHpIAKnm8y7mi3oq21U1ljlDxnMpnC/TQ0juMGCB4AcF6ZWnDTcACXsupYY7Wyeeu9ZY3VwWSYIVct3KFx9LgXgFDKPDxvjevdTEVfk0QVuqN7jHVOaGpoU9gaTSNEvKP3o+I4biDhAQDnFSpJd0Hm303lpKuZn059VTtqpmwufLVade+aNaU9zOULzACAtas+WNkjPG55AAA0Nni+OfB0lND7y8vLPV+QxHHcoMMDAE6xYxvprmHVadUNl92g5iu3OgQ1o9m39Dmdrvj25uY6s9nyidlsnkcpFQGAAMydiI7wGD+OtG84wmOZ5Y11ygMAUKTGxyf+opdD4jhuAOEBAKeYo/HQBQCYu/FqDecFdAx1OVPgCGcnHVz13XY1BS6lIO+bzXV7TKa6Gykoc9zOMMWJDIOGQ2bMrUr3ABxDKX2gN+PhOG5g4ZkAB7Dx428N19ic0wihhQCGUSCVUIiEUDsFqigl5VQkqzeWLvnJLx1S4VIQ6rHYER6Ddu0wv3TlcQhEQEPWBKSW/+CxzvbNFXC53FCpRIAgB6DL9WmJnaYjjR6fcYYwTzQGJZfMmO02h3cNEow2mUwT9Hr91l4Mi+O4AYIHAAOQsWBRHiTXA7A7rgbBiUVxcuy/6LEN+oQARKIw5hXXUEqWSER8ZVPZG3W+9ksJncXa+t+QNQGUBH5SqSF7IjMAsHbZcKCiBiMMmSe+RimJZLUpd8IgGMmN2WHzIcuvIFwPgAcAHHcW4EsAA8iM3FsTjXnFyyG5dwKkBAB7R9zPhhBCnxThqjLmFT9TUHCj1x93J48sziEAM49vQ/YEb5v1iTVWi654ds7+0m0HTvm1w25n1h+QAYCKPWa73csZAACguI5Syj8YcNxZgAcAA0RhwcKZDo2jFMCN8P3vLRTAY5GSuHuKYeFUbx5UqegkVrk9Ir7XSX+80TyEmdQPBypOvejO5WLfMEiFgfetIAns97TT6fSl2WRTff25Pg2I47gBZeD91DsLFRoWLiAS+RKAv7LVpAsEqwoNxb9U+gClAvMa3Y6kjN6PyguyqXBPy4SnUrOPJRJJ4RXEQUSQuS1Ro/HxVJ8kzfbtQY7jBhIeAAQ5Y17xjYSQpQD8PEdNVITgz8b8kucgk9XvKMq8NMbXfP++6khIZ97c19rSidaWn3fBy70MBZcP0+X9TG7MISG+/ZMRQHgAwHFnAR4ABLGivOIZAN6Aohe0jyh92GgofkFBReb6f2dipp8GpIyk0sgm72mwtJz4/yGh7Jeh4PZpurxfCW6ZGQAfAwAK5Dc0NAys3Mgcx3mNBwBBatKIBQkSwbsAAp+djeABY34x6ww4AQhz152Cy3r8rjs6mVnecFImvNBQ9h+j2t7llzH1JZXMmDUyQQ8Dcbjd0319mOO4gYHv9g1SKpXwd1DoldTtik9FY+ZYWGP1kEQVNF2tiGo6jITq7VDbFL7YKP5kNJTsWF++5IzzdTNyb01wwBHq6VFJVMOl6fu7ZOQy4bU0tp/4/7Hx7AMTmu52ZnkwCrGyM/3Fxfue3EigZByA//jcAMdxQY8HAEFoakHxNCphvlw9lyYMVRMuR/3QMzfoNwydiEMTLoO2Yj3SS7+E6LDJNScSQt+dNrakYM32JQ0nF9jCHZECY7ZZLiNdoDhDmUf70d3989G/xCR2ql+NzMs0GGm62Zf9JMn8nlkopcxNnxzHDXx8CSAIUQl/kqtjj4jFzjkP9fjyP9GOoIJ55HRsv+TX6IyX36RHAa3bSf98+tfVTsL8eC93Hj1Q3Gr2tL7D8fO6fmIye7YgtKPZL2PqSyEyY46X+T0zEYzz/WGO4wYCHgAEmcL8knMATGHVcYZEYvf5d8Ae2cOldz1whMeg/IK70Zo6Qkn166fk33T+yV9wUXcI6wEqcx49UOTOwTtsPwcACUnsl2F4m9kvY+orgtuJ0A7PqY0BIEnm9ywjwWKxsDdZcBw3oPEAIMgQSmXP5ldOvlp2A9zp3CoN9k4vQVec/LYCgUqnHA0kKjVzizyROY8eKHLn4NWanwOEIZnsP6/wFjNAPd9zEGzC2ywg1HPugti4SETF9G5fhiRJfXu2k+O4PsUDgCBSaFgUD2AOq06rfgSaMkb71L6k0mDvuYvgDGGvnQMYZzSUXHX8Fyo4mDsJ5Y6jBYrgYh/d04T8HADo0xIRwjgJIDptCO1s8tvYAi2iuZZZnjUs1Q+9iDwA4LhBjAcAQUQgrisgk/CneiwzPpBlj4jHAeO18hUJThwLdAHMAEBt8+7aWX9R29n9hob9vHIhCAIystipiqPrK/0yrr4QXXeQWZ6Vo+gACZtA03vfCMdxwYoHAEGFXMAq7YwfInsJjhItaaPQqpfbD0ALjYbiiQCQOtzWBMDjx23RaYPoZF+2EwgaK3sXfFzcqacTsmVeijGW/b0eU1+JrjvALM8a6ocZAAl9n9yB47g+wwOA4EEocA6rQn0Oc2+gVw5NuBxUYOfHzxuT/ReLxTLl/fffp6BgzjmHtft8y7DPQjsamOWJKacegxs1mn1/QIxl/4DYBxDWUY+QLs/HFgWBYFRBZu87EtD3yR04juszPAAIEkX5N2UBYO5Ua0rP91t/3TEpaMwYw6xzuKqu0OF0bzBb6iypQxKZ0UJk42G/jU0Jwe1CWLvMLvjkU09JjB43DALj1j+NtQ1RTX37+/BFQvUuZnlmtg4xsbL7PJTgAQDHDWI8AAgWkmRgFdsj4+AMZWez85bcjEJ7WxcqyqsBIKlgfA5zQ1hUHwcA4S21IJLbY3lEZBjiE6PP+NrQ4eyp8YSqHX4ZXyAlVLPHOHpCrr+64gEAxw1iPAAIEm5ChrPKOxP8vx+rLXkobFGJzDo7fzq6Lp41lL1+HtlY7bdxKREjswkuOycVpIfbAsdOYP4xI+HwDubxuv4W1l6PiOYjzDpj/BUAUOIx/TPHcQMfDwCCBZWYb1gl5/e9RggassYzq5RtP/qiHZrL3nwY1tHAXJf2t1hzBbPc04a/aeexlz1CuloRd6Tc53EFmrZiHbM8LjEaI/Mz/dSb1O2nhjiOC0I8AAgSAghzx3WgLttp1w5jllcdNMPtljAkS8teV6YUSYe2+Xl0PVPbuhBtYe+Czx/b8+9Ll5aI7Bz2MoDcS7a/CG4nkiq3MutMP28Mc5+DVwix+qchjuOCEQ8AggUhYaxit4qZjddnHYkZzNMADocTR6rrIAgEBePYwUJS5RZ/D69HidXbmdP0ao0KowqyPJZPP599z02sZZ9sop3+kLJvA1QO9jt5+ky/3uHDAwCOG8R4ABAkKCRmAiC3JjDLsZKols0tYK49utt+3GR27oCwtjpE9sEu+pR97E/o+WOGQqPx/Mc5feZYZjkoxZCdX/o6vIAQXA6klX/HrJMzYggysnX+61QCXwLguEGMBwDBghLPW9oBEClwG9O6YtkvjYb6o2v7E42jEBrGvoFPv/tHv42rJ3FHdiO81cKsM30m+yK76JgIzJjN3vsQX7sbUX28sZFFV7EG6u4OZp1Lrp7m1z4JoSa/NshxXFDhAUCwIJT5011jY//w7w1nGPvMeFP90Yx7oaEaTCli5yJIrN4u+4L2GaUYsvMrZpXwiFBMKhol29QlVxVBEM48JXByX9kb3w+KEwEhXa1IK/2GWSdZG4/JRXl+7VcipMavDXIcF1R4ABAkKAVzC73a1h6wvp0h7PwC1u6f0/xeeFkhuzFKkb3pg4Bk1Es5sAmRzex30rkXjGdP7x+jS0vEpKnsF2ZEiwnavWu9GmMgZG39CKLLwaxzydXTIIr+/XamLiH4syJxHOczHgAECQIw32xqa//NANhOCgCGDU/DyLxMZv3o+oNIObjJH0M7QWNtR/qOz5h1RFHAnCuLFLd5/aLZUKnY6ZDTd3yO8Na+T3N8XOKh7Yg/XMqso9UnYNacSX7vWxBc7IQDHMcNaDwACBKEoIpVHimT/KVXfbuZ2w8guU/9NH/ldefKtpm55SO/vTgJlZCz9m2obcxLCTF1xmgkp8Qx65xMl5qE82VenKLLgdw1SyG42VcPB0J4qwVDN74nW2/BbRfLBjI+qNPr9excyxzHDWgq+SqcQqRo9IIcyU1yKCHhAJyim5jbVa6y0tK32W8uABIhewhj1jy8xQTR5YBbxd6E5wu56WWN5tR/JmMnDsfo8bnYuW0fs81R37+K0ovuhyM8xmM9JbI2f4gYmdvv1BoVri1hXqbYo/k3zsKa73egq9PzhvfwVgty1r2LfdMWgJK+iZnVtg6M+PEt2b8bQ0EWJhmZWaR9RH4KQKMcxwURPgPQS4X5xfmFecWvGvOKzZJbqADIZ4TifULxkSTQjZGS0GrMK15nzCu+Z/z4Wz2+CUMSMvcAsHkqJ1QKWLpd0cW+ylcdcmacuODWi2QTzmisbTB8+4rvGQIpRfamFdDuWy9bde5VRUhKifW6i6iYcJTcOVe2XkL1TmRv+tDr9n0hOu0Y+f3rCG1n33YYEqLG7Q9cGZhBULo9MA1zHBcseADgo0kjFiQYDcVLCMVOAtwOeLo7nagAGAH8NcTuqDbmFT81I7P4jEP9q1YtdgGE+UM31sROf+srjZX9go6NPXOTYEa2DpfNny7bdlh7PfK/+jOiZXL3n05t68LIla8revnr0xIx74aZXrV/shmzxmOiUf7kQMr+9cje/EFATwao7F0Y9f0/ZDc7AsC1N10AXWpSQMZBCA8AOG6w4wGAD4oMN41WqYRtICgGwDhLdoYYAIsdkXTXlIKSng6r/8B6OLlyc0BePnJZ7xKSonv8+vwFs5Apc0kQcHQDn+HbVzB04wpoutmnGYjkRsr+DRjz6XOIq90j27YoCrjn4fmKdv6z3PbLKxVdoautWIfhPy6FIDM174vQjkbkf/VXRDVUydY1jM7GxZdP9fsYjqGEkNWBapzjuODg951Dg12R4abREpF+ANCLlGsknlDcOCRpdEVNw84Tb7khKaNdACnx9JTocqAzMRO2aD9+6qMUWVs/hiC5PFaZc8VUpOgTzvi6IAjIHzMUa37YDofD8/MAQEAR2VwD3d61iGg1QeXohiBJECQXNNZWRDVWQbt/A4ZteA+JVdtl176PW3jbHBROZ+cmUCI0TIPhhnSs/n47JIl9hDGsvR6JVdvRmTAEjgjlmw5ZEqp3YOTKNxBibZOtm5gciyefW4SwsMCkhwbIdp1O++cANc5xXJDgAYAXpo0tSZIkuhKA1g/NqUHIvCHJoztr6nduAIAp5+Qe6WjU3AbA40dRlaMbjTI3+HkjotUM3V72h72Ft89FSGjPmw+josMxNDcNa3/YAarg7D+hEsLb6hB/pBwpBzZCt3cNtPvWI7FqO6IaqxW/+AHg/Isn4bqbvN/450licixi4iKxbeNe2boqRzeSD22F2t6FrsQhkHzcnBneasaw9f9GWtl3ENzsIAoAQkI1eOq5RdD2EJD5DcWyF1984fvAdcBxXDDgAYAX0hLHvAXAn/OuBCCzhiSPqayp31G6e/dump4yJhOAx7NpYR0NaNPlwu6nT566vT8iuv6Qx/KklFhcdd15zDZSdPFIS0/BlvXlsp+e/cU4PR93/moeO5ufD4bmpMFud6CiXH7DJaEUUY3V0O5bD42tE46waDjD2EmVjj4nIdZcgYztnyN7y38RJrPZ7ziVSsSDj1+HUaOzFdX3FSH0Ny+++GJVQDvhOK7f+fen5yA2taB4GpUQqHVROwidvX7XstVGQ/EYEDA3YHUmZqD0wvsA0vu/vnEfP4PQDs/HvWdePBF33H+VorY2rC7DX579N1xOdl6B3po+cyzuemie3zPfney53yzbumXjngnePtcdnYyO5Cx0JKbDGRoNZ0gECJWgtnchpLMJUY3ViK6vlM3rfzqVSsT9T1yLyTLZC3uLACatNiWdEPbdFBzHDXw8AFDImFf8NYDZcvVs0UnoitNDdNoRVV/pzZR2PaXiyA3lbzYb8xauAQgzpV3l5Hmw5BqVtt2j+JpdGLHqLWadB564DsZzChS3WXnAhD89tRyN9T4e/WMghOCya6bj+kUXgvgh+GGiwkVXz37kfIA+GNiO5KnUIu5/7Fq/5/rvCQV5PlWX8nDAO+I4rt/xREAKGEcuygDc57PqSKIKBwt/gYbMcSc+mQtuJ3R7VyOt7DuIDo9H/I9LBnH/CcDNAiV/kgiYAUDm1o/QkZgue5WvJ0RyI2MbO7VuWHiI7BXAp8sepscfX74Lb7z8CTatLfNpbD1J0cXj9vuvQv7YoX5rk8EGuFavL1vylTF/4T5Q8jIA/2dgUiA6JgIPPnkDDAVZfdKfJOCdPumI47h+x/cAKDBEW3AzQJi7zQ4Yr0VD9oRTpuWpIKIjORtNGWMQa94HtZ2dEJAAY9NSxq5aX7b02yHJYy4CkOqxLpUQa96HxsyxkNTe7wZP3b0SidXso97TzhsD43Tln/6PCwsLwdQZBcgYqsXhSgva22QTIXpuKzwEl1w9Dfc/fh30aYk+t+Md8q1er1sKADX1O7ela8f8CIqLwdicGQg5I4fgty/cgowsf+w5VWRzmlb7TF91xnFc/+J5ABQhzKn/9uSsoy9/D2xRidh14X3oivf4Pj/REaH0TwAoEfArAMwddaGdTcj/5mWEdDXLtXuKuCO7kb79C5mBEMy5onf7HSdPzcNLr9+PK38xcxmAbwAoXlfWpyXiF8Wz8eo7v8b1N12IkJDenfP3CqGnfApeV7p0jUaFEaDkNcj8nfiDWqPCNTeej6dfuh3xCb1Lo+wNAvpCn3XGcVy/43sAFDDmFTcC8Hjuav/U65kBwHEaazsKvnwJGpmz3hKlRRvLl60zGoqXHEs2xOQIj8G+aTeiPVl+ejzGsh8jVr0J0clO/ztu0nA89ozHlAReoi/pdboHp40tSbq25KL/tja2F9VU16O9rQvWrm5oQtSIjAxDij4ew3KHYERehqIEQwHSDirp9Hq9tafCQkPxhYTQ5wESkAX5cZOGo+TOuQHL8MdwSKdNySWEyJ9F5DhuUOABgIxJIxYkqFQC81a0zdf8Hq6QCEXtxdXuwcgfXpOr9uH6sqVXF+VfFydRzQ4A6bINE4L67Ak4PGZOj5fviA4bUsu/Q2r5StlsgqIo4Pl/3If0TA/Zjb1F8YZer70FAMxm8yQK4t+7gv2IAC/rdNp72bUWC0bDoStS9Alv1pmbe/0RnRCC8YUjMe/6mRiaKztLFBAE9G6dTvd3X541jlyUAcE1gYBMkAjJJqBxAOIBiBRoBdAMSk0ChK2g0la9wbp3xYoV/JQBx/UzHgDImF5wY5ZLEis9lTvDorDl6t951ebw1UuRUL2TVcUtul1D1ux5xzzFsHCqQMhKAIrmwCkR0K4dho7ETDjCoiG6bIhorkVc7W7ZT/3HXXLVNCy8fY6iukoQ4D86nfYXx39tsljWgvo1n4K/uEWBDE9JSVF0ccGRIw25hyqry9evLFWt+7HU65MP2TmpmHruaBTNGI2EpL6b6u/BwZbmplEGg0HxkZVphpJRbkKvAfALAMO97K8ZwOcCxQpVUuaXR+/B4Diur/EAQEZhfnE+oSj1VN4Vn4adc7w7KRbeWocxnz0HsDLnEZSs37V0KQAY80tKQCn7vJ6fpGem4Nm/393r3PonI8B7Op322uO/NpvNcygI+whCf6D4l16vvd6bR8xmy8sUuBsAGutbcaCiBgf31aKlqQOdHV3o7LBBFAkiIsMRGR0GrS4BQ4enYtjwIYiIDAvM78NblFyh16d8rKRqc0Go2AAAIABJREFUkeGmIgnSYhD4fvvSyV0Dhwihz2oSst7igQDH9S1+DFAGgRTJ2itJfTiPbo1NQatuOGJNnlPOavUJiyzfWvYAKNNqtUuMeQv1APm91515ISo6HL966ka/vvwBgIKe8slSp9N9bjJZvgXBrN60a+3qhsPhht3mgM1qh8PhQnf3qbMcokpEWNjRE3xh4RpERIYjIjKspyRCdlEkT3o7Bkql34KI1wM0LjE5FonJsZgyrfd3E/ShH5W8/KcUlIwTJfpXCZJfZ24IkAVK/ulorHpkal7xQ+vKlv7Xn+1zHOcZDwDkEHUHqOflSqXT6qerz57EDAC6OrqLXG66URCIy2SxbKLAfxZevnixtdP2FAIwcxMSqsGjvy8O1FG7M84BSpLwsCBKW9HDUVRrlw115iZYTC2or2tGS2M72tu60NraibbmDrS1dqK9ratXaYfDwkMQGRWG2PgopOji4XZJ2zas2TXNmL8wFUTau7707Xol7ej1+kazue6XFFjm82D6j1Vyi7eyKszILA51ROLXkOijNLC5ELIp8KExb+FnbkF9x6bSN44EsC+O48CXAGRNHnZ9tBiq9rhtXxJV2HTtc6DEuxOVKrsVE1f8hrkh7x/v/hqJybEnf6nt/eXfffP+29/NARDuVYcMMbGR+PXTC5EzYoi/mjwFAVms06X89vQv//jDpldbWjpvO3yoDrWH62ExN8FiakJHW48b8PvaYQJsoqCbiEA2SxFdWzdsWNHtqbLJbP4AIMpyJgcLgl/qtdq/eCouGr0gV3KLHwN0ZF8OC0AzQK9dX7bsmz7ul+POKjwAUMCYV9wKwOMure2XP4ruqGSv2x39+QuIaK71WP7bF26FoYeLX6orzdVP3P+Pzm6r3eB1p6cZkZeJe389H8kp/rlcqCdOh3T79XMf3SpJZDJARoPQAgAGAPI35wQPKwH5GhSfON3uzzbvXd50cmFdXV2KW6KlALz/h9A/Vum0KTMJIT1GoIWGkgsIof8GELh/GGxuEDy+ftfS5/qpf44b9HgAoMDUvOKdFPCYEu/QxCthHjHN63ZzVy9nZuO788Grcd6FPecXkCSp68+/f+/tDWtLLwWF14fmY+MicfX1MzH7kil+v1GvpbkD+/ceRsXuw9i/+zD2llXZJEpD/dpJ/3IDZDVAl2g6sWJV1VIbANTW1k0lAv0egPepGftWtUAwSavV9rjMUZhXfBMBXkMQZAqlwD82lC29E32QgInjzjZ8D4AClGATqOcAIK52t08BgD0ynlne2uz5xjhBECIefPK626wdV/164VVP1lKJlIBgOmSOC+aOTMc5s8bhnFnjEBrqnyXdzo5ulO04gF3bD6L0p4Mw155xve1gevkDgAjQcwGc64jEX4x5xcsFUXolNTVlndlsvp2CLOnvATJ0g0pXaXX6Hl/+x06cvA4vs4SGJCchMmcYIodmQ5MQDzEiAkQU4e7qgrO1DV1V1eg8cADW6hr26ZfTEOB2Y95Cur5s2V3gQQDH+dVZMQMwY8ZilaPpkBEUY0CJHgRRlJJGItBDEnVv2lj29h7W88a8khsA+ranckoEbL/8MdgiPSYL7FH6ji+Qtutbj+U33HwRLp9/jlwzFJQs1OtT3h4//taY++6a+1a31X5la3MHrJ12hEeFIiY2Anp9InINGYiOUZawiMXlcmP3zkrs3H4Au346gKqDpl5tyBskJBD6X4kIf/zo62fnU9BgvFHPQQmuTtVqP+2p8Ni/82VQ+PIXVCrET52CxKmFiBh65lJVT+z1DWhavwENK1fD1an8jghK6d82lC+7R/EDHMfJGtQBgHHkogyI0gMAXQAg1nNNegBUWKZxqv+xat9rZ2T9KzQsiifEbQHj07V55Dk4NOFyr8aX8dNnSC3/3mN58e1zMfcq5qWAx9lBpdl6vX61xWLJlyh2ws9/t12d3fhpcwW2rN+NHVv3wdole7vh2eyLx/9QbBo7ccTN/T2QkzhByTWejvwV5pUYCegPULh8ET95AvRXXIaQJN9Ojbi7u2H54mvUffsDqNOp8Cl63/qyZX/1qUOO484wWAMAYjQsfAiEPAXvdst3UII/tEtdL5WXrzjl7Loxr/hzABd7elASVdgx92HYopXncM9dsxyJVZ73ANx8z+W48NIpSpurd7ucI4cMGdJsNlu+o+h9opamhjZsXFOGrRt3Y3fpIbjd7BTC/UES1ZBENagowi1qQAURbtXRdxgBhej4eeO+6LJBbbd6NQXdC+68MUN33/fI/Py4xOi+6I/FDkqu1etTPuqpcOrwm/RUI21RspdEFRWJjIU3IHbsaL8MzGYy49Drb8F6WNGpPzch0iXrdi3/0i+dc9xZbtAFABcNuyekPbTz3xT0il40s00QpevW7ly+7/gXpuYvuIhSgXmFXqtuOHbPvO2UK4FZxnz6LMJb6zyW/+bZmzB6fK7SMZ/IuW8y1c0GoV8rf/BnHe1WbFhdirU/7MTe8qp+m9p3hkbAHh4Pe2Qc7BFxsEfEwxkaBVdI2LH/jYAzNAKS6H3SIpW9Cyq7FWq7FRprK0I7GxHa0YTQjkaEtdfLXtbkVV8qofumuy5Tz5ozSUV8SBrlB2aB4EqtVruxp8IZMxar7E1VawnFZLmGwtOHYNh9d0Ed69+0xdTpRNWS5WjetFVJ9WbiFPLXVbxl8usgOO4sNKgCgHnz5om1eyP/C0ov9UNzLYRKV60rX77y6C8XC0ZD1R4QMN/IR/Jn4/CYi2QbD+1swriPn2F+Gn3j/ScQG+fVFfQUVJqh1+tXm8yWlQBmKHnIZnNgy/rdWLdyB3Zs3Q+Xq2/uaaGCCt3RieiO0cIak4Lu4/+JSoSkCmTOGTaNtR2RTdWIbKxGdP0hRDVUyV6gJGf4qAzHfY/O1yRr2Rs//YkCGyWX6uohQxI9njU1GkqeAKFPy7UVbRiF7DtvgRgaoP2clKJ2xX9h+fo7JbW/WF+2dC74pkCO65VBFQAY84qfAfCYH5vsliidtbF82ToAMBqKbwEB+yo/QlA58SpYhrMzpmZv/gDainUey+MSovH6ez79VjbpddopJpNpAoiwEYyjXAf31eK7zzdj7aod6Lb6ltFQKUlUoSs+FV3xQ9CZkI7OhCHojkn2OoFSf1DbuhBXuxvxR8oQW7sbgtu3lPUhIWrHPY/MV0+Zlhfo7zsbBX1Or9U+QwjxuMBuNBSPAcEmyGT4ixyei9z77wZR+zdFdE+OvP8h6hQEAYSSW9aVL3kj4APiuEFs0AQAUwpKxgkS3Qz/n11uE6hwztryt3bOmzdPrN0TsRnAOLmHTKPOxeExF/U4RR1rrsDI719jfqo85/xxuOeRa3waMBXI1NSUlPUmk+X/QHDfyWXdVjvWrNyB7z7bhMoDgZtFdYZFoS1lGNqTh6IzKR1dsXpQod+Plfea2t6J5AOboK1Yj5CuZp/aOP/iSY233nd5oiAEJPj5XHKLD6SlJe1jV1ssGPOqNgMYz6oVNiQNwx95AGJYH11cRCkOvbEUzRs3y9Vsh+DOUZqymeO4Mw2aAMBoKF4NAu8P4ytCj2gcIWNX7Xut8dhu6bVQ8Gdni05CreE8NGaMgVsdCsHtRMq+9Ujf8QVEF/vm1cf/UIKxE729ZfU48oFelzKvvr4+0uWmWwE6/HBVHb74aB3WrtwBW7fiW18Vc4RFo1079OhLP2UYuqMHSkI8H1GK+Nrd0O5dg1hzhdePJ2vjt7z42r0hYWGhHvNLeEECxaeA9LRer9+m5IGphpKFlNClrDpieBhGPvmYzzv9fUWdTuz94/NHcwaw6h1NEnRHHw2L4wadQREAHHspe55PP8YeEY/m9Hw4Q8IR3lqHONNuiA5lx9kIxb/WlS+9HgCm5i18noL8ypsxukIiIDq6Fa0l69MS8X9vPtibDH1ulSikJScnWx6458VbbB32V3du2y9SP+5+p0RAZ2I6WlINaEkdia74VL+1PdBE1x1Exk+fIqqx2ttHNz/13C0P5Y0bNpeAXgMgw4tnKYBtBOQ9SXK9n5qayn5bnqSwcF4Y6YioAMC8/GHonbcidvxYL4bkP7a6euz93R/htnn+/iQE7pjIyLFfbPjbrj4cGscNGoMkACh+gwCLWHXqcgpxaOIVp0zJiw4bUsu/Q2r5SkUvZgpyyYayJZ8dTSxU9TUozuv96M/0y0evRdF5vh+zcrncePPlT1779ovNkwCM8de43OpQtKSOREvqKLTqR8IZ2vukQoMGpUio2YX07Z8jrN2rWektGhVmr9qxtLW2tnYIIaqJAJ0AQvQENJ4SxIPCCYIWSGiGgIOUkK0um21rRkZGiy9DNRoWPgxCmDn246dMQtYtJb407zcNP/yIw+++x6wzdmKu9fFnFt2v0yUvYe134DjuTIMgAFgsGPOq6gF4TMPXps3B7vNv97jhLLruIEb8uAQqu1xmMnqkU5BGlJa+3TVtbEmS20lXAxjh+9jPlD92GJ58bhF8OTLmcrrx3Reb8dF7K9HU2O6X8bhVGrSkGdCYORat+hE+Hbs7mxDJhfQdX0G/W1lQecx6GtV1Puu2QX+5aNg9IW1hHZWsM/9ieDgMzyyGOrp/72qiEkXFsy+g62ClxzqEEPz5jfuRlp58iIA+rNPpPgjEWKYOvymKquhEQJpACckiQBwoQkHQDqCZAqUSpK2byrLLgMXBlzCD43ow4AOAQsOiYYS497PqlM55AJ3x7KtuI5qPwPDtK1A52D+DKchDG8qWvAAAxoIbk4kkfsu6KMgbsXGReP7VexGX4F3iGJfLjbUrd2DF29+jzuzbxrSTSaIKbbpcNKaPQXPGaLj78UjeQBXVWI2cde8itP2MexF6RugH63dlzQ/0y+NYrv+3WHXSr5+PpPNmBHIYilmrDmPP759lHpc9/+JJuP3+KwEAFPiMul13pKWlKcosxDJv3jzRtCf8KkqE60HpBVCWJbGWEKyAm76xbvey8t6OgeMCaeAHAPnF8wjF+57KrbE67LhEWVr2+JoyjPjxLeYPGwJYWmlXxvFMgYWGRfECcf2Hgpzv7dhPFhkVhsXP34LMocov9nO7Jfz4zTZ88O4PqK/zaTb4FF3xaajLKURD1ji41YPt/p6+J7ocGLr+PeaNjyejBE9u2LVU9kx+LxBj3sJSgOR5qqBJiEfeM78FUQfPPWGVf/8nWn7a4bFcrVHhH+/+GjGxx3NmkBZQcp1en/yVj10SY17xDQB+AyDHxzYkCnysouQ3a8qX7PaxDY4LqOA/hC2DUMJcLO9IylLcVvOQPFhyCpl1KKCNJeEnkv5vKH+zeV3ZstkU+CUAnw7T69IS8fRLt3v18t+4ZhfuW/QiXnnpw169/N3qUFhyjdg550HsnPMgLLlG/vL3E7dKg33TboR55HRF9QnFU4X5JbK3P/lqakHxZNbLHwB0cy4Kqpc/AOgunwvC2BDrdLiw5vuTAwQaByJ9Vms2P+JtX0WjF+Qa84pXAlgO31/+ACAQ4Eo3odunGop/d9Gwe4L9imjuLDTwAwBQ5hkla5zOq/YOj7kYLg37+gCJCsWnfYluKFv6F5XgHkmBNwEo2oyk1qhw2fxz8Pyr92JIZoqi8VUfNOOpX72GF373Liy1TYqe6UlXfBoOGK/Flnm/Q+XkeeiKT/O5LY6BEByacAWqx12iJEW0SChdPsNwp1fpH5WS3PR6VrkqKgIJRtmMwH0uLDUVUaNGMuus/v6MWRaRgDxrslj+SSlVNNNZmF88z+0WfgLgzyBMQwl+0xbWucE4cpE3pzw4LuCCK9T3AQXVsFYyXF5+mnWFRMA8YhqGlHpOpU8IPW/ysOujNx1495SddqtL3z4E4ObpeSW/dUG6AiBzAEwGcCJ5ukajxoj8TIwel4MZs8edNG3J1t7WhX+/9Q2+/2oLJMnHZWJC0JI6EqaRM9Cm7c2HG85btYbzQImIzG09XsZ3snQH6X4GODWBU2/NmLFY5WismseqkzitqE+y/fki+dzpaC/zPJNeub8WNVV1ZwbSFLeazXUipfRWQojHbxxjXvFiUDyJQC2LUjqWiO6NRfkL567dtUxRrgaOC7QBHwCAcUUvAMUX85ysLseItLLvQCSPOfFDrr9jzssfX/fCZ263e8PpG45Wly2pAfDXY//B7t37FzkcrjciIsMQEeFlQOJy4+v/bcT7y79Fl49X8EqiCk0ZY1BrmAlrrNanNrjeM406B6Ed9dDuWy9Tk95lLFj0+vrSN8v81be9oXomIfA8zUQIEmcEKI+WH8SMzoc6Pg7OZs/LXet/3IX5Pc2kESwyWertAO7q6Tlj/sKnQfGEv8bqCQW0lJLvi0aVXLB295JNge6P4+QM+CUAgDDT2qnsVq9bdIRHoz05m1mnu9O2gIK8L4iqGpPFst1ksvyyvr6+x4/zYWGJHyanxDm9ffkf3FeLR+58GUte/dSnl79bpcGRvJnYduVi7J96PX/5B4FDE69UMvsiRkaG/N2/PUsXsEojh2UjJMHjSdr+RwTET2RmLcaObZ4zMhLQO00WyxmzKkZDyROgJOAv/5PESAL9akrejew1DY7rAwM+ACCEMtOvhXY2+tRuq559vP9w1UnX+FKMAcGfXW6pqtZsvptSesqfa1ZWXCtAFF1zBhw9z/+vJV/jsXv/jupDFi9HDkiiGrWG8/DTlb/B4bFzecKeIEIFEfumL4ArhL3PpLPdOv3zj3/8X01No19SLBKBzGaVx42Tvd6i38VNYI/xYEUtOjsYx3gpXjSbzSeu6pyaV3wlCP2d0v6JKCIm34DUqy5H1q2LMOye25F50wKkzDoPYTqv9hrFChD+N2nEgiCOuLizwYBfAqBUqGTdChrR7PEmVCa5GYDGhtaevpxAQF42Wyzz6+rqrk5JSTkRJRBIf6cgsvcE799bg1de/AA1JwcYCkmiGnW5RhzJmwlnaP8mceE8c4ZEonrsHAzduIJZ74dvtlwydvLw82rN5qf1Wu3zrDVslsLRC1LhhoFVJ2a875kn+0pEViY0sbFwtPb4vQdJklC6/QCM0/M9NSFSkHdqahoLrrnwkTAK1zIla4RErULKeTOQfMEsqGM85+jo3H8AtR9+gs79B+R/MyDDVCqyHAC/1pjrNwN+BgDEfZBVHNVQpTjf/8lsUUnM8sb6nn8IHRtUkVuim4/U1Z34qarVar8AiMc5SqfDhXfe+BJP/PJV71/+hKAuZwp+uvwJHJpwOX/5DwB1wwrRkcjeFL553W60t3VFEJBnzRbLqrq6OnZU6okkMHe1hyQnBff0/3GEIGok+4KsPaWeswYeE0+IfRkh0nKAyO7ADU9Lw6gnH0PqNVcxX/4AEJkzDMN//SDSF1wHQa0oedbFxvyFtyipyHGBMOADgDapextAOz2VE8mNOPMer9t1hkZAEj1PkHRb7bCy1+XTBYmuNZnqiwCAEEJB8VJPFasPmvHQnX/Fx//5EW63dx/y2lOGYufFD+DglPlwhHuXQZDrR4SgasIVzCput4R1q0qPPzDNLdHttRbLL7zuihLm3HnUiFxvm+w3UcPZ+yeUXHH9+cfrZwKUnfADQHR+HoY//hBC9d4dJU46ZxpyH74fqkgFS28ULxaOXnD23qTF9asBHwCUl69wgAg/sOpo98peFOgTSZKduYsEkT4+cqQhFwB0uuQ3AGw5ucKqb7fhsftewZFq7641t0fEYr/xOpTNuouf4R+gOpIy0JHEngVYt3Lnyb+MJhT/Npks/0cpFRV3RCnzQqjI3IFzJDRyODtYqTpoZh6T7WizYsXbzB8XAIDovFEYds/tEDS+pcGOyM5E7q9+CTEsTKYmiYQkPONTJxzXSwM+AAAAUDBTfkbXH0Rk02GvmiRUApE5b6/wut4EUXR/bjKZEgkhEpXI/QBoV5cNLz79Dv72pxWw25VfYiaJahweMwfbL3sMDUMn+nTMkQselpypzPKK3dVoqDttuYngPpOl7mOLxaJsdycB807f8HT2PRnBJCQpkflStdscMDMSZP3n7W9h7WLf9xGWqsfQO28FEZXHWD22MyQN2XfczMxiCACE4sbCUQv6595l7qw2KAIA0e38GADzOGDW5v8yc/yfLqSjiXmbm0otIlzhsT4KDCNE+BsApKamrCvfdWjpo3f/DRtWe3fMuz05GzvmPoQj+efzW/kGiabMMcxTGpRSlO08c5sLAeZKFCurq6vjWO1PNBRrAcR7KhdUKoSkJHsx4n5GiOyU/JHqnvfQtLZ04vsvt/RYdpyg1iD7tkUQQvyTuTfaMAraORfKVRMEQXjULx1ynBcGRQCwZs87ZgD/YdWJaqyGrmKt4jYjm2uY5YnJsYrbAgAKzDebzRdNzV9w0VMP/PMK0xHlxxMlUY3qcXNRNvtu2KLZmxO5gUUS1WjVsY+c7iv3OHs1Ua3RfH/kyBGPO/jUAPPjfUhKMgTVwDoMFJ7KXjJv8LBB94uP18HpcDGf1V16MUJTld/JoYR27sUISWZ/31LgykLDomF+7ZjjZAyKAAAAJIH8n1ydzG2fIKZOyREdIPEQ+wa3jEzvNgYBwH/e/v5dSoXPACiOHtq0Odhx6SOoNczk0/2DVHsK++d+xe4qRikZK4qqT2tqajzMi9N0VtuaJOZVGkFJk8Q+sdBU33bG11wuN779nJ18LyQlBcmzZ/ZqbD0RVCqkXnmZXDUxRRf75Ok5RDgukAbNP7aNpUt+AvAtqw6R3Bi+agmi6w8x24poPoL4WvZV3iPyld/rIUkSXv/rx3h/+XdxUPhnLolqHJwyD+Xn3wFb5AA4osX5rC1lKLP8yOF6OBye94lQoFBUaZb39PIgEJgBgDrWu5msYKCOiWGWN/WQo2PH5gp0tLGzguovvThgsyFxE8cjMof99+yw22+srbXUmEyWv1gsFo/JDDjOXwZNAAAARBDugcyVvCqHFaO+ewUp+9f3uCdAZe9Czrp3ZfcLjJ3IPo98nN3uxJ9++w6+/nSjovoA0B2djNKLH0BdjpF/6j8L2KKT4AzznLtBkmiPL7VT0astlvrHe/g6c4FfEzvwjo6q49hBS2vLmaeCe7gt8NQ24+MQP3lCr8YlR24vQGtLJ3b+tE8Pgnslip0mi+UjHghwgTSwFv9krCt9q8KYV/xHAItZ9QS3C0M3rkDK/o2w5E5FR1Im3OowRNcfRPqOLxDawV6fHzY8DWnp8hunurpseOaxJdi3m5mt+BRNGWNwoPAXcKv59eFnE1tUItTdHR7LG+raoEuVW0emT5nN5jU6nW7Via8REs5KNCdGDLw00SqZMdtsp+4Hdrnc2LFtP/OZhCmTABLYz0MxeaOgjo2Bs/XMJYrjtm3cc/zDBQHF5RIwx2SyPG+3dz+dlZXlVUazKQUl44ibTieEGgCSAUADAjcozAD2A3QDjbKu2bBhBftYBDdoDaoAAABibFHPtoV1XgZKZY/VRDbVYNiG97zuY86VRbJ1rF3d+P2jb2H/HvZmwuMoEXB47MWoHXUe/9R/FrKHx4KVv7GpwfNL4yQiBVnW0NCQl5SUdCyakMJZN9z6es69Pwka9gmY05dLKnYflkvahfgpk3o9LllEQPzkiaj72vO1ID0EKmoQPBYSFnax2Wy+QqfTVbG6mJx3c4pA3XcSQksg0SFH/+pP+vs/JRYkIB0R7YV5xStUlLy0pnyJ5/uWuUFpUC0BAMCXB162U8F9CUCPyNf2Xka2DlNnFDDrtLd14ckHX1f88neEx6Dsgnv4Rr+zmCOMva7d1an4Q1q60+n+/fFfEEqYtw4J6oF3nFQuaHHYTg0ASmU+/YdnpiPMzzv/PYk3TmaWW2qbUG9pPrOAYgwF2Ww2m3uMVAoKbowozFv4BxGuakLok5A5/XGSaAIschNaasxb+FahYZHHI6Pc4DPoAgAA2LBzea1AxbkAPM+p+kAUBdz+yyshCJ7/2Do7uvHbh15H1UH5lKQA0JGUiZ1zf4WOpEw/jZIbiCQV+0XsVYpogruPHKkfAwBUoMy3JWGkuw5WRGajntN56lG//RXsQDymoO+W2cPT0qCR2cNwYK/Hzy5JFOTbI3V1p6QxLjLcVBQpibsJyKMAfF07FAFSQoi7tCiveIaPbXADzKAMAABgbflbO0ExE4DZX23eeOvFyBnpObC225149slliq/wbUovQPmsO+EMkb2ThDvLSd7dESEIonR0FoAS5qZY6mafiw9G1MUes/q0JYIqmfsBIrIzezskr4RnZzHLKw8wbzCNFiT6lcViyQMAY37xAxJxrwTAPO3hhVQJ+LrQUHKtn9rjgtigDQAAYH350i1UlCYC+Km3bc274XzMZaz9u5xuPPfkMuwtq1LUnmnUuaiYXswz+nFHyaz8uGXSUvdgjsVimQJQ5toBdTATaAYlt4MZ0yAk9OfvqZbGdrS3dTHrR2Rm+mNYikVmsfurrpT9ABHtluinswrv+BsoXgSIv6dxNITQd4yGYq8vnuIGlkEdAABHlwPsIZppFPSPkEkX3JOQEDXufugazF94vsc6lFL89dn3UPqTsiRDh0dfjKrxl/L1fu4E0cl+qYWFeT+zK1HyICAwD79LTuX3UAQL6mTPAGg0P78P6+p6WE8/SUhSIlRRfTsDJzfj0OMegNMs/+cXmV0d3Xf5aUg9EUCwtMhwk/yOZ27AGvQBAABs2/aadUPZsscEUcoH6BsA2BlBcHS9f9p5Y/B/bz6IGbOZt6niP8u+xfrVu+QHQgiqJlyGIwWzlA6dO0torO3M8uhYX47r0csjo9m30bk62Z+Og5G70+Pt3wCA0NCftz30lBXwlLoyaYUDIVTP7rPRQyrj4z5ZsRqffrjGn0PyJEQi7n8X5V/HvG+CG7gG3g6gXli7c/k+ALcU5V/3MIX6YgpyjkCEgqSU2EkOp4tEx0RAn5qAUQVDMck4CglJ7J3ZALD2h5348F8r5TsnBJUTr4RlOA+ouTOpu9kBQFQ0czO/J6rq+FliAAAgAElEQVSxk4br13znOQmOo1UuwVDwcbSwxxyb8HNyo+Zm9p+rJk7+e9zfVJHhIGo1qIfZF7vdia7ObkREnhm87dp+AO++8aXyvqIiET9pIsKzMqCJjwd12GE9YkLLlq2wVis5pUTSJKp5GcANijvlBoyzKgA4bu2uf7UAePfYf2AyW1YBOMfbdg5UHMErL34AquCWweqxc/jLn/MoxNrCLI/xaQYAKBiTnccKAJwtivILBBVHMzsASDwpcLd1s5dW1NH9kAmREKijo+Bo8jzVb+t2nBEAtLV24i9/fA+SJP/zRgwLg/6KS5A0Y/oZ1xpH5+dBe9FsNK3bgJr3VsBtlT1iel1hXskrG8qWrJftmBtQzoolAFkEH3n7SFeXDS/9/l/MHO3HHSmYdfSMP8f1QOXoRkiX55caIQRavW+X9qRn6Zk5q+2Nym+lDBb2piZmeULizwGA3cb+/uyvREhy/drtZ457yauf9pjm+HQRWRkw/P4pJM8894yX/8kSphZi1OInoI6XneEnBPR52Y65AYcHAABcorgCgFe7of750oeKNuvU5RhxePTFvg6NOwuEt5iYd08kJscgLNy3492JyTHMnaZ2S53sprpgY6tlHpNDQvLPAcDpOQFOR1SeX5CBJKjZk68O+6n7lXdu24e1P+yUbTc6Pw85D90PdayypQ1NQjxyH7xPyUZII98QOPjwAABAelKSCRQfKK3/zWcbFW36a9PlonLyVb0aGzf4RTSzX2hp6Sk+tx0TG4mw8FCPc7xUkmCzKMtbEQyoRNFdy07tkZ6hPfH/VTIveC/zK/iN5HIzy1UnBQiSRPH261/JthmenobsO26GGOJdsBiqTUH6DfLH/iXBfZ9XDXNBjwcAxwgC/qqknrm2AUtf/Vy2XndMCiqmF4MG+IIRbuCLqWMfH03P8j0AAIDMoTrm28Z6WFnK6mBgr6uDZPe8rh8WHoIU/c/XZ4eEsKfa+ysPgiSzdHjyuDeuLZPNLKqKisLQu+/w+uV/XNyEcYg2jGJXouSSGWOKB9790ZxH/O10jFar3UiA71l1KKX4x58/kl33d2tCsWfGIrg07CNYHEckN2Lq2LnqR+WxM8fJGT4qnbmDsKOC3X8w6djHHmtmtg6C8POqR0goOwBwdcivqQeCq4Odpfzko4yfrlgt217mooXQJPQujX/qVZfLVQlxuCFbiRs4eABwCnovGHsBvv9yC8p3Vsq2Ujnpatii2Ve3chwARDVWQ3R4vqlOEASMLMjsVR/Zw1KZ+wA69+7rVft9qbOCPdasnFPP2MfGs9e2Ha3s0xeB4LZambMYKrWI4/kb9u2uxv698ncZxOQbej2u8IwhCE+XuUOI4oJed8QFDR4AnESn0+0GaI9LAS1N7Vj+mvz5W0uuEQ1Z4/0+Nm5wijvCvoE1a5gO4RG9m0kaWZAFnHYR7MnsTU2w1zf0qo++QCWKDplgxTD61NmSxGT2Dnebua7X4/KWzczec5GYHAtyLEvoyq/ZWcyJICDtav99KE+YZmSWR0VHXGmyWN4xm+uerK2rm1VTU8OnOQcwHgCcxm6zPQFg6+lf/9dbX8PaxT4va43VomoCnyHjFKIUiVXsH/B5Y4f1upu4+ChEx0Qwr8du3eY5V0Cw6Dp4EM42z4l9RFFA3phT/7ySUthL1naLBe5uxVct+0XXoSpmeVLy0TG7XG5sXMvebBxfOAmhfrzKOG48O+tpR3uXprGu9XoK+lsi0W9EldpsMlleN5lMI/02CK7P8ADgNFlZWTZQ6SoAJw5IV1ea8eN3MvcJEYKDU+bzy304xaLrKxHSxZ6CnjI1zy99ZQ3TM3caNm/d5pd+AqllC/t7MGdEOiIiQk/5WlJy7BlfOxmVKKxVh/0yPqW6KquY5RlZOgDAnl1V6GhnZy1PnDbVX8MCAKhjomX3Epx222kMCG4GEXaZzZY3q6uredrgAYQHAD3Q6/WHQaUrAXQAwDtvfCWbfcs04hx0JGX2wei4wSLpEPulm5gci2Ej0vzS14TJI5i756zVNbDV1fulr0CgbjdatrEDgNETc874GiEEGdk65nNyn8j9Ta6/zGFHx7tzG3u5IyQlBZHDhvprWCeEZ7JvFjYd6XG5SKTATWpNaKnZbPY6qyrXP3gA4IFer18jEMzesXVf5/YtFcy6tsgEHB7Lk/1wyqkc3UiUCQCmFOWdWAvurVmXFlYD8JxwgFI0rpLfbd5fWn/aAWcrO21x0YyCHr+encO+fKdj916fx+UtZ3ML7A3s7ItDc44GfXIbjhMKJwXkRtHwIeygs7WZdYKBplGQb2otFn6V8ADAAwAGrVa78cXfvSu7Rbp63CV86p/zSvLBTRBd7DPoRg8vNF+oRVGklL7PqtO4dj3cjN3p/al+JTs4yR2ZDl1qzydv8sex91F0VFTA2dw3pwFatm5nZn2Mi49CWkYyXC43qirZCY+iRuT6e3gAAFUE+96JtlbZo5MaQvFurcUy32+D4gKCBwAMRkPxxO5uO3NXTEdSJprS/feDmhv8CJWg3buWWScjW4fckeypWG9QSjuoKLzDquO2dqNpbfDd92KtOoxOmfP/02aO9VhmGJ0NldpzRkAqUTRt3Ozz+LzRtGkTs3z0+FwQQlB7uB5Oh+c0xoJKJTtV7yshxPOeCQBwyNyvcLwZQrHMZKrn6YODGA8AWAT6MLOcEFSNvzwg03Dc4BV/uBShnewLbS64ZLKfeyUNG0uX/ASAuZBu+eJrSM7+yY7nSe3H/8/eeYdHVaV//HvulEx6z5RUQhJKCE1ECEVEEcVVARUXRYpi27XvWn6WFcuuFXtXIKCIC7rYK0pPKIaWhJpAQpKZTHpPpt3z+wNQSubcmcnMJJk5n+fheUzOe895Eyf3vvec9/2+3zDfmgNUSkyYPNzuuEqlxJBh7LPyujz2g9kdtB0rk0w4HDn6RO+mygr2MUFgUiIEhWcaGclUbDVBq9Vh+eQAEPFTnhjYe+EBgB2yh8zrD0pmsGzqE7PQEpvsLZc4vgClSNz3E9MkKFiFCZPtv9G6SO2J5cnLLCNLYxNqft3o7rVdpvVICZoLCpk2ky8bhZBQdjn6+MnDmOOdegOaC9maDN2l6gfp/+/njT1RTVdjZB9JuLP072yoyH7AE8GpF55ERUCAQzLrHO/DAwB7EOE2AMxOIpWZk73kDMdXiCnbg6BGthDMhZeMcLn7n31sNQAQEJu8BkAZy9LwzfcwN9hvT+wtqCiifNV/mTaCIOCKGdKlcGPGZ0nKAuu/Yu80dIf24xVo3LWHaTNmYhYCAk7kEtXVsBMeleFhbvPtbCzN9rUWACAwyMmdB4o5/Cigd8IDgC5ZJICKN7AsmuP6oyWGv/1zHIdQUfLtXy6X4cprJ7h7aapQKI4AwIYNi6wAfYVlbOvsRPkqZr6gV6j+5Te0l7FlcMdMHALNac1/7KEKVGLSFLbITdvRUtTleuAogFKUf7ZGMri47Kqxf/x3R5t9eWjgRL2+p7A2s/sUuKZMKb7gmjccT8IDgC4YN6T0YoAwa2H0mRd5yx2OjxBXvA2BTWzp2QmThyNO072mLl1QHhsb+8ddvYm2vwdQpjBQY/5u1OVuc7cfDtNRqYf+y2+YNnK5DLPnXerwnFdeMwGCwL7lVaz5QrLc0FlqNm+R7GGQNaI/UtP+3Nbv7GRXY8hDQt3iW1eYGWqLABAdG+78pATZfBeg98EDgC6gwE2scXNQOBriufIlx3Hk5nYk7fmeaSMIAmbeMMkDq5Oi078qKlpjpoQ8KnXV8U8+Q4eBXYrmCWwmE469+xFEiVa9l1+dDW1CjMPzauKjMWYiW1nR2tKK0iU5AHU40Y1JR2UlKlZ9Lmk34/pJZ3xts7J3C6iN2eG5W3QcZycqxqpdzOkj9F7XLuR4Ch4AnMXlaXcHAJSZ/FfTbxQo4b86juMk7fkeis42ps24ScPs1rJ3Bwqx6Ozv5RXkfE6ArazrRJMJR9/+ANYWtt9uhYoo/XCZZOARGhaEa250Pgdnzi2XMUsCAaB5/0GUfbzK6bnPxtLYhOLX35EMZEacPwBDzztTxVDKR5vZM3oNto4OtB+3rxcFAIlJcQ7N1dlpxpED5di+tRC5mwqwM+/A1bff9OwoALxsqpcg72kHehuNQc3jiUiYPUSr+5/vLXc4PkBwfSXUh/OYNgqlHLMXTPGMA4Rs7uK7VCRYSCh2AbB7qNtpqELx628i48H7IQS4OzHxbI8oylZ8isbdeyVNF951tWTmf1fEaaJwxYxx+Go1W1ioduMWEJkcibNnOZv1DuBEh8Uji9+Eua6eaSeTCZh727kqosoA9q1ZlDgicJX2Y6XM3Y+AAAXik+wHqe1tHdj4y25s2bAXxQfLYbOdMZcCwM7sIfONBPiSCrK3cvctYZd4cDwKf409C0IF5qFia3QSOsLV3nKH08chog1peZ+BSGwpXzFjnCfO/gHAZjWZugoAkFeQcxAEj0tN0HasDEdefRPWNnZjmu5ARRHHV6xC7SbmpgQAYMyELIy7iF3Wx+K6my5x6Oig5rcNKHn7PVhbndsBaTlwCIf+8xJMRulWwzP+OgmJKefeTyIi2Wf8lgbPKBc2FZyzWXQG/dLju8yjMJstWL1iHe688QUseftrHCoqO/vhfzpqCtwO0bZv7JD5H43PuoHrBPQQPAA4G0qZAUBDwmBvecLxARIK1yG4ntmJF+ERIZg521NJpWRPcnKy3adFbkHKawAkmwC0HinB4edehrmWLVDjCqLJhJK330fNpi7jlDOIiAzBrfdc3a31VCol7n7wOsmEQABo2rMP+598BnWbt0rWx1sam1C2YiUOL37DoUTCfmnxuHbOxV2ORcewE+3ajrM/U65ARRH123cybYZ2Iat8tFiPB257Das/Xoc2ieqFsyAEuEWkih0TMhfwG2sPwI8ATuOCIQvVgJX5atGoG+gtdzh9nKBGAxIK1kna3bBgKoIYLWu7AwV+Y1ssEm1YOEsG604AiSzLDoMB+xf9B/GzZiB2ontKFduOlaH0w6UOdSKUy2W4//EbER7BPKFziIzByZhz62VY8T47MRM48WAvzfkElV9+g8jzz0PogAwoY6MhUwbA2tqG9vJytBTuR+PeAoeT80JCA/GPx2+AXN71Wb8mnl3a2Fnh/gCgeV8BLBIVAGcHANs2F+DNF1bDZHJIHtgOJM1G6G9js+ZPyivI8V5nJg4PAE5HgDkbsH/gZw0IQms08x7J4QAABJsV6Vs/BRHt67kDwMDMFFx02SiP+SEj9H9SNtsLPzKOGbpguiDSzQCCWLa2jg4cX/4pmvYUIOGa6S4r0lmaW2D45nvUbtgk+WZ9itvunYHMof1cWq8rrrp2IspLjVj/E7sr4yksjU2o/uU3VP8iEVNJIJfL8M9/zWE+5FMkWhhb29rRUalHoBsVAaUaLkXGhCFj0J/aJ1+t2YRPPvwB1D3iSWoi4qsL0m48f3vxSnYUwnEb/AjgDAgzu69Jk8Gz/zkOkbzrG8mtf7lChjsemAnBhSQzBylXq9UOKdts27dsF4U4B4BDr3JNewtQ9OS/cfT9j9BctB9UdOwh0H68AuWr1qDwkSdQ89sGhx/+M2+4CJM9ECjd+cA1kjLB7kQul+H+x2ZjyHB2b4LI6DBExrDFfhp2/O42v1oOHJKUQh43cegfn9VNv+5258P/BAQZMpV8sfsm5EjBdwBOQwDOZ32cm2NTvOUKpw8TWbEf2kPS59nXzbkYCQ6WVLkEweeEEIfv0HmFK9ZmZy64AURcBRDpewMV0bAjHw078qEID0NIehqCU/shICYGspBgEEGAra0V5qZmtJUcQ1vJUXRWSSfGnc3V11+IGxZMdfo6RxAEAXc9OAuiSJG7YZ9H1jiFQinH/Y/NxujsTIfsh41Ix4Zf7O9O1G/fCd30K7vfjIxSVKyR3CjCRVPPAwAU7TuGdxZ/7t6H/x+Qm8dnzXtvS8Fyx7ZlON2CBwB/QijIeSyDtmjPtN/k+A4BbQ1Iz10pKfuanKrF1bMu9KgvAuC0nm9u0bLPx2bNJ4TiEwAOi75bmprR8PsuNPzObDboNNOvvxBzFl7u1jnPRi6X4b5HZ2/P3bhvLSj+Aw/sjEZFh+PBJ+cgfZDjR4jDRrEDAFNNLRr37kPE8O7tYFT/uh7tZWzxn8xhqUhO1aKluR2vPLMSVotjuQ4ylQrBaakQAgLQWVHpSK6HIAKPALjOoQU43YIHACe5YND8NAB2y1EoEdAaFe9Fjzh9DcFmwYCNOZCb2OVycoUMdz14rd0EMDdRpNFoXNLyzSvIWTN2yIJKAfQLCmjc7ZgjyOUy3Hr3dFw8zTuaG4Tgk9yCnLfGDZm/i1J8AIIUd82dPTELt9x9tdPJi6PGDEKASglTp30hocrPv0T40CwQByoauqLtaCkq16yVtJt+/Ylg9eMPv0dTY6ukvSwwEJppUxE35aI/2xZTirrc7Sj7+FNQC+OkiZIZ52fO1+wsymF3zeJ0G36gfRJBDuadpj1CA1Humf7bHB+AUqTlfoaQOvabFADMvXUa+qV5OJik5K3uXJ5XuCxXBjIaoO47aHaQyOgwLHr5Vq89/AG0iVbrpwCwtTDnl1aZbQgoXgCo9JOOQUJyHB5+ai4eeMK1yoXAoACMGc+WLu40VMHoYlKipbEJx977CKJVOlF1xPkDULTvmEMJkyqdFoOefBSaaVP/fPgDACGIHjcGKQuYSusAIFMAM6V/Ak534QHAKUTKzDBq5Z3/OAzi9/+GmFLp7e8R5w/A5dOzPe1OS0CA/NPuTrKpcFm5MqbfWBA8AsCpAm9XyZ6YhVc+uA8DM1O8sRwAgABLExMT/5Ds27fv47bcopxHrFaaAmARgCOOziWTCRg+KgMPPjkHr3xwP87P7l55+xUzpVsdV65Zi6YC5wT1TNU1OPT8yzDV1THtBIFg7u0nlAo//uA7yXP/oOREDHz0QQTE2hdairrgfIQOSLc7DgAEkP7BOd2GHwGchICwA4BoZnNAjh8TWbEfSbul68kjo8Nw98OzQLqbtCUBBfk4OjraLaVUJ9oH44WxWfO/gkheIYR65EA+uZ8Gc2+fhmHnZXhiehY2QSCvdzWw4+CKOgBPAXjq2ksfyL706nG/lRbrA6oMdWhr7YDZZEFQcCDCI4KRmKxG/4wEDDsvHaHhzEpKp0hNj8fwURnY8zujmyAVcey9JUi7506EDJD+/TUfOIjSj3IcEiu6+LLRyBiUhINFpSg+xK5qUUSEo//df4MsUFqiOXbShWg5ZD+uEgmGS07C6Ta8KQMAYJGQPeRYE2C/B8DeK/6BtigeBHDOJLS2DJk/vw3Bxq6ek8tl+NeLCzE4y3117HawCAQDNBrNMU9MPjZz7uiEJPVSfUVtpjuywE+o4V2E0dmZHg+MuoICq+O1musdsdUbDO8C5A5P+3Q2ZUcNeOhvb7KkdQEARCaD+rIp0Fx+aZcPYXNdPSq/WIv67Y6d6sRpovDSe/cgOFiFl59eiW2bC5j2aff8DeHDshya29rSir33PcgysZkClGH5+R94Tn+aw3cAAGB85tEEEYLdh78ok6M9gi3MwfE/ApurMXD9h5IPfwCYd8dfvPHwBwVZqdGoPfLwB4C8ohU7ilYXjTR3kkPbthSmbF2/B0eL9U7NEauOQPakYRg/aajncyHYmEWZINkL4RQyQXjJJtJbAXg0e/NsklO1mHrVWHy/lt0ngdpsqPruR1SvW4/woUMQlJgAQRUAS1MzWo+UoK242GG9hhOVEX9FcLAKDfUt2LGV3SMgctRIhx/+ACAPDYEiLBSW5hZ7JrJgS4cagMc+yxweAAAAbDKSThjBdWdYHKjg1b95Ti9H2d6Mwevel2zxCwCTppyHy68e6wWvYINofd7Ti2RmZpoNBsNDV8+auPrqWRPR2tKB4kPlKDlcAaOhHq3NHWhrbYfNRhESqkJIaDAiY0KRlpGA/hkJiImL8LSLjkHwdmJcnMPn+2q1+miloeoLAszypFtdcdPCy1G07yjKSthtkoETvRUaduajYafrpfQL774aGYNOlD3v2XkYIkuwiRBop//F6TXkoWGsAAAiIQqnJ+U4BQ8AAAgiSWfFxR1h7u/Rzum7KEytGPzruwhoY7d6BYD0QYm4434vJTRT/Dc+Pv6QN5bSaDSfG4zGraAYFxIaiOGjMjB8lNfP7/9AFEW0tXSitbUNHe0nyubMZgvMpjMz3AODAqBUyBGgUjR+9+X2988777bw/PwPpA/DTyIXyP/ZRHo1AA/3Rj4ThVKO+x+djcfufRdtrR0eXevGWy7DJdNG//H17p3sj1T4kMEI1LqwQyqhgDlwYGrUmh8NF1JC4iESQgXaApvtkE6nO+yMwBXHPjwAACBSmsE6f+wI86BaG6dPITe1IfOXdxHUKF2iHKeOxENP3gS5wiu7R2abXHjSGwsBACGE6vX6hSDCLgDSWV/dpLGhFfqKGhgN9TDq62A01KPKUIfG+ha0tXai3bkudAAQAeBgAIDsIfNFAlRToAZAFUCNoKQahOpBhTJKbSWi2VayvXhl84ldAMObBOSfbv8hJUhIisP/PTsPzzy8pJvNd7qGEIKbbrscV1078Y/viaKIvfnsTZKosWNcWo+a7esbAMCt983IpSAEFCdk2igAQQZDldGoNxj+R4C3tVot+2yCw4QHAAAIAbMmpSP83H7dHP9Dbu7A4F/fR1CD9Jl3aFgQHnvuZkRGs/Xc3QbFK4lxccXeWewEOp3uoMFgfIKCvuzOec1mC0oOV+DwgXIUHzyOIwcrUFvd6M4lzkY4KXikAZAFkJPp0eTEg4cIkKkEZA+ZV0sJKZl9+WNlf7l2Ql3GoKTo5H5axGkivZbAODAzBU++dCuef2I5mpukj58cJUClxD0Pz8IFZ+kO1FY3sncciICwzEHOL0hFmOvYO2gxcRH2fqlqgNxJgdv1+qqlJlPAg/36RXr0A+Kr8AAAAEDYAQA/AvB75KZ2DP71PYTUlUvaKpUKPPL0PMQneu1zU61SKT1+9t8VGk3cq4aq6qsAOlHa2j4tze34fdsB7Ny6H3vzD3vkDbf7kBhCEWO1ihd8+dnGP76rClQiKUWD5H5aJKVqMGBwEpJTtZDJPCOzkjEoCc+/9Xe8/NTKtqPFlcHdnm9wMu5+6Fpo48/9vBoNDcxrg5LiIQ9x3oWOKiNTgCg0PAiBQZKnLAIIFgYEmC7U6/VX63S6A0474uf4fQAwadIiubm2lJme3RnKAwB/RtHRgsG/vodgB978BUHAvf93PQZkelE4iuCxqKgoh8+x3bo0IaLRaJxlE7ETgFO9ss1mC3I37sOGn3dh/75j7ESzXkxnhxmHDxzH4QN/qkAGBCiQmh6PjMFJJ/4NTHLrblCcJrrhXy/eOm7+zEWXAHgcgNPnlFHR4fjr/CmYdOlICHakhGuq2G/pAXGuHY+2FLGf1WpNlOOTEaQDwvrKysoLvZUD4yv4fQBgrj2WDBC7Gr/mwDBYlR4/4uT0UlStdRi87j2oWmolbQWB4M4HrjlnG9WTUGCbTq1e6rUFu0CtVhsrKqqvEmTiFgCSr4OV5TX48es8bFq32+MJbT2FyWTBgcJSHCgs/eN72oQYZA1PQ9aINAwZnorQMJcFg6xUwKyMjJQDAA5MyvzbMjPa51IBcwnFBawL5XIZBg9LxeRLR2HMxCGS/SgaGuxn6QNAQEy0084DQFMB++g+fZDTjdfURBC+rqmpGRUbG8t2mvMHfh8AiBQaVjKqKcSJSJTjUwQ1VmHwr+9C2S4tqkcIwa33Tv+jZaqXMAmgtxDCKmL1DgkJcXv0euNNIPS/ALos3yo+VIG1n23AztwiiA7Wo/sShopaGCpq8fO32yAIBCmpWmSNTMOwkekYPCzV0eZQNlAyP16tXnfqGxuK3mkF8A6AdyaMWBBrsyIbVEy7bPq4R21mW1RQqAoRkSFI7qdF2oAEBAWrHPZZIOxjDOJCQytzbS2aiw4ybUacP0BynrqaJhzaXwajvh5tbR0ghGSIIv1hfObNj8hjk7adVLHkMPD7AEBGiJp1K7IEeimJi9OrCK0+hoEblzhU508IwS1/vwpTpjFfvtwPxbNanXa/dxe1j06nXqvXG2eD0FU4LQgoKzHg449+YMvZ+hmiSHG0WI+jxXp8tXoTgoJVGH5eOs4fNxgjzh+IkNAudx1NBHSOVqf53N68m3cvqwHwFQB8/svzad1VLpQr2Q94KqFO2BXGX9YD1P51coUMg4d2fSrb0W7Cuh92YMPPu1B2tEtNhHEg2GyuLW0YlzV/uYySVzYVLpNO3PFT/D4AoITGgNrfAjCrnO/ixenbxJXsQP9ta0BEx14g5t4+DZd5R+jndAq0WvUL3l5UCp1O/YXBYLiRgnxSV9us/GzZT9i4bpdX3viJQCALDoZMdfINl5AzJHGp2QLRaoFosUA0W0CtVogSpWjeor2tE7mbCpC7qQAymYBBWf0wauwgjBk/BDFxESCAnhBco9FoHW7xLBDynUjRvQBAzn5EmGvZzYTOprPKiJqNm5g2w0amQ6U681RWFEX8+FUeVn+8Dq0tDh0bRVKK+6ygt2Vnznsqt2j5SwD8b9tJAh4AgKhZBTx8B8CPoBSJ+35C4r6fHDInhGDe7VfgL9eM97Bj52CiojCPENIbU+Wh1b7/xc2zMaa0WH9/Z4fZbfVxyogIqLQaBMTGIiAuBgFxsVBERkIeEgx5SDBkQc6fqYsWM6yt7bC2tMLaevJfczPMdfUw1dXDXFcHc109rC3d6gzsFDabiMI9JSjcU4Ll732HxBR1bUeb+Y2milanyjzr6up+joyKaQBopKu+aOPZZ/ztFZWOT0Ypjn+yCtTCDqynzTizW2ZDfQsWP70SB4tKHV/rT4JAyAvZWQvGKVvo9RtKc7zS1bKv4PcBAKEkhhUYWlShXvSG01MINgvSclchprKnhbwAACAASURBVHS3Q/YymYA7/3ENJk3x6pn/CQgeio+Pc8xRLzM285Y0Qo4tO1hAuhcVEQEhaakISe+P4NR+CO6XAkVEuHucPA1BoYQyUgllJFueWDSb0VldDZPBiA69AZ2GKnTqq2AyssvZugulFMePVcUAeB5KPJM9ZP7PhNBVCjH4q5Nn/3bJzMw0VxqMnxLg766un9JfxxzvNFTBVFeHgGjpZMDKtV+j5QA7ST+5nwZDR/5ZlV1aosdzTyxHXU03i1wovcoSirWTJi26kucG/InfBwAAZdaxmIP4DoCvIze1YeCGpQirPuqY/clGKWMmON78xH2QH7TquDd7YGFJxg1ZcD2F7QOAuPRHQxRyhA/JRMSIYQgfOhTy0G6XuLsNQalEUEICghIScPrrNBVFmKqMaCstQ9uxMrSXlqG9vALU4pHNGQWAKyglV5hJW2t21vxVhAofbC1care9H7UJbxCZ7U4ALokSRESGIDImDA21dhJhKYXxx3VIupHdULH6tw2o+u5HyfWuvHbiH6JK+wuO4d+PLoOp0z3HNJTiMnNt2fMAvK7i2Fvx+3bA2Znz14HgYnvjBZfdi5bYFC96xPEmQY1GDFz/IVStjp1lBgYF4KFFNyFrRJqHPesSo0wgw9RqtbEnFrfHpEmL5Ja60tcode1NUxkdhdhJExEzIRvy0L6/40ZtNnRU6tFWcgytR46g5dARWBo9KtOwixLygdhhXrW9eOU5T2qDoeozCjjU8rgr3nxhNTau22V3nMhkSLvvLoQNHnjOGLXZUPnFlzD+tK6LK88kY1ASnn3tTggCQZW+Do/e845b1Q5PIoqUTtxWtJzdWtFP4AHAkPk7AJxvb3zPlQ+jPULjRY843iLMWIKBG5ZAbnasFj06JgyPPrsAyf17pDW0BVS8RKfTsTOovMy4ATeHinL6X0Lo5c5eGzp4ENQXT0L4sCGARLlZX6ezyoiWw4fRevAIWg4d9lBAQFtByCoQ2Ru5+5YUnvqu0WhMtYl0P1xsYJS//SCeezyHaSNTqaCdfiXiJk0EUcghmkxo3LUXhh9+QmeltICWXC7DC2/fheRULZqb2vDoPe+gSu9cgqHjkLzcwmXZ0na+Dw8AshbsAqUj7I3vmv4YOkNjvOkSxwtEVu7HgI05EGyObdUmp2rx6LPzER3r/nNoRyCgd2m12rd7ZHE7jM28JYoQ288AnEqECE5NQcK1MxAyoOe6B/Y07RUVaN5XhKZ9BWgtPsYsi3MBSgh+skFYvK1g6ToA0BsMTwPkCVcmE0WKe29+BYbKGklbopBDERICc2MTQB1Pur/mhsmYveBSAMDiZz5B3qZCiStOIAsKQsSIoQiIi4O1pRVNu/fCVCcdOFBCJuUVLNsoaejj+H2T+8S44X8HYLfbj37wRbBxJUCfIubYbgzYvAKCg2V+w0dl4LF/L0B4RE+VhNIVOq320R5avEtGD5wbLZOTdQBGOnqNSqNG8twbkTDrGihj/DuoVoSFISQ9DTHjsxE3eRKCEuMhyOUwNzRIZsk7AAGQRkDnJsYNn54YN7xdVAR8MCQr+RIACU5PRghCwwKxfYsDjfdEEbZO5xLtR2UPxu33TgchBL9vO4jPcn6W9kkmg+ayKej/99sQNXoUQjPSEZ6VidhJE2Cub0BHeQX7ekBWXr1nrVOO+iB+vwMwdsj8IgIMtje+89qnYQns++eSnBOoj+Sh//Y1Dr+dTJsxDvPvuMKuVrqnocC29taWSenp6aYecaALzjvvtqAAk3k9gNGSxgBABGguuwS6q68EUfC8YxbUYkVzURHqd+Sjcc8+iCZ3/W+nFbqE2CUvv3ffncoAudMC/pRSLHrwQxTtdSxR1lH6Z8TjqcW3Q6VSorPTjPsXvoIaI7uxnywoCKl/uxVhg87NOTjhrIiD/3kZbUePsaZpVMakxPp7RYDf7wAkxQ6/FwR2a1gqs6ZAlHWpbMrpY8SV7EDattUOPfwFQcCCO/+CWXMv8Vqr1y4oVcpllyYmJvaiVqeLhJToulUEuMQR64DoaPS/6w7ETBwH4qHueL4EkQlQaTSIPG8ENJdejOB+KSAyGUw1taA2W3dmDmtpbp/01eoNbUqVUp6aFi93plshIQTDR6Zj82+70emmrPz0gYl45Jn5f6ge/vT1NmzdsI95jRAQgAEP/wMhaaksZ6HSalC3JZc1lcraVv9dRc1eJ4QMfA+/DwAS1cPvB2BXKKN82FRQwe9/TX2euJKdSMv7zKGHvypQiX8+cSMunOLw7rYnqAMVL9ZoNKU96cTZZA9JeZIAdzpiGzlqJNL/cQ9Uatc6xvk7RCaDSqNGxMjhiJt8IQKio2BpaoalyfUEQlGkwXvzj8g3rMu3BQWqhKR+God3twKDAjBsZDryNhXA3M12zdkTs/DQU3MREhJ40i8Rbzz/X3ZzKEKQeudChDqQO6KMjkL9th2wtbXbnw5kZ3nNHvvlDX6A3z/ZEuOGPwDArgpIRdYUHgD0cWJKdyMt91MQBx7+kTFhWPTiQgweynjD8DwdVCTT4uO1vUrsJztzwWQQfAgHasrjLpmM5HlzIPAtf7cgKBQISklG7IUTEDF8GIhMgMlY7XK+QEebSfh92wFsWb8XkdHhSEx2LEiLiArFqDGDsHfXEbQ223+42iMwKABzFl6OubdfcUbzox25Rfj52+3Ma6PHjYXm8qkOr9VhqEJ7aZndcUpwsKJ6zy8OT+iD+P2TLTFu2N8BYrfln2HQRIhyu92COb2c8KojGLApB4IovX0ap4nC0y/fhoSkHn1jtYGS2fHxaulMKC9yQdqNYYKC/AIQtmQeIYi/dgbiZ1zVk0cnPo0iIhzhQ4cgbspFUKnVMNfVw9Ik3bGyK1pbOpC3aR+K9h1Fv/5aRERJ5zuFRQRj8tRR6GjrbDparJdRSiWfI0qlAhdNHYUHn5iDYeeln/PZWP7ed8yyP3lwENLu/juEAMfvxeaaGjQX2u+VJYCUlFfv+dLhCX0QHp4ToYW1LSxYzS5Wz3J6mqDGKgzYuAyCTfotSZcQgydfug3RMT2q/ChS0FvjdZr/9aQTXSFTyZ8HiGQGefx1M6GZ6lB6AKebCAolorPHIDp7DFoPHUbVz7+hed8+UBcaLxXtPYoH73yTXnL5aDL75ksRFm5XhdEM0PWBgYqlM28c/+UP326JIJDNo8AUAGMAnB5BVKekausvmTZ64PjJw+11OER7WwcKdrPbHMRedKHTypDyYHbVDiWi880jfAweAFAwE6xklt7RLYzjHMr2Jgz+9V2HRH5S+uvwxPM392CZHwCAEpC7dFrNsp50oivGZ948TIR4u5Rd9Lix/OHfQ4QMyEDagAyYqmtQ/esG1G7e6nQFAaWU/PL9dvz6447OUWMGbbrnkRsKVUHyEEpJE6FUD5D9cjnJjYuLO70HQTWAl07+w9ChNwWHW2hYiCWy/ofiN02f/yKtP7BvVzGsVvs7dEQmQ8xFE536WU5cyB5WBaqCKquqridAP0JJBKVUBMhxSlGg08VtI4R0J+uyT8ADAEqbWR8UmaXXVF9xHESwWTBw4zIo26W3RZNS1HjyxYUIDevRlwFKQe/RaTXv9qQT9hCJ+CIkzv1DBw5A8rwbveQRxx4BcbFInH0dtFdOQ/W6X1H9y3qn6/JFkap25O6/dM5Vj2sFQhdsKVie7+i1+/Z93AbgD/1eCrRJHQQdLLR/Tg8AoRnpUEawT566wtbOzlGYOHnENEIxDQAo6MmAgYIQwFBlrNdXVS2nNtur8fHx5U4v3kfgdTkEzKeEYOM7AH0KSpGW+xlCatk3FQDQxEfjiedv6emHP0DJP+O12rd61omuyc6aOxbApSwbeXAQUu+4BUTm9ylFvQZ5SDB006/CkBeehWbaVAgBLp1jZokU27KHzP/35Wl3uzSBALRI2RwvrWKOhw0d4srS6DSylQtj45hBRRQo7ieC7IBeb3yAUuqTCS1+HwBQSpk1NYpO7/UB53Sf+P2/IaZUurInVh2BRS/eisjoHj3zp6B4QKdTv9KTTrCgVJDsnKa7ZrpPNPHxReQhwYi/ZjqyXngW6qmXQFA6m9BM5AAebQpsyc/OnG+3Z4o9REIkdXmlWv2GpPV3dlkAQLuEGmB0nEOy3sEgdLG+yvhZUVGRz2WD+30AIIA0sMYD2uq95Qqnm4RVH0XS7u8l7UJCA/HE8wsRw34D8DQ2SrBQp9O82pNOsLhgyEI1Ab2KZROcmoKYCeO95RLHReShIUiYdQ2GPP8MYiZNdL75EkUmCM0dlzn/uUkp81WOXiYD7Kfhn6S2mq1zFeCCjoStsxNtxSVMG43WbvHXORBgVmR09GeUUp96ZvrUD+MShDL3igPamPEBp5cgN7cjfesnIBJNVeRyGf7xxBzoEnpUi94MSq6P12iW9qQTUshgnXXyDdAuibNngQg+uTvqkyjCw5B802wMWvR/CB04wMmriZwSPGIKQf4FQ+YOdeQKtVp9AIDdV/y21g6YGKJCQkAA5MHOH9E1FxQxlRPlChlS051si0AxQ19V9S+nnenF+H0AQECYYWJAK98B6PVQivStKxHQyg7WCCG444GZyBrh2paim2gRCabpdOovetIJB7mBNRicmoLg1H7e8oXjRoISEpDx4H1Iu/tOBMTFOnUtAQbLIGwfO2T+vZK2hFgBuo4x7tTajlL9G7vR38DMFMgVzuesEJDHKyqqh7vqV2/D7wMAUJHZ3YLvAPR+1MXbEVkhudOI6ddfiElTnOpc62ZIhSiQCQkaza896IRDjBk+PwXABSyb2EkulGZxehXhw4ci8+knEH/NdGfzA1QEeG3ckPmrL0i7kZ1IQ4VVdicJVLKDAJvNaV2DtmNlaD18hGlz/li7/d+kkBGZuNjVi3sbfh8AbClKrQBgt9YvoLXeqb7WHO8S0NqAlF1fSdpljUj7o994T0CAfVS0Zieo1Xt7zAknEGzkIjAqqeUhwYgc3ZPBFMddEIUCmmlTMfipxxGSke7UtRS4TqZSbhs/bK5dgf6GhtpvABzvakwQBCiV9k+ZRKsVlnrJPMI//REpyletZtrI5TJkT8xyeM6zIcBkg8HgdEJkb8TvAwBgkQig1N6ozGpGYAu7nITTQ1CKtG2fQWZm1zlHx4Thvkf/2mMtfQH6k1KpmNCn6ompmM0aDsscDEHhc0nRfk1AXCwGPHQ/kubdAJnK4Tw/AHSQaBN+z85acHVXo5mZmWZQ8m97V0sJcLUdlS7pPUXtho1oK2G3LB47MQuR3VT8pITc0q0Jegk8ADgBU4cypK7v3Lf9idjSXQg3HGbaCIKA+x+/ocdU/gjwplajuSI6Oto1sfaeYwxrMDQjzVt+cLwJIYidOAGDn3oMYYMGOnNlKCj939ghC7osG9Vq4z6iwLauxhJTNcyJG/Id0yFqOXQEFf+VTq2ZNmOcQ/MxoZjpC9oAPAA4we+swZC6LnevOD2IzNyJ5F1fS9rNnD0JAzNTPO/QudhAcK9Wq7mnr0mKjh17XSBAmIekwQOc2yrm9C2UMTFI/8c9SJp3gzMiQgIBfWls5rw3r7vuujMy7AghoozgBgDn7OcPHsJOJG3I34uOykqmTeuRYpS89R5EK7vvx7DzMpA+MJFp4yCx1dXVfT4DlgcAAAgRmX0o+Q5A7yNp34+SUr/90uJx7ZyLveTRGbRRgpk6jeaNnli8u8jaAxPBuDfIQ4MRqGG/tXF8gJO7AQMfewgqjdqJy8hdlQeCPz/vvNvOqN/TaDTHRIFcCZypvjpytEQ5IhVx7MOcLqV9qUhR89sGHF78hqT0r1wuw81/v9LBn0Iamw19vhqABwAALBbsAGA30y+ovhLEgXayHO8Q2FINzaEtTBu5XIa7H551Rs9xb0AAPRWFCfEajfT2RC+F2oRk1nhAbCzAW/36DYHxOgx84hFEnu9U0ud0lcn889kVAglqdZ4okIkA/jioT0xRIzVNx5yso7wCB559EfU7foe5thYdlXrU/LYRB57+D46v/C+oxb6WwCmumDkO8YnOlTyyoER0SAuhN8MDAAA7Dq6oA6hdPQCZ1YywanZiCcd7JO36TjIgm379hUhKcfytxU0cEwQyMT4+bre3F3YvNIk1qoxyXEGN4xvIVCqk3rHwxJGA3LEechQYJ1Mp1o8eODf69O8nqNV7A5SKEQBdjJMVWNNmSp/Lm4xGHHt/CQoefgL7//UMjq/8DB0Scr+nSOmvw/Xzpjhk6zhCj6qJuQMeAJyEULKDNR5ZecBbrnAYhNaUIrq8gGmj1kZh5g0XecmjU5BDVLRdqFar2fqjfQAKMDWSlZE9KqHM6UFiJ05AxsMPQBEV6eglI+UK2S+TMm4742EZHR3drNNq/ykQJBHQh8ZPGr4uITmOLePpIqHhQXjk6blQKhVunZcQ6t4JewAeAJyECpQpHRWhlxaa4XiexL0/Suoy3HLX1W7/Y2dCsEcgdGKfKvNjQdjyv0TR5+97nG4QnNoPg//1KELSUh27gNIRFqX51/FZN5wTNWg0mmqtVvtSUlL8lPKymgkA3HrWGhSswsNPzfVI3w9KSZ+vg+UBwEmIWfYtWHkAjUbeGKiHCaktQ4ThENNm2HkZ0klFboUckhFymUajqfbiop5FJOwnPD//93vkoSHI+Of9iLrAMT0cCgy1QfnDpMy/2a3HzStclgvQh93lY3BIIJ54/haPVQERQqUTD3o5PAA4ydZDS/UAmGe3UccLveQNpysSCu1KigM4oSt+4y1TveQNQIBiq1yYrFarjV5b1AsQQeT3BY4kRCFHysIF0Ey9xDF7igvMpP2LzMzr7L455xYuXwzYFw1ylKQUNZ599Q53lfzZ45gnJ/cG/A/9NCgl37LG447u9JYrnLMIbK5GVEUR0yZ70lCkpsd7ySOUA3RKUmys3lsLegsK0soaFzvtKmdz/AwiEMTPuga6Gcyu0adzaTgJXgGGzHRu4bLHKXALgA5n/REEAVfMHIcX3r4biR5OAqY8APAtCCgzAAiur0BQg8/d7/sE2oObmWf/hBBce8Nkb7lTT0XbFK1WW+qtBb0JFWkta9zSZLe7K8dP0f7lciTd+FdHj4euzx4yn9lWN68wZ6kox2AAnwGUre6DEw/+Cy8ZideX3o8Fd14JBaO/gLsQqP3Ksb4CDwBOI7co53cAzESuuBK+C+BtZOZOxErsvozOzvR4xH8Si0gwKz4+np2M0IcRBMIDAI7TxE6+0Jkg4MlxQ+bNYhls25NTmluYM1sOIZVSeheAL0FQBKAaQCUl2C6XC6vvfngWlqx+HHc/PAvaePfV+UvQrNFo9nhrMU/h+TCpb0EBsgKgj9kziD2Wj7KRfwEVvCsw48/ElO2CzMLedp7+1wu94QoloLcmaLS9vp1vd6Aiauxv0ALmet4im9M1sRdNhM1sRuVqSU1+Isjkn4zPmleypWA5U+x/U+GycgBvn/x3BpRShaHKyAwkPALBb4QQngToa8gF6xIwqgEUnS2IObbLix5xpHZdBmameDrZBwBAQF7UarXLPb5QD2NSKQ+D8Tdgrm+QlF3l+C+aqZdAe+U0STubzaYIjQjb+MILnyS4utbJh7D3+7WL5Cevr+kBeABwFpv2fXwMwGaWTfz+9ZK16Bz3oGquQWgtux3olL+M9oYr6zWaOLs7Q75Efv4HTQC1332FUocV2Dj+iW76lYiZNFHSrqmhJVhfXLlfr9cP6sZy3o5GLVaF0Gelvk+HBwBdQbCMNRzUaECk/qC3vPFrYsr2MoOt0LAgZE/0uCS3QSGX3djXuvp1D8IsuWgv4wEAh03SjdcjdLD0c31n3oHQn7/duauyqupqF5fyrkobxRpfqf7hAUAXtBLbGgBM1Z/4Ip8+Bu41RFayS//GXTTM0xm/NiqS62JjYw2eXKT3QZiiF82HDnvLEU4fhQgC+t+5EIFaraTt8ve/VRkr6/9nMBj/6fxCbP0WdyMI6JNdPruCBwBdsG/fx22EnptwcjphxhKEV/GboCdRmFoRUnucaTPhIg935CR4Lj5evdWzi/Q+KKHMdoutBw+B2vxoQ4TjErKgIPS/507IAgOZdiaTBe+/9oUgUvElg6HqTUqpw1nWhBLvZeNT/KLRaJjt4/sSPACwg8Umvk6BNpZNSv7XPBfAg0RW7Aeh9vuDxMRFIGMws3FdN6G7G+rqnvHgAr0XUbYJgN1fvq2zE21H+7wOCscLBMTFInn+HEm7gt0lWP9TPihwl8Fg/EKv1wc5Mr8oWpky7m7EKgh4wAvreA0eANhhx8EVdQRgZnwH11cipqzPl4L2WiIr2Ud7F4zPBPGcLr1ZIGRuZmam2VML9GbyipbUg5C9LJvGveyujBzOKSJHjUTsRdJJgcvf/w4N9S0AwdUQhJ/r6+vDpa6Jj48vB0GuWxxlQEFf02g0PqUHzwMABgIRFkupUCXt/g5ElBSq4jgJEW2SjX+Gj8rwoAN40df+2J1GpOtZw/Xbd4KKfAeM4xiJ11+LwHgd06attQOrlp2ssKMY12my/FZRUREtOblIXnGHj3Yh2CNarUz1wr4IDwAYbClYehSEMCsCVK110B1gdhLmuEBwox4yc6fdcaVSgcxhDrYjdZ4yAXjeU5P3FQQIa1njlvoGtB4p9pY7nD4OUSiQPP8mgLAfOxt+zkdpyakkezpSkMvXGQwGpsSfVhv3JQBPnc3XC8DMxMREp3sT9HZ4ACCBzGp9UioXIHHvT1C11nnLJb8gpJapyIwBmclQKj3Tl56A/k2j0TD/n/sDW4qScgHY1wMAUL/NZ/KhOF4gODUFmkvZPTtEkeLTpafp7FAMB8i6srKySHvXEEJEUPFvANzdqaqZiuQqjUbjkwkvPACQYPOBTwyE0FdZNoLNgtTtn3vLJb8guI4dAAwakuKZhQl+1mq133tm8r7GIhEgTE3X+u2/c1VAjlNoZ1yJgDi2Zv+uHYdQsPvPXjsUGKpQBvxQXV0dYu8anU63C5Tc5z5PSQMBneLLVUA8AHAAW4f1JQA1LJsI/UHElHm1HNWnCalnBwADM5M9sSyFKD7qiYn7KhT4L2tcNJlQu9nj+VccH0JQKBF/3UxJu89XnqO1coFVFL8oKipS2rtGp1O/B4rHu+kiABQQiBO0Wu0ON8zVa+EBgANsL17ZTAl5Qsqu3461UJiYrdQ5DiDYLAhqrGLa9EuPd/u6BPivTqdjNibxN/IKl+UClJkMWf3relDRfrkmh3M2kSOHIyQ9jWlTtPcojhw460WA4tKoqOgVlFK75T86nebfoOQmSBzd2sEGitdNnR2jtVotW4XMB+ABgIPkFSR/CGAby0bR2YL+29Z4ySPfJahBDyLaF5mJig5HaJhDJcLOQAH6rLsn9QUIEd5njZvr6tGYz3e/OM6RMOsaydbB33xxblsWClxfVVXNzMjX6dSfgIqDQfEpAEfKtKwAXWGTCYN0Os19/fr1s5+B7EPwAMBhFokCFe6QKguMOr4PsRLd6zhsVK1MFWYk9VO7f1GCL/0h4ncFa4d5BUCZW1v6b77nJYEcpwhOTUHEcHYfj22bC1Fdde79gII+WVlVNZt1rU6nO67TaW6koi2VgP4dBGsBFAIwAqSCAttA8SkouQlU1Oq02nmJcXFHuvMz9TV4AOAEW4qW7gUlkjrQqTv/h4A23jPdVaR+dzFxEW5fUyTkJbdP6iNsL17ZTEBWsmw6K/Vo2Pm7t1zi+AiaaVOZ46Io4pfvujyGJ4RiiV6vP09qjfj4+HKtVvuOTqOZqdNqsnRajUanVSfGazVjdTrNjTqd+hOdTlfr4o/Qp+EBgJMoEfQkKEpZNjJLJzK2fMyUseXYR9neyByPjg1z74IEWxPU6jz3TupbUNCXpHa/DF99y3MBOE4RnNoPIRnpTJuNv+yG2PXnKhBEWO2IWiCna3gA4CQbit5pFUHngKGTDgCh1ceQuIdXk7mC1A5AdIybdwBE8p57J/Q9cguXlxAIn7JsOo3VqN3I7CHE4ZyD5rIpzPH6uiYU7bVbhp/aabJ86Han/AQeALjAtqLlWwmRbgmZUPQbIvQHveGSTyEZALh3B6DOZGrnIg4OYLXRZwEwWwDq134Fa4vfayhxnCAsawiU0VFMm03rdjFG6XX6qqqF7vXKP+ABgIuIIW2PAmA/3SlF+tZPoWxv8o5TPoLcxH6AREa7b8ePAKv8JeO3u2w/kHMEhK5m2Vjb2qH/+htvucTxAYhAEDVmNNNm25ZCWK2M2JPi9fLqanZdIecceADgInl5azpAMRcAs1ucorMFAzbl8IZBTiDYLMzxwMAAt60lCmSV2ybzByiegITcas36zWg/XuElhzi+QHT2GOZ4R7sJBwtLWSZBMpv4IUsfgHMuPADoBrlFOTspyGNSdqE1pej3+1fecMknkFnYHXjlcrd9bI/r4uJ48p8T5BYuL6GQOP6iIsqWreAJgRyHUWnUCE5NYdrs+f2w1DST9EbjAnf55A/wAKCb5BUuWwxCvpay0xzagrgSn1aVdBuCxG6JXC53z0IUawkhvHjdSQSL8AwBmFKN7cfLUfXdTywTDucMwoeyNQH25kt3niSUvFxdXa1xl0++Dg8Aug+VybEQBHopw9TtaxBcz7dGWQg2K0DZz2TBbTsAwo9umsiv2HpoaYtIyCIpu6pvv0dHpeSfBYcDAAjPymSOl5bo0dggJbVOI2028d/u88q34QGAG9i8e1kNQGdL1UkLNisGbMyB3My7p9lH+oVcJrjlY9ths5k2umMifyRhYOtHkJDGFq1WlH6UA2rh+S8caQKTEiEPtdvsD5RSHCoqlZyHAvMrKqqHu9E1n4UHAG4it2D5JhDysJSdqrUOGZtWcJEgO4iCXFIf3GRi5wg4AgFyExMTO7o9kZ+yZs0aGxHpQkgkwbYfL0fF52u95BWnL0MEgrDBg5g2xYcd2kEVBBnfBXAEHgC4kdyCnFcg0T4VACIMh5BQ0watGwAAIABJREFU8IsXPOqDEAKbTME0aW/r/nNbBOWKNd1k6/7lRQCek7Kr/nU9Gnfv9YJHnL5OSFoqc7zkcKWjU02rqqqa3G2HfBweALiZVsF2Cwgkm8ok7vsJkZX7veFSn0OU2W33DQBobXFD2b4gbO3+JJwm2vYfyc87pShbtgLmOnaTJw4nKCWFOX70cAWoRI7QKcQTJascBjwAcDP79n3cZrNiBgC2+g+lSN+yEqoWv+xBwUSUswOAttbu7wBQi4UlLcZxkKKiNWaRkLmQ0AawtrWj5O33IJq7f3zD8V2CEuMhMKp8Wls6YNQ7HEhOqqqqusAtjvkoPADwANsP5ByhEBdAIqNNbm7HgI3LJIVv/A2LKpg53tzUXalZUpGQkFDXzUk4J9m2b9kuEDwqZddeVo7SJTmSVR4c/4UoFFDptEybEsfyAAAAlOL+7vrky/AAwEPkFa5YSyhekLILbtAjLfczb7jUZzAFRzLHq/TdfXaLkkc0HOfILch5FaDfStk1/L4bVT/87A2XOH2U4H4pzHEn8gBAgWuNRmP/7nnku/AAwIPoBrc9DopfpexiSndBe4jnpJ1CMgCo7GYAQEhp9ybgdAG1QbEQgFHKUL/2KzTt4UmBnK4J7pfMHC85XO7MdDKbjd7SLYd8GB4AeJA1a9bYKGSzKGC3l+UpUn7/EmHVR73hVq/HHMxu91tl6F4yGaGEq9N4gO2FHxkJFSX1MKhIcfT9pWgr4Z93zrkEpbADgKPFeocTAQEAAuZSSvmzrgv4L8XD5BUtqScU1wNgpq4T0YaMzcuhMEkpXfk+ncHs1qCVx6uduwGchUgol2P0EFuLVqwH8A8pO9FsRvEb76DTwFQU5vghqngdBIX9ROCOdhMa6psdn5Aivqqq6kI3uOZz8ADAC+QW5ewEcJuUnbK9GWlbPvX7JKn2SB1zvK21o1vHAEQkPADwILmFy9+gwBIpO2trG44sfh2W+gZvuMXpIxBBQIAmjmljqHD275/c5LpHvgsPALxEbmHOxyD4UMouUn8AugObvOFSr6UzJBo2hYppU+zcOeAZCALlRwAeJqAVdwGQ7H5lbmjE4dfegrWF73xx/kSlUTPH9ZU1Ts1HgWuKiorY9cV+CA8AvEh4R+jdcOCmmLz7W4TUu/6A6/MQgjaJXYAjB11/iRdFscXlizkOsaE0p5NYhBkAyqRsOyv1OPLy67C2dLe8k+MrSAUAVU7vACAsKipqrMsO+Sg8APAiPxS/aZKDXAuAGb4S0YqMTSsgszC1VXyatugE5njBbunWoPZQKBRcjcYLbD20VE+p7BJIfN4BoL2iAocXvwZrKw8COI7sADgvoEYpmeqqP74KDwC8zKbCZeWUYi4kRIJULbXonyfZVsBnaVKnMcfLS42oq3UiEeg0LBYLV17yEnlFS4oFKsyERBIsAHSUV+DIK2/A2sa7Zfo7Ko2GOW6ocEFBlfAA4Gx4ANAD5BXl/EhAF0vZxZTtRlyJ5ImBT9KkSQcl7I/n3p2HXJpbpVLxAMCLbClaukWgmAXAJmXbXnYch597GeaGRi94xumtBGjimF1Bq/R1EEVnO6rSEUajkb214GfwAKCH6AwIeBQgeVJ2/XZ84Zf9AmwKFVpjkpg2eZsLXZrbarVKPog47mVLUc43hJI7ILHzBQAdBgMOPb8YpmrnEr04voNMpYIiPMzuuNVqQ22100EisdmQ3S3HfAweAPQQ+fkfWARC5kCiaZDMakb/bWv8sjSwIX4wc7xgd7FLfQFEUQxy1SeO62wtWvYRQP4OB4IAc20tDr2wGB2Vjsu+cnyLgJho5nhjvSu5vHSUa974JjwA6EG2FCw9SglulbILrzoMzRHJzQKfo7bfSOY2oNVqw/qf8p2e12qVsaUGOR4jt3DZuwC9zxFbS2MTDv3nZTQXuLbTw+nbKMLs7wAAQHOjCwmjAngAcBo8AOhh8gpy1gD0Iym75PyvENDqX4IpnSHRaI1KZNp8/+VWdHY6l9Qvk1l5ANCDnBAKIg86Ymvr7ETxm++hbvNWT7vF6WXIpAIAV7qCUoyilNp/q/AzeADQCzAFBNwLisMsG5nVjH6//89bLvUaqvufzxyvq2nCFyt/c2pOSgV2tyGOx8krXPYypfQuAJKZXNRmQ2nOJyhftQZU9L+jMH9FERbKHG9yrS14VHV1dapLDvkgPADoBeTnf9BOCVkAiSzpqPJCRJX713Zodf/RsCrZR/bffL4ZZSUGZ6aN7ZZTHLeQV7T8bULJzVLNg05Rve43HH3vQ4gWLuPgDygZSYCAi0cAAKyU5wGcggcAvYS8wmW5AHlNyq7fzrUQbP5TxSbKlTCmswW8rFYbXn1uFcxmx34vhID3B+8lbC1atlygxCGdAABozN+Nwy++CkuTaxoQnL6D1BFAU6OL8tE8APgDHgD0Imho6xMAmMXtAW31SCj8xUse9Q4qMy+S3AWoKKvGig++d2g+CpEHAL2ILUU534hEuJIQOPRK13a0FAf//QI6KnlLB19GcgfAtSMAEBAeAJyEBwC9iLy8NR2EindCokxKV7QBynZm9aBPYQ0IRvkwaRGvn77ehl07HBAHooQHAL2MbQVL11ER4xUKuUOiF+a6ehx67mW0HHRNDIrT+xFU7IZg7e0uS6WP5ImAJ+ABQC/jRD91upJlI9gsSNr7g7dc6hUYBkxAs5r93KaU4q0XV6NBqj6YkEH8BtD7yC3K2WNtF4dFRIU61AnL1tGBI6+9hcb8PZ52jdMDCHIZc5w6rQT4B2HltbVaVy/2JXgA0AuxQfFPAMyav9iSnQhqdCrxrW9DCIqzZ8MmZ3f0bG5qwzsvfw6RmS1OIytqatjNBjg9wtZDS/UVjY2D0gYmHnfEnlqsKHn3Q9RuyfW0axwvQ+QK5ritG4KeCqs13eWLfQgeAPRCthd+ZATwJMuGUBHJu7/1kke9g86QaJSOulrSbvfOQ/ji01+ZNjJRZNcXcnqMffs+brvx1vGDJ116ntGhC6iIspxPULthk4c943gTIpczx202l3cAQCnJcPliH4IHAL0UZUzKuwA5wLKJrNiPkDqHdkt9BmN6tqREMACs+fhX7PmdIa0g4gI3usVxM1OnTm274//+OvLmv19ZJ5M5cJuiFGWffMaDAB9CUEgEAK4fAYASwncAwAOAXsuGDYusFLbHpOziC9d5w51eRcnY62FRsUVCRJHizRdWo77OTrIkwWQPuMZxI0mxsfppV4+d8NBT81qCgtkJYQD+CAJqNm32vHMcjyO5A2B1XRSKEMoDAPAAoFeTV7hiLUC3sGyiywsQ1FjlLZd6BebAMBweP4fZJwA4USf8yjOrYKf5X2ZNTQ1PBOrl6HS6A+ePGTDlyRcXdkZGs8vCAACU4viKz1C/43fPO8fxLBJpujZbN5p6UvAjAPAAoNcjgDzBNKDUL3cBmrQZKB8qXRp4sKgUny75qashYrZaL3O7Yxy3o9FotqcOSJj19OI7bHFqB1ScqYiyJcvRcoCXCPZlxE62sJdMxq4SkKA/pbRbE/gCPADo5WwpzNkACuaeZvTxvZCb273lUq+hPOtSNOoGStp988VmbNtccM73Cci1nvCL437iNZpvtAlRd/zn9TtpYopa0l60WlHy1ntoL/OvHBlfQjR1MMeDQwK6M31AVVUVu9OYH8ADgL4Aoc+yhgWbFTHHdnnLm94DITgy7gaYg9hbw5RSvLv4C1RV1p09dIler4/xmH8ct6LTaD4Kjwm79ckXb6XJqdKnN7bOThS/8TYs9f7VRdNXsJnYPR8CgxzIC2FACNF0awIfgAcAfYDcwuU/A9jBsoku2+slb3oXFlUoDk+YC0rYH+W2tk68/MzKs/sFKAHZXI86yHEr8RrNkoiokPsWvXgrHNkJsDQ2ofjNd2Azuawax+khRIn/Zw4lhjKw8aZgPADoMxDyHms4rOYYZGaH+qn4HM1x/VE+7HJJu9ISPd575ayWyoTeo9fr2Y0GOL0KnUbzRlh48INPvngrdAnSGzjtxytQumQ5QHkr4b6ErVMqAOjWEQDAAwAeAPQVlGLgGoDabX9FRBvCjcXedKlXUTHkYjTED5K02/Trbny/duvp30oGBMlyS07vQqtVvxwZGXzXE88vFKNjwyXtG/N3o+pH/2qi1dextrK7/QUHB3ZvAUp5ANDTDnAcY0PRO60gwm8sm9CaUi950wshBEfGz4EpOErSdPn736FwT8lp1+IfVVVVWR70juMBtFrt27FxkXMf/88CW3CI9MNA/7+v0HqkRNKO0zsw19Uzx4NDu5kDwHcAeADQp6AiU982pN6/M56tyiAcnjgXVJCWEH3136tQW9146lsBIsVn5eXl3Xyl4HgbnU69MqGfZsZDT91kliukm8cce/8jWFtcayPL8S6m2nOSds8g1pGSUDZx3Z2gr8MDgD6EQGUbWePB9RXecqXX0hKTjKOjZ0jaNTW24sVFH8Nitp761mCZTPGcR53jeIR4jeabwcP7X3Hr3dMlM/3MDY0oXcbzAfoCFokdAI02urtL8B2AnnaA4zgdKvl+AHZrY+Smdig6JVrh+gHG9GwY07Ml7Y4eqcS7r3zx5zcI7jEYDFd40DWOh4hXq9dddOkFY6bNHMc+OAbQtLcAtZt598DejqmeHQCoNdLHfUwocUBa0rfhAUAfIj//AwsAZoMgVXOtl7zp3RwdPRPNcamSdmclBRIKstRoNErXl3F6HQkJcXsuu35yZtqARMkouGL1F5JnzJyeg4oUZsYRgFKpQEQ0ux+IJARcCbCnHeA4zUHWYGBLjbf86NVQQYbDE+bBHCgd5K/44HsU7Tt26ss4m0iXUkr530YfZFRm/+NhkWHDQsICmTWxto4OlOV8zI8CeimdxiqmDkCcNhJEoheINISdLOQH8JtcX4OQMtawsr2RNexXmIPCcGjifMmkQKvVhleeWXl6UuA0g9H4iMcd5HiEtz568JjZbLmcEMJ8ujfvP4j67Tu95RbHCdpLjzPHNfHdF/AkoIpuT9LH4QFAX0OkzABAYfK/ngAsWuL64dj5jiUFPv+vFTCZTioFUjxTaTRO8bB7HA+x4fePNlCRvihlV/Hfz2Fr538zvY32Y8zbHNIyErq9BgU/AuABQB+DCtCzxuUmXuJ0NlUZ2TCmjZG0Ky3R48PXvzz1pUBE+snxmhqdR53jeIxwU+iTAJga2ZbmFui//NZLHnEcpb2MHQCkD+x+AMCPAHgA0PcglJngJOc7AF1y9IJr0RzXT9Juwy/5pycFxsmttk8ppX5/o+iL/FD8pskGcS4YlTMAULN+IzqrjF7yiiOFaLWi/bj9kmZCCNIGuKORHz8C4AFAH4PYSDNrnO8AdA0VZDg8cb5k50DghFJg0d6jp768sKqqmtmNkdN72V64Yh8oXmXZUFFE5f++ZJlwvEjrkWKIZvsxmzY+Go4oP0pDLNI2vg0PAPoYglxsYo3LJXpo+zPmwDAcnjAfVGAf/dlsIl559lPU1Z6ItSjoQ3q9UTqRgNMrMamUTwNg7ik37tqLtpKjLBOOl2guKGKOpw9MctNKlHkv9Qd4ANDHIGaReQSgMPMdABbNcf1wbNR0Sbumxla8/PTHsFptAEAg0KVGo1FaWIDT68jP/6CdUHoP04hS6L/6zksecVg0SQQAmUOlj/IcgoK5m+oP8ACgj9EeFMSMWgUr73suRdWA8ajuP1rS7siBcqxa9tOJLygibCJWHzlypNs9SDneZ2vR8q9Bweyl0Vy0n+8C9DDmunp06g12xwkhGHH+APcsRvgOAA8A+hj5+R+0A9Rqb5yIojfd6bMcveBatEZLbyV+vWYz8vNOiS/S84JDQj70rGccD/J/AJjaAIbvf/aSK5yuaNy9hzmemq5DZIx7FHwJCA8AetoBjisQ/pTvJqJMgYMX3SKpFEgpxRsvrkZ11SnZWHKTwWD4m+c95Lib3KKcnRRkDcumae//t3ef4XFV197A/+ucKerFKlMkWZJtWbZlGRuBu8GGUEwn4FAC2AYMCSWd5N43zcmbF24KCblJuAkJYAi9JIFL6MUUY9zBxr3LsoqtZtXRlLPfDzbds89Ic86ZOZr1ex4+4L3n7BWTmVmzy9obMdDCJwISpW3Fe9L2umnjDRtLEDgBSHQAzFgkODeIVTA95+j1wSR/G/T29OOu2x9DJHL071aA7mpqajrVihiZsQTCSwFEf5MIgUOvSS/dZCbpP9iIvnr5leZ1041LAEhQh2EPsylOAGxJp0491zePWVfxaNRPOUe3346t9Xju6Xc++lenAD3e0NBgRDUSZqH3Pvz7Vgj8r6xP24qViPTzaRqrtb29QtpeUJSLUVXG1eUSAvsMe5hNcQJgS/JbMEi+zMk+5+CE09BeOlG336PLXsLBAx9ftuRRVMfTe/fuTTM1OGY4UvFfsvZIIID2NWutCofhaPGftvdWS/vMO7POgAuAPiEEUn7HJycA9iR/F/AMwOAQYdesKxDIKpB2C4ciuOeuf0B88vc71Z2Wdo/p8TFDrdi47D1BWCXr066zFs2M1bFqDcLdPVHbiQhzz6gzdMyIS9mr32t44wRgGCJOAAYt7MrAztlX6xYJ2rxxL155/tO/VHhToB0R8GdZe8+uPbwZ0CpCoPmlV6VdJkyqhLdEnqAPUn9ZYWH084YpghOA4YYIms6XGDu+7qJyHJh0lm6/h//6AtrbPtlALEB3NTYemm1mbMxYIqv3cQDtsj7ta9ZbFE1qO/LBJgQOSu84w7yzjP31D2CP3nXRqYATAJupq7vBCcl/N01x6G0RYBIHJ56O3hHyvX29vQE8et9nzos7QdpTvCnQPlaufLJfAE/I+hz5YJNV4aS05hdfkbZn52ZgximTjB1UYJexD7QnTgBsJjsSzJS1a46Uv+AqLoIU7Jp5he5SwJuvrseeXZ/51eJRVPXZAwcOGHFLCbMAkXhU1t63bx9CXdLK2yxOPdt3oGen/Lt4/oUz4XYb/rm2xugH2hEnADbTrzmyZO2ayglAvHrz/WgcP1faR9MEHrn3xc/9KU1xOJx/NC0wZqh3N1W+A4io984KTaBr04dWhpRahMCBx5+WdnG7nZh/wUzjh1ZJugk0VXACYDMOaDozAC6rQhnWDpxwFgI5RdI+76/dgQ/W7fjMnwngWt4UaBdLNSJ6Rtajk5cBTNO+ag369tdL+5x+zlRk52YYPbQI9rn4nCc4AbAdEhHpDECEEwBDaKoT++ou0O334D0vQNM+u5eIKwXahxDiBVl79+at0MJRr95gQyRCYRz8p7QeE1RVwXmXmLK3dntlZX6nGQ+2G04AbEYD5DMAvARgmPbSiegqHi3ts39PE1a984XrS50C9PiBA60lpgXHDDHgdr8BIBCtPRIIoP/AQQsjSg3NL72CYGurtM/pZ5+MYk++CaPz9P9HOAGwGQLp7AHgGQAj7as7X/dUxTNPLD/eH3sUR/ipzZs383+QJHbsdk3pdHDfvv1WhZMSBtra0Pz8S9I+aekuLLj6dFPGFyTeMuXBNsQJgN0IIU0Awi6uTGuknsJytJZPlvbZtb0Bmz/4YlVRAqbn5xf8yqzYmDGEkO8I5wTAWAceehzawIC0zwWXnoL8AmOu/f0czakoz5vxYDviBMB2aISsNew2fMNMyqufcq7uscBnnohygxzhmwebmy8zISxmGEUnAZBvVGOx61i9Dkc2yjdW5uVn4YIFp5gVwtri4uJmsx5uN5wA2IyAkNbDDLukWwTYEASyCtBacaK0z/rV27Fv9/GrmZHAX5qamipMCI0ZQp4A9Dc2QgsGrQpm2Ap3d6P+kcd1+12x6CykpZuzckYg/vX/KZwA2I4i3RUTcXEdGjMcrJmnuxfg3/+Mep1prgD+LoTgGs1JaOXme3cDiHo3vNA09B+IWi6AxWj/socR7pYXVqquKce8s08yLQYhIs+Z9nAb4gTAboR8BiDk5gTADH15PnT4xkn7vPvmJvT3RVvbpNlNLS23GR8ZM4CAgLTw/0Cr9NoApqNtxUp0vv+BtI+qKrjhmxdDUUwrZV7v8/n4godP4QTAbhT5HgCeATBPY808aftAIIj33pFUjhP4WVNTU43BYTEDCMI+WXuwnROAoRpoa8OBR5/U7Xfel2ejvNJrYiTiAb4A6LM4AbAbTUiXAMIu3gRoliPeKvSMKJP2Wf7yOlmzS4DuFULw+y7JECCd4w+1R10hYBIiEsHev9yHSH+/tF+xdwQWXP0lU0NRFeUBMwewI/4gshlBkG8C5FMApjo0Zpq0fcvGvTjULP21OK25uflrhgbF4icgrfYzwDMAQ9L4z2fRu/uLR2Q/TVEIN9+2wLSNf8cs93g8u80cwI44AbAZgiiWtQfTTDk7y45prZgCTXVEbRdC4M1X5cuMAnRH/eHDfqNjY0NHiiadAQi2cQIwWN3btqPlJflVvwBw/iVzUDOp0txgBN1v7gD2xAmAjdTV3eCU1gEgQiiNjwGaKezOQEepfBl/xRsb9R6T4whrtxsWFIubBkWaAER6eqwKZVgIdnZiz5/vhdDkS+6l5cW4fNGZZofTCkTk1w6mKE4AbCRzIOSF5L9ZyJUJoUT/dcqMcWjUVGl7Q/0hNDe26TxFXNPU1CR/ELOMUCE9n6aFQlaFYntaOIw9d/9V98ifw6HiG/9xOZwucz+zCPQHv9/fZ+ogNsUJgI1opEmn/0Pp0irBzCCdJeMQSsuW9tmwZoe0HQAJot8KIUw788RiJzSH9Mo/LcgJQKwaHn9Kd90fAK5aMh+jxpi+EtYnRORuswexK04A7EQj6bsllM7r/1YQpKCjZLy0z/trtsfwIMxqbGk536CwWDw0SL/hRTgECD5Bpqd91Rocfj1KWexPmXJyNc69eJb5AQn81e/3y68dTGGcANiIBkgPyQZ1fpUy43SUTJC2b9qwGwMD+r8aSeAXfCww8UQ4KJ0BEJqACEesCseW+hoasH/ZQ7r9RhTk4hs/uAykU1nTACFA+53Zg9gZf/DYCclPAPAMgHU6/dXSC4KCwRC2bNSfBgVQ29zc/GXDAmNDEslMkyYAACCEZkUothTp68OeP92je2eCw6Hi2z+6HNm5VhxXFvf6/X6+ylGCEwAbISKfrD2YzjMAVok409BVJD+6tGXj3pieJUA/5b0AiZXWE5YfnyGC4nRaFI3NCIH99/8dA4cO63a9asl8jJ9o8pG/o3ocqvozKwayM04AbERAeGTtPANgrU6dfQC7th+I9VETm5ub58cdEBuyiDOUK2tXXC7dy6BSVdNzL6Bj/fu6/WbOnYTzvjzbgogAAv2Gr/3VxwmAjZDQmQHgPQCW6vKMlrbv2t4ATecc9Ec00HeNiIkNDcEhLbGtuEytUmdb3Vu2ovGZf+v285cW4mvfsmyl65DDofzWqsHsjBMAGxE6mwB5BsBavfkl0qqA/X0DaGzQnxYFAAJO47oAiUPQ5AmA221VKLYRbGvHnr/cC+jsjUjPcOP7P7sGGZlplsQlCP+nqKhIXoSAAeAEwFZ0EwCeAbCUpjrQlyedlMGubYO5R574joAEIaEUytodWXzHxqdpwSB2//F/EO7plfYjItxy2wKUjpTuXzbSKr/Hw2V/Y8QJgE3Mrbkpi4CoG5WEoiLEFwFZrqdAfjvg7h0x7wOAAC7fu7cjL96Y2FAI6XqOq0B6B1fKqX/oMfTV6ye3F37lFEybPdGCiAAAIYWwhIj4uEaMOAGwiQEM6Pz6z+JNSgnQU1gubW+oj20J4Jj0tLTgFXEFxIZEKGKMrN2VL10hSCmHX1+OthUrdfvVThmNKxafZUFERxHod16vd5NlAw4DnADYhKJGdDYA8vp/IvTmy0uZ6lwN/AUC2pJ44mFDJEieABREv4MrlfTu3oOGx/Xv1SkoysW3f3glVNWyr5g9ROLnVg02XHACYBc6ZYCDGZwAJMJAlnxquPVQJyKRwcxI0pTGxkb5+UJmsKUKgGpZDzcvASDc3YPdd98DLSyvmeRwqrjtp1cjJ9eym0k1grjW6/XKNySwL+AEwCY0IaQzAKF06TFmZpKwKx1hV/S9F5GIhrbDnYN6piC6LN64WOymT9xdDUCaQaeXlVgUTZISAvuWPYRQ5xHdrktuuQhjqkstCOooAbrT5/PpX0DAvoATAJsghasAJquAzixAS9PglgEIyuXxxMMGR4F6kqxdTU+Hu0h6SGDYa3nldRx5/wPdfmecMw2nn3OyBRF9bHMw0PcTKwccTjgBsAkSXAMgWQ1kyxOAQ00dg3yiqG5ubq4dekRsMIQQ0voL6aUlKb3Btm9fPRqf/pduv6pxZbjulgssiOhjA0JTrq6srAxYOehwwgmATQjIlwB4D0Di9OskABoGfyopIgSXBrYK0Wmy5ozykVZFknQigQD2/OVvuuv+uXlZ+N5ProLDGf2CLMMRflBSUrzBugGHH04A7IOvAk5S3TolgcdNqBj0MwnECYAFpk26vpQA6d3O2ePHWhVO0ql/6FHdS36ICF//7qUoKLJ0H9LzPo/nv60ccDjiBMA+pOeQQrwHIGE6fONwxHf8L4nTzzkZZRXSO5yimd3e3s47O02mRsLSRIsUBdnVqZkAtK1YifaVq3X7XbBgDk6aPs6CiI4hHITQFhJRbBdtsKg4AbAJAUgrxMl2ojOTEWHb3OvQPHYmNPXolbGZmWm4bNEZ8VyA4ggGg3MMi5EdH+ESWXNGRTnU9HSrokkaA21tOPDIE7r9xlSXWlrsB0AImnK53+9vtXLQ4Sr6TSYsadTULHBJywCTgoiDLytJpIjDhT3TFmDvyV/G/IJO3HNuBhQlvvxaCJoN4DljImSfN3fsDYVBBKXr/7mTLCtjmzyEwP77/45IQL63LjMzDd/+4ZVwOCxd97/N7yt+x7oBhzeeAbCBLMqV1iGNuNJTepdyMhGKioGM/Li//AFACMEzACYKugYWAnDK+uRPlZ4QHJYOv/GnHwbvAAAgAElEQVQWurdu1+13/TcugsdnXYVEAh7ze72/t2zAFMAJgA04FE1n+j/1piiTmSYMSsYIdXv37rXmDtUUM2PGgnQIukXWJ6N8JNI8lt1ilxSCbe1oeOqfuv1OP+dkzDltsgURfWybw6HeYOWAqYATABsIa2Hp/P5H684sOTgUw/Ymud1udwrOQZuPurN+CEKFrE/BrOkWRZM86h95AtrAgLSPv7QQ195k6Xn/bgjty0VFRd1WDpoKOAGwAYXk3yikRawKhcVANXI1RlEs/ZmVCqZNvGYSIL4n66Omp6Ng1gyrQkoKR97/QLfan6IouOW2BXC7LfvRISBood/v32rVgKmENwHagab2g6J/yXMCkBxcfUdQuG89gru68VJPLuacdgIyMuNbniGBEwwKjwGYW7EoLQjxMADprFrhKbOgpqXO6osWDKI+hl3/518yG2MnyK/ANpTAf/n9Hv01CTYknADYgMOlHYmEorcrmrxKFzNfXuM2VL95P9RwEAEAf10JPPP4m/jB/12I8kppDScpAXBJYAMFs+iXAKTLKo7sbHjPTa06TM3Pv4hgm/zOipKyIly+6EyLIgIIeM3r8/zYsgFTEC8B2ECf4pReJ+cM9AKCa2IkiquvC2PffhBqOPiZPz/U0oHf/eKRQV4H/DkE6T31LHYzJy48ExC36vUru/xSODJTp65GsLMTLS+9Ju1DRLj+1ovgdFn2m7EeEFcQSaY+Wdw4AbCBdevuCQGiJ1o7aWE4g3wVdqIU7tsAR7D/uG0N9YfwwbqdQ3+4gP/AgQN8zCNOc8feUAjQMgDSHRpZ1WMxYpqlt9klXOM/noUWDEr7nPqlE1E7RV7y2kABCO0Sn88nr0HM4sYJgG0oB2Strl79e7qZOdKPNEvbWw9LJ3D0kMPhqIznAWypMuAMPQhAeqGW4nShYtFVKVVTo6+hAW3vrpL2ycxKx9U3WLckIgi3+P3+tZYNmMI4AbANsVfW6urjBCBR0rvlP1Ty8+O+p6Ei3gekspkT9/4nkf7tiqWXXQJ3cZEVISWNxn88Cwj5EtUVi85Ebl6WRRGJP5d4vfdaNFjK4wTAPvbJGtO7WiwKg31eWre8LLnHL78uOAapVY3GQLNqrpkH0M/0+uVOqkXR3NQqvNhX34AjGz+U9vGVFOFL5061KCKs6u3p+ZZVgzFOAGxDgKQzAJntB60KhX2KEgnB1d8VtZ2IUOyVVnKORWr9LDXIyTWLvIKUhwFIi9W78vNQcd3ClJr6B4Cm557X3Tx89Q1nW1Xr/5AWCV9aVVUlr0LEDMUJgF2Q2CVrzuzgBCAR0rrbpR+ieQXZSEtzxTWGBoUTgEGaO3epwwk8AZ11f5CCihuuhSMr6l1bw1KgsQlHNrwv7TNuYgWmzqyxIhyhEK4rLS1tsGIw9glOAGxCI4d0U0z6kUNQZMUCmCnSenSm/73xX5ZCQlh348owMdC673YQdOf0fefPR/bYKitCSirNL7wMocl//V9h0Zl/Av3a6/XyrZcJwAmATaza+LcGEBqjtZPQkNketZmZJKu1Xtrui3/9H1CQOiXpDDBj4uLzCJCW+gWArKrR8F9wjhUhJZVIfz861q6X9hk7oRw1J4yyIpw17e2tXOwnQTgBsBESJD2vk9u8w6pQ2DHZrfuk7aUjDdi/JwQnADGaXXvtKIL4O3TO+zuyM1G55FqAUu8jsG3lKt1z/1+5+nQrQjmiEC6rqamRB8NMk3r/77cxjcRqWXte4zarQmE4OuuS1bpf2qd6ohF104kLAcVgbsWiNE1oTwKQXp9NCqFyybVwFaTmykrH2g3S9jHVpZh80ljT4xCEr3u9XunmZmYuTgBshDSSJgDZh/dBDQWsCiflZXQ0Qg1F37TscKoYXVVqwEjCkm3YdjeQhT8COFGvn++C85FTM8GCiJJPJBBA3+490j5nnW/BLYiEe0q83kfNH4jJcAJgIxSmNQCi7vQjoSGviZcBrJJzeJ+0ffTYUkNqpwsQ7+7UMat28S0EXKfXL7d2Irznnm1FSEmpe9t2aOHol4elpbsw4xTT75/aFgmF+Lx/EuAEwEZWbL+vWwArZH3yD26xKpyUl9u4Xdo+zqBrU0mAL0SRmDFx8UwhxJ16/VwFI1Bx/SKQklrn/T+tZ5f813/tlDFIS4/v2KqOiEJYXFZWdvzLM5ilOAGwGRLiBVl7wb4NX7iVjhlPDQ0gr0m+52LcxApjBiOeAYhmzvirfATxFADptxY5nRh9840pd97/8/r2yfesTJpi7uWTBPqN1+t9z9RBWMw4AbAZEvi3rF0NB1GwX17gg8VvRMOHUCLRp1IVRcG4mgpDxhJA1JsgU9ncikVpEdXxL+gV+wFQ/tXLkFE+0oKokpgQ6NsvP7Y6YZKp905tDQT6lpo5ABscTgBsZsWWBzYDQlrAu3iX/HYvFr+CffKd1NUTRiI715g75YlEhyEPGmaObfrTLVRfeMosFMyZZUFEyS10pAuRvugz7w6nihIjjq0enyCImysrK3mXchLhBMCeHpM15hzag/SuQ1bFknLUYAB5TfL1/5NnGbfLnATFdZ/wcDSjZuHNsWz6Sy8rRdmVX7EipKQ3cFh+a2VZudfEuv/0oM/ne8Okh7Mh4gTAnh4DIK3j6dnJy2xmKdq7Vjr9T0SYNmuiYeNp0NoNe9gwMLvm2tlE9Du9fo6sTIy55UYoTlM3tdnGwCF5AlAystCsodsVEt836+Fs6DgBsKF3P3xgNwjSbNqzayUcwT6rQkoZJDT4t74p7VNdUw6Pz7giMyQUrvF8zIwTrikRpD0JwCntSApG3XgdXIWmfanZTrBdPpFUVBz3rZXHRRA/8Xq9PCWZhDgBsCkS+JOsXQ0G4N3+jlXhpIwR9RuR1i2/AOjUM6YYPGpEvnMrRcwfc6ubIso/BODV61u64GJkTxhvRVi2Ee6R7yUt8kgLKA4Rbfd6vfeY8GBmAE4AbMpZWPEsIKTXZ/q3vAnHAM8CGKlky3Jpe1q6CzNPPcHQMRVF4QQAQGda958Qw6a/EdNOguesL1kQkb1E+uSfBfkjcgwfU5D4PvEx1qTFCYBNLV++NAyiP8r6OIJ9KNv0slUhDXs5h3br1v6fd2YdMjMNvbun2+PxyBdvU8DMmkU3xbrpb+TCq6wIyXbC3fIZgPQMt8Ej0lslXu+zBj+UGYgTABtzaRl/AoR0Ptq7fQXSu3n5zQjFu6RXMYCIcPaFM40edisRyS9uH+Zm1l4zAwT9TX+ZGRh9841Q3UZ/kQ0P4V55ApBhbOIKiAhf85vkOAGwseWb7+4hyHdDkxbG6JVPACKlv0MMkdbdJm2fOrMGJWVFho4pQCld23lW9bV+COVp6FX6UxRUfn0J3EW86S+acK+8+m56uoGJk8C7fr//LeMeyMzACYDdhZQ/6M0C5LTshmcXHwuMVyC7IGobEeGSq04zfEwF2Gz4Q22iru4Gp3BojyGGSn+lCy5BzvhxFkRlX5Gebml7RpZxMwBCpaWGPYyZhhMAm1ux/b5uQcqP9PpVrP0XFweKU+OEeRB0/LfMjFNrMWqM3/AxhYikbFlH90Dw1yDM0es3YvpUFJ9pfPI13ESC8jtCDNwDsLrE43nFqIcx83ACMAys3FT+VwBrZH3UcBDVbz0AJcIbcoeqL8+LPdMuAX2uWtrEyaPxtW9dbMaQEUVR1pvx4GQ3a+LiywB8U69fRnkZyhd91YKIhgEt+jKgw6HC5ZKXVogVQfyPIQ9ipov/snKWBJZqAou/RRDvAIh612lGRyMq1/wTu6dzadSh8k6fjj/cWoWNq7egvy+IUVV+TJw8GkTGXzFLwGav19tr+IOT3CkTF5eFY/gScWRlYtTXb+BKf7ESWtQmRTHst2A3ET1p1MOYuTgBGCZWfnj/u7NqF90tBG6W9fPsXIlAdiEO1vCU6WBlOIC754ThzcmB97zpVgwpLzk4DC1YsEA9uEU8DIK0LB0pCkZ9jTf9DYZsH7CQVxaPHeHVVExa7YqXAIaRgMv1fYC26vUr3/AcCnVus2NftPTkMCpzrDtNoRFSbh21cWvmD2JZ9y+55CJkj6+2IqThQQhpBiAMOiVEQrxmyIOYJXgGYBhZt+6evtm1C6/WBK2ErFa6EKh65yGAgNZyo8vW2pwQ8O54FwX1G+Hq7URfvhfN1bNw/pzRuKoqYmUkIZeqLrdywESbOem6iUKL/FSvX17dZK70N2g6X/BGTQAQ8dE/G+EZgGHmnU0PrAPEf+r1I6Gh6u2HULgvJfeYHZcSCWHcW8swavVTyG3egfTuQyio34iaV/+Ms7qs3oxPK4uKiuTntoaVpQq0yF+hc97fXVyEisXXACbsuRjOhGQDIGDYDMCAx+PRnYFkyYMTgGHo3Q8fuBMCy/T6kdAw9p2HULKZZ+2cgV7UvHI3RtRv/GKjEFh297Po0ymkYiRB4inLBksCs2r33wRAurGCFAWVS66Fmp5uUVTDh94XvDHf/7SZiKLfk82SDicAw9QR9N4Igbd1OwqB8vXPYcy7j6TsEcGMjkbUvvR7ZB/eF7VPf98Atm6M3m6wiEtVUyYBmHHCNSVCiNv1+vkuOAeZoyosiGj4UVRVZ9bEgAxAiG3xP4RZiROAYWrz5ieDqosuAbAzlv7Fu9dg0vO/RUZns8mRJRfv9ncw6YXfIa1L/76dUNiaHzcCeLOoqKjJksGSgBJRbweQLeuTOaoS3nPnWxTRMEQExRF9W5CmCUQi0Y8JxmhfvA9g1uIEYBh7e8P9hyOK4zRA7Iqlf0ZnMyY9fydKP3wNJDkzPBy4ezow/o2/YtTqp6FE9L/YVVVB9fhyCyIDiPCoJQMlgdm1C+sEhPT6PlIUlF9zJci4s+opiZzyPd+BgLxSYAwj8LXVNsPvqGFu1ca/NUQU57xYkwAlEsbIDc9h0vO/RW5LTC+xFSUSRummVzDl2TuQ3xD7PTsXLDgF+YXG35f+BYROBSmTAJAm6L+h8znkPfdspJeVWhTS8KW65AWTBgIDcT1fKCJlZq2GC04AUsAnSQC2x/qazPaDqHn5Txj3xr3I7Gg0MTprKJEwPDvfxZRn7sDI958f1H6H8y+ZgysWn2VidJ9xf6oUUplRu+hCANL7k90eD3w89W8Ixa2XAMQ3A6AI0RXXA5jluA5Aili18W8Ncycvmh4M4zEAMX+bjWj4ECMObkaHfzwaa+bhSPFoWx3Bcgz0oXj3Gvi3vgFX35FBvVZRCAtvPA/nfnmWSdF9gdDC6p+tGizBiASW6nUqu/wS3alrFhuS7AEAgIFAfJuABScAtsPvrBSy/P1lnQsWLDi3YUvGr4no2zG/UAjkH9yC/INb0J/rQXPVDLRVTEEw3YIp8SEgoSG3aQeKd6/GiAObYlrj/7y0dBduuW0Bps+pNSHCKAjPlJYW7bBuwMSZWbPoMgAnyPrkjB+H3EkW/v0Pc4pbngDEuwcg4nBwAmAznACkmCeffDIC4DszaxdvghB/AjCoQ9XpR1pQufZfqFz3DLqKR6GtrBad/nHoz/WYE3CMnAM9yG3agREHPkRe43Y4gn1DflblmBJ850eXw1dSZGCEujQF+ImVAybOUgW0/yfSo2ekoOyKBdaFlAIUl/y630B/fAmAIxIZ3BQbSzhOAFLUu5vuv3/2Cdes0CJ0L0CzB/0AIZDTshs5LbsBAAOZeegpLEdvfgl6R5SgN78EwYxco8MGADgD3UjvakVGRyOyW/chu3V/TMf49BAR5l80E9csOQcOp6r/AiMJPO71eTdZO2hizK7Zd64GjJf1KZg5FWklfqtCSgmODHmuH+iPbxNgT08PzwDYDCcAKeydDx7cASw9dc4JB76pKPSbUCg85E2h7t5OuHs7UbD/g4//LOTOQn+eB8H0HITSshFyZyGUkY1QWjYiavTpSDUShCPQC+dALxwDvXAGeuAI9sHV14W07sNwBI2vyDeywoMl37wI4ydWGv7sGIQ1TV2aiIETQSN8T9ZOqgrf+edaFU7KUDMypO093XG9r4JVVVXxZRDMcpwApLyl2tsf4Hf3/+2Zhg9Wb39izcqtht0M5hzogbOlx5BnmSU9w42vXPMlnHPRLKhqog7FiP9OobX/kwGcIutTOGsmX/NrAkemqQkAlwC2IU4AGABg8fUXPnmwqeXu+j2NNz398Ot4963hPRvtTnPh9Pkn4+LLTkV+QUI3M9Y7VFX3Brzhgohukd49Two888+wLqAUomZmStu7u4e+bwaAfY4GsY9xAsA+Fgz0fbd8lO+U7/z4qxPP2rgXTz30Kj58f49hMwLJICMzHWdfOB3nf3kOsnPlv4isIAi3FhcXJ/c0iUHq6m7IFQPBS2V98usmw11s6ebLlKG3BNDdxQlAquEEgH2ssrIy0NjYuAikrKyZVOms+dUSNDW04rUX1+D1F9ei64h969OMqirBGedNxZzTpiAtTV4QxSoEPOb3ep9NdBxWcQ8ErwEg/RbynPUli6JJPQ6dGYDerriWALionA1xAsA+w+/3r2tqavk/AuLXAOArLcRV18/H5QvPxMq3N2HFmxuxaf2uuKuGmY2IMHpsCU6eOQEzT5kEX2myrSmLHS6X68ZER2ElAq6XzSVljqpA5qiEbMJMCWqm/BRAT3dcCT7PANgQJwDsC3w+z28am5vHQmDJR3/mcKqYc9pkzDltMkLBMDZv3IN1q7Zh/aptaGlqT2S4HysoykX1hHJMOnEM6qaNS/Tavky/FlEvKygoSJljU7MmLKwRwCRZn8I5gz+NymLnyMqStvMSQOrhBIAdl8/jubmpuaUKwNzPtzldDkw+aSwmnzQW1918ATraurB7ZyP27GzA7p0HsXdHI9rbzKsJ4nCo8PoL4C8tgr+sEGOqSzF2wkiMKDCn7oDRCOLrpaXF7yc6DisJFZfL9v4pbjfyp9ZZF1AKcuTIE+IjnTwDkGo4AWDHRUShpqamrwD0rgDGyPrmF+TgpIIcnDR93Md/1tcbQNvhI2g93Im2w0fQdrgLrYc6MBAIIhgMIRgMI9AfRDgcQTgUhsPpgMPpQFqaE4qiICPDjazsDOTmZSEnLxO5+VnIzc9GQWEOir35UGx7Naz4vz6f74FER2E5QdKyfiOmnQQ1Lc2qaFKSMyf76D0eUTb1dnf1IhLRhnocVhVCOIiIjwPaCCcALCqfz3e4oaFhnqo63tBLAj4vIzMNGZlpKKtIbIngZELAH3w+X4qU+/3EjNpFtRColvXJn3qSVeGkLFJVOLIyEI6y1q9pAl0dPUO+9rq9vT0DQMosaw0Hdv0ZxSxSWlraEImE5xGwK9Gx2Bs94PV6vpnoKBJBEXSerN2Zm4OccWOtCielOXPky2QdnUM/kdqrafJNBizpcALAdH2UBAC0PdGx2JLAvT5v8XVENHwKKgyCEGK+rD2/7kSA+KPICs5c+a/7jrah/4AnIRJfWIMNCr/rWExKS0sb3C7HVAE8l+hYbEQIiJ/5/d7riSiS6GASYXbtlfkgMUPWJ/cEvvLXKs5c+QzAkfbuIT+bhJAXGmBJhxMAFrOCgoIuv9dzEYF+mehYbCAgCFeW+HxLEx1IIkWEYy5AUfcaKW43squrLIwotTn0ZgA64kgAAE4AbIYTADYoRBTx+Tz/IQjXATD+Wr7hQGAnhDa7xOt9LNGhJBoJRXq4P3v8OJAz+s2QzFhOnaOAHfHMAETAewBshhMANiQlXu99qkITASxPdCxJRIBwj8OhnOj3+9clOpikQJAmADnjefOflfT2AByJYwYA4ATAbjgBYEPm8Xj2+Lye0yDoRgApcaGNxD6CON3v9d6YKpf76KmruyEDwBRZn6yxPP1vJd0lgLY4/q+riBFDfzFLBE4AWFyISPj9nntUhSaD8C9AVu9tWOqHwO0OVan1+XxvJDqYZOIaCE0GEHV+X01PR0ZZiYURMZfOEkBnHDMAQoiCIb+YJQQnAMwQHo9nt9/rvZggpkPglUTHY4EgBP6mRcJj/X7vD/lX/xcpENLa/xmVFXz8z2IOnVMA8ewBUKDkD/nFLCH43ccM5fP5Vvv93jMJYh6ANzD8ZgS6CfgDhFbl93uXlJaWNiQ6oCQ2WdaYUV5mVRzsGEdmBhRH9AKwA4Eg+vsGhvRsngGwH04AmCl8Pt9yv897mtAi4wHxWwBtiY4pPmIDQdzsdKglPp/3G36/vz7RESU7AZLPAJTy9L/liKDmZEu7dHYMsRgQ8R4Au+EEgJmqpKRku9/n++5AoL8Ugq4i4H8BxHXvqIW2QOB2gqjx+3wn+ny+u4uKiuLaJp1axGhZa3pZqVWBsE9x6W0EbB/qahZxAmAzfBkQs0RlZWUAwMMAHt67d2+a2505l0g7VwDnABiV4PA+0gzQ2wTtTSJ63uv17k10QHY1t+amrCD6iqO1k0JIK47azEzkyM0DsD9qe2fbkHNcXgKwGU4AmOWOJQMvHvvn1vrDh/1qJFKnCDoREHUA6gTgNzGEMID9AO2AEB8QiQ1hVd1QVly808QxU0o/9YxSJROMjrw8kJM/fhJBbwagvX3I9wFwRmcz/A5kCTeyqKgRQCOOLg8AANra2nKCwWAZgHIhqESQKAWUkQRkCoh0EkgThCwCOQHhBmiAIIJCoBckIoDSBRLtQogWELUqQrQIIZojDkdjaVHRfiIKJex/cApwCqVco+jtaUWF1gXDPkO3FsDQTwIUCSEcRBQe6gOYtTgBYEmpoKCgC8DmY/8wmxEkioHoGYBrBC8XJ4ozT+9CoCGfaFVaW1uLADQN9QHMWrwJkDFmAvLIWp06O9GZeUxcAkAwKLxDfjGzHCcAjDHDaUJI5/gd2ZwAJMrRTYDRxXMlsKJEfEN+MbMcJwCMMcMRSFoVTs3me2MSxZEj/7vv7hr6JZ8aEc8A2AgnAIwx4xHSZc2q221VJOxzHBkZ0vbenqGX6SCAEwAb4QSAMWY8ImkCoPARwIRR09JASvSP/oGBEMKhyJCeTYITADvhBIAxZjwh0mTNistlVSTs84igZkjzM/T0DG0ZQICXAOyEEwDGmOEIQvrZIkhSJICZzpGZKW3vHWICAGi8CdBGOAFgjBlPrxhMRLMoEHY8ilM+AxMKDq1OFvEMgK1wAsAYM5wQQpoAiMjQ1piZMbSIPD+T7RGQEQDPANgIJwCMMcMRFOlPSBHmBCCRRFieALjdzqE+OvPQoUN8xtMmOAFgjBlOQEjryUYCQz9rzuKnheRT/JmZ8k2CMgM8C2AbnAAwxszQLmsM9/RaFQf7HKEJRCR//0SEjCzpIQ4pNRzmfQA2wQkAY8wMHbLGcC8nAIkS7umBJlkCSM9wQ1WH/tVARDwDYBOcADDGzCCdAQh1Db3ePItPqLNT2l5YJL8tUI/gBMA2OAFgjBlPiEZZc7BNmh8wE4XapZMzKPLFd1UzCU4A7IITAMaY4QTEAVl7qEP+JcTME2hqlrZ7vPElAILvA7ANTgAYY4ZzaJo0AQi2tkNowqpw2Kf0HWiQthd7pRc56iPBMwA2wQkAY8xwb299qBmSo4BaKIhga6uVIbFjggflCYDPVxDX8/lCIPvgBIAxZgYB0HZZh0Bjk1WxsGO0YBC9jS3SPqPGlsQ1hgDFt4bALMMJAGPMLFtkjZwAWE9pOgihRb+HoaAoF/kFOXGOIuJcQ2BW4QSAMWYOwmZZs6Nhn0WBsI9k75dOyqBq3EgjhsncuXOn24gHMXNxAsAYM4dGa2TNHTv2WBUJA5DpIBx+X5qToaq61JCxsrOz4ysmwCzBCQBjzBSRgeBaAFHnm490dGHkANcDsMqpuUFs+1CedI02KAGIRCK8DGADnAAwxkyxatfDXQLYJutTcGAnyKqAUliBm+DavR2RSPT1f4dDxZjqMkPG0xwOXgKwAU4AGGOmIYg3Ze07V29CXYFqVTgp64IyB957+wNpn3ETK5CW7jJkPKcQ0TMNljQ4AWCMmUZAvCJrX/PeZpzjBVz8SWSacbkKqtPDWP7qOmm/KVOrDRuTiPi+Zxvgtx1jzDRBd9rrgIh69VxfbwC739+OM/wOK8NKGRkOwlcrnXjjpTXo7ZF/J9dNG2fYuMFgkGs92wAnAIwx06xbd88RAq2S9XnpuXdxhs+B8iz+ODLapeUO5LoIz/3jLWm/8lE+lI4sNmpYUVpa2mXUw5h5+B3HGDOXoKdlzW++th4D/QO4epSTlwIMNHmEipMKVNTva8am93dJ+845bbKRQ3cTUdRZH5Y8+O3GGDNVWFWfhOQ4YKB/AMtfXYviNMLFI50WRjZ8edMJV1Qe/bt85snlECL6xUtEhJmn1ho5fL2RD2Pm4QSAMWaqVRv/1gCId2V9HnvgJQghMKtYxexiPhUQj0wHYUmVC+kq0HWkF88+LT2IgdoTx6A4ziuAP42AvYY9jJmKEwDGmOkI9LCsfdeOA9iw5mjJgEvKnajO4Y+moXAqwA1jnShKO1pd4cmHX0Ffb0D6mrMvmG5oDEJwAmAX/C5jjJkvpDwMQLox7JFlLwIAVAKurXLBl84lggaDAHx1lBOVxzZTHunowRN/f1n6msLiPJw0fbzRoXACYBOcADDGTLdi+33dAB6Q9Vn59kZsXL8TAJCuAreMc8GfwUlALBQ6+uV/4ohPlk/u/8uz6NE5+jf/wplQFGO/BhQF8h2HLGlwAsAYs4Qg3A0g+m40AH+88/GPN6xlOwm3jnNhZCZ/TMk4CFg42omphZ98+R/Y34x/PfGG9HU5uZk463xjp/8BQFVVecUhljT4ncUYs8TKTcu2AeLfsj6bN+7GG6+s/fjfMx2Em8e5MCabP6qOJ8NBuGmcC1M+9ctfCIFfLl2GUEh+Eu/8S+cYVvr3U+qLioqajH4oMwe/qxhjlhGa+Al0ZgHu+q9H0HWk9+N/T1eBm8e5MM/L1QI/zZdO+M6ELyZHzzz1Jjas3S59bU5uJs6+YIYJUQnpFdAsuXACwBizzMotD24A8A9Zn7bDnRyrDP8AAAsCSURBVPjdHZ89NKAScPFIBxaPccLNpwQxtVDFd2vcKE777B6JhvpDuPu3T+i+/sprz0J6hvEX9glgteEPZabhBIAxZilV0E8ARGR9Xv73Srx5nMtrpoxQ8f0aN6pS9JhgloNw7RgnrjpO1cTgQAg//t7dujX/R48twWlnn2xKfAonALaSmu8ixljCvL35/i0A7tbrd/uP78X+vV9cTi5KI9wyzoWrRzmR7UyNUwIEYFqhiv+sdWHyiONPgfz2joewY+t++XOIcN0tF0JRTPl7C6qqula/G0sWnAAwxiwXCYR+BIgGWZ+enn784Nbfo7ur9wttBODkQhU/rHXhFI8K5zD+JBuVpeA7NS58VZLwPHzf8/jfp+UX/gDA2RfOwNjxI40OEQBAwNvFxcU9pjycmWIYv20YY8lq1a6HuwTRrXr9DuxvwY+/ezdCwePvaM9wEC4td+KnJ7hxus8xrPYHVGQpuKnahW9NcKFcchTy1RdW4c+/f0r3eaUji3H1kvlGhvg59IKJD2cmSI35M8ZYUppZu/BJCLpUr9+MOZNwx123wumSnwToCwu8cyiC1a0RHApIDxskJZWAE/JVnOpVP67oJ/P6y2uw9Pt/RiQS9a4lAIDDoeL2P9yMUWP8RoX6RUIb7/f7t5k3ADMaJwCMsYSZO3lRXjAs1gA0Rq/v9Nm1uOOuW+Fyx3Zj4P4eDWvaIljfpqEnnNzJwMhMBScVKDixQEVOjPsaXn1hFX7+n/fofvkDwMKvnYvzL5kTb5hREbDR5/OeYNoAzBScADDGEmpmzaLJILwLIF2v75STx+EXd96EvPzsmJ8fEcC+Hg07uzTs7Nawr0dDSP8701QuBRiTrWBCnooJeQoK3YP7KH74vufx598/BU3TT2zmnVWHm7+3YKihxkRA/EeJz/dLUwdhhuMEgDGWcDNrFy+GEPfF0tfjK8Add92C6gkVQxorpB1NCA70amgJCLT0CzQHBPpMmiVQCfCkE3zpCsozFVRmE0ozFKhD+PQNBIL4zS8exAvPrIip//iJFfjpr5fA4TB1c4QgiFE+n2+fmYMw43ECwBhLCjNrFv0XCD+Ipa/L7cR3f3g1zrvYuGnt7pDA4YBAV0igKwT0hAS6wwJ9YSCoCYQ0oP841QucCpCmAG6VkOk4eodBnouQ6yIUuo/+Y8Spu727DuLHt/0P9u46GFN/X2kh/t9dX0dObmb8g8sQXvZ7vWeZOwgzAycAjLGkMaNm4W+J6Nux9p9yUjW+/9NFGFnhNTOshIpENDz96Gv4y++fQiAQjOk1xZ58LL3zBhR78k2ODhCEi0q83mdMH4gZjhMAxlgSWarMqN13HwksjPUVaWkuLP76hbjs6jPhdA6v+wLWr96K3//qUezafiDm13j9BfjZnTeioDDHxMg+Vu/zekYRkbSyI0tOw+jULGPM/paLGadW/W9Xm6ucgMmxvCIcjmDte1vw/L/egcOhYszYMqjmrnmbbue2evzq5w/gL79/Gu1tXTG/zldShJ/9ZgkKinJNjO4TBPpFdnZWbBsSWNLhGQDGWDKimTWLfwgSP8cgP6cKivJwxcKzcM6Fs5Gbl2VSeMYTQmDDmm14ZNmLeO+dTRBicJsSJ9VV4bs/uhKZWbqHKYzS5lCVCq7+Z1+cADDGktasiYsvExDLAKQN9rVOpwMz5kzC/AtnYcacSUm7PNB6qBOvvbgazzy1/Lh3H8TivC/PxtU3nANVta64Kx/9sz9OABhjSW32hMXTNEU8AmDUUJ+Rm5eF6bNrceLU8aibOg6+kiIDIxy8fbsbsWrFh3jr9fXYuGFHTOf5j8flcmLJNy7CvLPqDI5Q12GnQx1dVFTUbfXAzDicADDGkt6kSVdnZmnqrwB8HQZ8bvn8hZhy8jiMGVuGitF+jKz0wusrAJHxH4mHWjqwc1v90X+212PLxt041NIR93PHTazAzd+7JDHJjMANfr/3r9YPzIzECQBjzDZmTFp4ulN1PBgORQwvap+W7kZ5pQ+FRbnIzctGbl4WcvOzkJ+fjZy8LKRnRF+FCAaCaG/rQmtrJzrbu9He1oX21iPYu+cgjnQYu0Tudjtx5bVnY/5FM8261lfPWp/XM42IElxPkcWLEwDGmK3Mqr42e8bpNW+seW9rXbRbAocjIsLJMybgmhvPgddfkKgwhEKY6fV630tUAMw4nAAwxmzn8OHD2Q0HWrc/9fCrvrdfex/h8PA+hn5C3VhcsfhMjKkuTWwgAv/t93u/mdggmFE4AWCM2VJTU9O5AvTcoZYOPPvEm1j+ynoE+mOrlGcHRISJk0fh0qu+hJpJlYkOBwC2RsKhurKysv5EB8KMwQkAY8y2GptangDEAgDo7Q3grVfW49UX1mD/nqEdp0sG2TkZmHtGHc44bxr8pYWJDucjQQhtht/vX5/oQJhxOAFgjNlWe3t77sBAcK0Axnz6z/fvbcY7r7+P1Ss24+CBw4kKL2ZutxO1U0Zj1rwTMH12LZyuJKtZIPAdv9/7u0SHwYzFCQBjzNaam5trNYH3AGQct72xDRtWb8eHH+zBtg/34UhnchSu8/hGYMrUatRNG4eJJ4xOvi/9YwRoWYnPszjRcTDjcQLAGLO9xsaWr4LEQzH1bWjF3p0HsXd3I/btbkLTwVa0HupEJGLeqbb8whyMHuPHqKpSjK4qwaiqEuRbc1lPnMQ7vT09X6qqqhpIdCTMeJwAMMaGhcbG5jtA+I+hvDYcjuBwcwfa27vR2daFriO96OrsRUdHN/p6+tHTGwCEQH//ACJhDQOBINxpLqiqgvQMNxwOFWlpLrjcLhQV52FEcQ4KCvNQWJyHgqJcZGYOupJxEhA7IMQsv9/fmuhImDk4AWCMDRuNTU13AvSdRMdhewI7IxHHvLKywoOJDoWZhxMAxtiwIYSgpqaWe0C4PtGx2BUBu8Jhx1z+8h/+rLs6ijHGTEZEwufzfE2AliU6Fnui7ZFImH/5pwhOABhjwwoRRUp8nsUgfAsA16uPFeHlUDAwo7S0tCHRoTBr8BIAY2zYamxsuQQkHkSUI4LsGMI9Po/nZiJKncsVGCcAjLHhrampaaoAPQJgdKJjSUL9BHGTz+dbluhAmPV4CYAxNqz5fL7VkXColkC/BC8JfELgXaFFpvCXf+riGQDGWMpobDw0m0i7//Olg1NMv4D4md/r/TURcUKUwjgBYIyllMOHD2eHw9oPBcQ3AdixQs9QCRD+pRJ9z+Px7El0MCzxOAFgjKWkxsbGciLlpwK4CoAz0fGYivAyCfEjn8+3JtGhsOTBCQBjLKU1NTVVaFBuI4hrAGQlOh4DCQG8oUD83OfzvZnoYFjy4QSAMcZw9Grh/mDwGkXgegFMSnQ8cWgDxANC0+4pKSnZnuhgWPLiBIAxxj6nubm5VtNwJQgXARiX6Hhi0CeA10nQYwMDfU9XVlYGEh0QS36cADDGmERLS8vosBDnkBBzAZoNoDjRMR2zh4DnhVD+PTDQu5y/9NlgcQLAGGODcPDgwWqo6hRF0GQBbTJAVQBGAnCYNSYBjQDWaRDrQbQuoqrrRhYVNZo1HksNnAAwxlichBDOhsOHKxyRiF8j8gEoIiGKQOSFoDwIkQeAQMgGyAGITIB6ARGBQBcIwaP/jj5Aq4dQGoi0BiKqd7lcB0aMGHEkwf8TGWOMMcYYY4wxxhhjjDHGGGOMMcYYY4wxxhhjjDHGGGOMMcYYY4wxxhhjjDHGGGOMMcYYY4wxxhhjjDHGGGOMMcYYY4wxxhj+P/R490qYaX9dAAAAAElFTkSuQmCC;" vertex="1" parent="1">
          <mxGeometry x="603" y="424" width="142" height="142" as="geometry" />
        </mxCell>
        <mxCell id="A42xf_0t4kiLN95eDPth-2090" value="" style="shape=image;verticalLabelPosition=bottom;labelBackgroundColor=#ffffff;verticalAlign=top;aspect=fixed;imageAspect=0;image=data:image/png,iVBORw0KGgoAAAANSUhEUgAAAgAAAAIACAMAAADDpiTIAAAAA3NCSVQICAjb4U/gAAAACXBIWXMAAA3XAAAN1wFCKJt4AAAAGXRFWHRTb2Z0d2FyZQB3d3cuaW5rc2NhcGUub3Jnm+48GgAAAuJQTFRF////pthkpthkpthkpthkpthkpthkpthkpthkpthkpthkpthkpthkpthkpthkpthkpthkpthkpthkpthkpthkpthkpthkpthkpthkpthkpthkpthkpthkpthkpthkpthkpthkpthkpthkpthkpthkpthkpthkpthkpthkpthkpthkpthkpthkpthkpthkpthkpthkpthkpthkpthkpthkpthkpthkpthkpthkpthkpthkpthkpthkpthkpthkpthkpthkpthkpthkpthkpthkpthkpthkpthkpthkpthkpthkpthkpthkpthkpthkpthkpthkpthkpthkpthkpthkpthkpthkpthkpthkpthkpthkpthkpthkpthkpthkpthkpthkpthkpthkpthkpthkpthkpthkpthkpthkpthkpthkpthkpthkpthkpthkpthkpthkpthkpthkpthkpthkpthkpthkpthkpthkpthkpthkpthkpthkpthkpthkpthkpthkpthkpthkpthkpthkpthkpthkpthkpthkpthkpthkpthkpthkpthkpthkpthkpthkpthkpthkpthkpthkpthkpthkpthkpthkpthkpthkpthkpthkpthkpthkpthkpthkpthkpthkpthkpthkpthkpthkpthkpthkpthkpthkpthkpthkpthkpthkpthkpthkpthkpthkpthkpthkpthkpthkpthkpthkpthkpthkpthkpthkpthkpthkpthkpthkpthkpthkpthkpthkpthkpthkpthkpthkpthkpthkpthkpthkpthkpthkpthkpthkpthkpthkpthkpthkpthkpthkpthkpthkpthkpthkpthkpthkpthkpthkpthkpthkpthkpthkpthkpthkpthkpthkpthkpthkpthkpthkpthkpthkpthkpthkpthkpthkpthkpthkpthkpthkpthkeNmc8gAAAPV0Uk5TAAECAwQFBgcICQoLDA0ODxAREhMUFRYXGBkaGxwdHh8gISIjJCUmJygpKissLS4vMDEyMzQ1Njc4OTo7PD0+P0BBQkNERUZHSElKS0xNTk9QUVJTVFVYWltcXV5fYGFiY2RmaGlqa2xtbm9wcXJzdHV2eHl6e3x9fn+AgYKDhIWGh4iJiouMjY6PkZKTlJWWl5iZmpucnZ6foKGio6Slpqeoqqytrq+wsbKztLW2t7i5uru8vb6/wMHCw8TFxsfIycrLzM3Oz9DR0tPU1dbY2drb3N3e3+Dh4uPk5ebn6Onq6+zt7u/w8fLz9PX29/j5+vv8/f4vceyhAAATP0lEQVR42u3dfXwU1b3H8dlNCGCgaDAhgBUKaHkSLeUKAlcU8QFEQCRUaxULDZeCkQfLpSnUi0qBimISDQ+hXFqwFYTWAAVBQan0KtpaLCFEntRCJAIhIZvM/9ciCAm7s3POmTPZ3fP5/s/vnNnv+0V2Z2ZnLSuG0/y+X75+rOR3Twyw4jIDnvhdybHXf3lfc4tIpf/H9vmsaxN/u2+z7sLuP+5PlxJpOq/W/ibHsuJt+1nHLu6+dl5T+hRN8tt2vbwQiKfdB16ov/u3k2lUMLl2g+TFkYBAXsPd59KoWHrXNHwJ7fy4ERDIv2zzNb3pVCRJf7PtuBUQpn/b/lsSrQqklx0uBXEhIFAQdvO9aFUgj9hxKyBC//YjtCqQ58O/iPZLMS8g8FKErT9PqwLZZsepgIj929toVSCr7PgUELl/exWtCuSJiK+j/XIMCwi8HHnfT9CqQG6z41GAU//27bQqkJanHF7KwhgVECh02HRlK1oVyUQ77gQ49m9PplOxV/PPTq/mkhgUEFjitOOtAToVS4cvHQUEY22/Qcf+v+xIo6K5r9rpFV0aYwKCS512W30ffSa2APr3X8AyaQHJaR169r87a9zkWfPyV67Mnzdr8risu/v37JAmfddGcBn9x4GA9FsnLNq877MzkUee+Wzf5kUTbk2n/7gQsNy1gHZ3TMrb9i/bdf61LW/SHe1c97+c/nVluLKAHpMLd35hS+WLnYWTeyj3P5wW9QkochaQOiK/zFZMWf6IVOf+i+g/JgV0zdlUbXuS6k05Xek/RgWsCCvgiuGLS21PU7p4+BVh+19B/7EmoNXE4ipbQ6qKJ7ai/8bIvY4CflNfQPcXT9racvLF7vX7/41j//fSnc8CgiM325qzeWSQ/mNMwMrzt9ynTS+1fUjp9LSv10taSf++CaiKKuDGwkrbp1QW3hi1/yr69zTDHAX8tlnWdtvXbM9q9lvH/ofRmZ8CTtu+5zT9x5KA2Ar9my2A/s0WQP+6MjQuBFQNpSmTBdC/2QLo32wB9K8798S0gKp7aMhkAfRvtgD6N1sA/fsm4Gws9n+W/n1Ki2Wx+T/AshZ040f6fByr7wE+7kM72hOYfjZ2PwWcnc5jADSn3WY7prO5HR3pzL3HYv1U8DFuBdOYabWxfzGodho9aUrKkvi4H2BJE7rSkdbb4uWOoG2tacv7dNsXP/cE7utGX17nrhN2HOXEXTTmbcacteMqZx+gMy/zUMiOs9T8gNa8y49r7bhL7aP05lUm1dlxmLoJNOdNpttxmil050Vm2nGbqbSnnvF2HIf3AcoZFYpnADU8JUgx/3nGjutU8tPxSun5hR3nKe9Oi/K59pAd9zn4bXqUTauP7ATIR/xclGQCr9oJkVe5UVAuM+wEyQy6lMngUKIACA2mTfG0/8xOmHzWnj5F02SnnUDZyW2CollkJ1QW0ahYxtoJlrF0KpIupxINwKkutCpwBuANO+HyBmcD3CfbTsBk06vbdDiZiABOdqBZlykWfW2/XDNxxPev/f6I7NUVumusWJ19bqmJa74U/afFNOsu4wRf2B1DUy6ePrhL6xfItt118QN9ytAdgv96HN26STux7wCVNPwKxsi9uurfO7LBUg+UCP37Ezw8wE3WCb2or33rsgEtfq+n/99f/gygb70mNGEd7Xp9CuiZcD8cGZito//Z4T7HBZ/hdJC3aSb0a795Eab82vv+fx1hqTyRIWXNaDhKpom8nluSI0xJ+pPX/f8pKcJSyVtExvD4kCi5qlzk019GxDlp5d72X54WcakMkc+D5VfRsWPmi7Tyc4dBHn+fbLrDUj8XGTSfjh3PAYo8BvjTVKf3Egc9vbXX6W936qcCk6o4H+iUFSKtLHQcNddLAHMdl1ooMmoFLUfOTULfAx/kOKuvlwD6Oi41SGRU3U307M1FgGNJjrMCR7zr/4jzpdwkocdXckkgYm4TamWrl5rUOtsqNO02mo6Q9UKv48oo05Z7B2B5lKVWCk1bT9Ph812xJ8E8G2Xc094BeDrKUs8KTav7Ll2rn1S17TlRxnl4QWB2lKXmiI3Lo+twaV0p9jIuiTKvwDsABVGWEnyIcSWPkg2XmYKtvB5l3jrvAES7jPu64LyZtH15UkQ/tpVEGfh37wD8PcpSJYLzjqTQ92V5WLgW52dvdPLyRFAnx6W6C897mL4vy3vCr+LPHOfleAkgx3GpnwnPe4++1U4CncuHjufndnsJYLfjOccPxQdyMqhhlkrU8qDDvAe8vRzs9PDvByXmLaXx+mkq83MApZHfSyV7fGvw3uTI715LJeadaErn9TJaqpbIF4Tn2h5nbsSlFkrNG03n9bJGrpZxHv6vHCWRnv8/Tm7cGjq/NK0kHwhaPSzsuCEani96ZkjYpYZVS47j4XGX5lHZWkKPh5mWXaPjewE14b7e+7j0k6x4jvSl2STfy8q2DWZlLLU1ZWnDu5DbrpQftonWLyZT5Ylwp5+69H/Tlrkav1t+MrflpX+3njqtMCuUSe/fZLJaL1V/HN+l+Vdjmnf+8XrNTxc/89pjnc8t1WX8H6vURk2m92+y3YNqTuz37ZcFvVlqO71fSIs4+1FAb3K2Bc1f+ChlG5lhNH8+C8wEsIDmz2ePmQD20Pz5D+51ZgKoy6D7cxlrGxqeF/J1Ck0FUEj351JqKoBSuv93OtvGpjPtf5UfmQvgR7Rv7lkAzgRcyEZzAWyk/a9y1FwAR2nfstJtg5NO/9ZgkwHwg4KWNcVkAFPoX/S79YmVJfRv/cVkAH+h/+BpkwGcDhoP4Du20fmO8QD6mw2gv/EARpsNgO+IZpsNgF+TnG02gNnGAygwG0CB8QDWmg1grfEA3jEbwDvGAzhgNoADxgM4YzaAM6b338o2PKY/Kaaz6QBMvzG4p+kAehoO4HumA/ie4QD6mg6gr+EABpoOYKDhAAabDsD020Kve8bwXGcRQgghhBBCCCGEEEIIIYQQQgghhBBCCCGExFICTWX+VfKVhidZ5lVrGoip5vv9dN6q7fur7eN7NhTMekjs+cf3mH5b+D1CL1f6Q7MKNuw5blfv375q3k/7xYCD4K3PHax/RKEt2W0BoANA2+wtDX5l/eBztzbukya75n0a7qBq35zQBADeAmgy4c3acP/+07yujVZ/+uKaiMf1z9EA8BLA6H9GnFCzuHF+daDZjArHI3vzZgB4BeDmNx1nVMxo5n//I8uiHVrdqtYA8AJA61VRf1u3bKTf7/xz3fzeb0l3AKgD6F7iYkxdrq+fCJqvdnd0FcMAoApgWIW7Qaub+9d/+91uD682BwBqAHJq3U7a3d6v/m84InCALwUAIA8g8JLAqCM3+NN/htizHXMBIA8gV2jWgQw/+k95S+wI68YAQBbAmDqxYW+l+ABgmeghnu4NADkAvYV/T2mZ/v6nih/jwUwAyADIPCg+bqru/gfWShzkNgDIANgmMa5W81PHAu9KHWUWAMQBZEnNe1fvCaEH5Y6yJAUAogBSSuQGPqj1AlCZ5GHmAEAUQI7kwDKdF4aelD3M8jQAiAFIK5ed+KS+/q+ukD7OhQAQA7BQemLF1doATJQ/zvJkAIgASC6XH/lf2gD8WeFA7wSACIA7FUZu1dV/65DCrvIAIAIgT2FkSNclgUdVDvRoEADuAQSPqswcrwnAa0pHOgAA7gEMUJq5UU//qVVKu/oVANwD+JXSzJortQDopXakGwDgHsAGtaH/oQXAMLVNfQAA9wA+UBuq5x7h8WqbKgeAewDlakOztQCYo3ioVwDALYArFIf+jxYASxV3dT0A3AK4XnHoci0ANiruajAA3AJQ/S21TVoAvKO4q1EAcAtglOLQdwAAAAAAAAAAAAAAAAAAAAAAAAAAAAAAAAAAAAAAAAAAAAAAAAAAAAAAAAAAAAAAAAAAAAAAAAAAAAAAAAAAAAAAAAAAAAAAAAAAAAAAAAAAAAAAAAAAAAAAAAAAAAAAAAAAAAAAAAAAAAAAAAAAAAAAAAAAAAAAAAAAAAAAAAAAAAAAAAAAAAAAAAAAAAAAAAAAAAAAAAAAAAAAAAAAAAAAAAAAAAAAAAAAAAAAAAAAAAAAAAAAAAAAAAAAAAAAAAAAAAAAAAAAAAAAAAAAAAAAAAAAAAAAAAAAAAAAAAAAAAAAAAAAAAAAAAAAAAAAAAAAAAAAAAAAAAAAAAAAAAAAAAAAAAAAAAAAAAAAAAAAAAAAAAAAAAAAAAAAAAAAAAAAAAAAAAAAAAAAAAAAAAAAAAAAAAAAAAAAAAAAAAAAAAAAAAAAAAAAAAAAAAAAAAAAAAAAAAAAAAAAAAAAAAAAAAAAAAAAAAAAAAAAAAAAAAAAAAAAAAAAAAAAAAAAAAAAAAAAAAAAAAAAAAAAAAAAAAAAiGkAOxV3NQIAbgGMUBy6UwuAVxV31Q8AbgH0Uxy6VguAFxR3dQ0A3AK4RnHoi1oAzFDbVCgJAG4BJIXUhv63FgAPqW3qkAUAtwCsQ2pDH9UC4DYd70wBoOMT191aAHRR29QrAHAPYI3a0J5aAASPKm1qKgDcA3hcaWZ5Ey0ArDylXXUCgHsAHZVmLtfTv3WnyqbeswDgHoD1V5WZwzUBSC5X2NQsAIgAmKkwsqKpJgBWkcKuegBABEA3hZH/q6t/lVPUey0AiACwPpIfeb82AEkfSm9qHADEADwsPfGjZG0A5Ot6PwgAMQCB/5OdeK+lMcWSm7rDAoAYAOt2yYGbdPZv3VArtan1FgBEAVjrpObV9tIKwHpZZlM1XQEgDqBrjcy8Qr39W20OS2zqKQsA4gCspyTGHW6jGYDVp1J4U2uDAJABEFwrPK2yj6U9Y0U39UELCwAyAKwWH4hOG2v5kDlie/q8owUAOQBWx8/Fhs3xo38rIHSxunqgBQBZANbAapFZawK+ALCar3a/p4qhFgDkAVhDK9yPWt3c8imB2W73tL+HBQAVAFaP/W4nzQ5Y/mXsGVd72n61BQA1ANbV213NOTPW8jU3u7k/bFmKBQBVAFbKMhdjjt5s+ZyM/Gj3ru/L0nl5yRwAlpW1L8qQUH6G5X+6OZ6sPj4lxQKANwCslCnHnWas62Y1Tga9G2lLVfOu1HyB2SgAlnXlvKpIE94dZDVaAoMWhfkOS2jrxEztdxgYBsCyMiduDfNH99CiQQGrURO4ZcGBS3dUUzw+3Y9bTIwD8FXSxxfXu0J4YMEtjdz+hTeEvUdkz13xh8VP/vD26wRPRtxtOgDBb3E1v+72Hz65+A8r5maP6J1hJUD6mg6gr2V2OpkOoJPhAFqaDqCl4QCsKrP7rzK9f+sfZgP4h/EAnjcbwPPGAxhuNoDhxgNIrTa5/+pU4wFYG0wGsIH+rf4mA+hP//LfN0yAFNO+pf5c1DhOP9r/dwpM7b+A7s8lZYeZ/e9Iofuvk3nIxP4PZdL8hfQsNa//0p70fjGtt5jW/5bWtH5pkheETKo/tCCZzhukS5ExBEJFXeg7TK7P+8SE+j/Ju56uI6XblLW7yyoTtfrKst1rp3Sj5ehXCNtkhsl8xZe/KNN1ihSXmh9uaBuu/KnlF4qt5LtfKl9xqV/QFgAIAAgACAAIAAgACAAIAAgACAAIAAgACAAIAAgACAAIAAgACAAIAAgACAAIAAgACAAIAAgACAAAAAAAAAAAAAAAAAAAAAAAAAAAAAAAAAAAAAAAAAAAAAAAAAAAAAAAAAAAAAAAAAAAAAAAAAAAAAAAAAAAAAAAAAAAAAAAAAAAAAAAAAAAAAAAAAAAAAAAAAAAAAAAAAAAAAAAAAAAAAAAAAAAAAAAAAAAAAAAAAAAGjW5iq3kuV8qT3GpXNrSkMcVW3nW/VLPKi41hbY0JEuxlcnul5qsuNQY2tKQW/xrZYziUv1oS0O+rdjKLf5Zu4a2NCQ5pNbKte6XulZtpVASbenIYaVW6pq4X6lJndJSh+hKS4qVWtkrstRepaWK6UpLfqLUytMiSz2ttNRP6EpL2ir9x9xHZKk+Sn9s2tKVnryl0Eqp2FKlCku9RVOakqPQynyxpeYrLJVDU5rS0Z+zAKpnAjrSlK5slC7l/YDYSoH3pZfaSE/acmOtbCtDRJcaIrtS7Y30pC9LJFvZIL7UBsmlltCSxrQ7JXdutrv4Ut3lzjyfakdLOiN3W1C+zFJytwVxM5DepJZJlHK8jcxSbY5LLFWWSkd6c5P4H4GawXJLDa4R/wNwEw3pzijhE8LSp+aFLz7UjaIf/Zkh2Mpi+aUWCy41g3b8SJFQKZuT5VdK3iy0VBHd+JKm6wVK2XWVylJX7RJYan1TuvEnQfeXalY1U1uq2Sr3l5uCNONbHql296ZspvpSM9296ax+hFb8zIDP3Xwou9+Lpe5388Hz8wF04m86RD9Xv6OXN0v12hH9WkMHGvE9Q/Y4dlKS5d1SWSWOS+0ZQhuN8l7wsaMROynPSfFyqZSc8ohLHX2Md3+NlRZTd4V9i7ZnVprXS6XNCvsfTt2uqS3ooTFzzaQ36l+3rXt7Wmc9S3We9nZ9bqE3JvElsBhIelbOwtU7P6k6vOuV56aNba9zqfZjpz33yq7DVZ/sXL0wJys9AV68/wfz80Ql1AobywAAAABJRU5ErkJggg==;" vertex="1" parent="1">
          <mxGeometry x="630" y="424" width="231" height="231" as="geometry" />
        </mxCell>
        <mxCell id="A42xf_0t4kiLN95eDPth-2091" value="" style="rounded=1;whiteSpace=wrap;html=1;dashed=1;strokeColor=none;strokeWidth=2;fillColor=#FFFFFF;fontFamily=Helvetica;fontSize=14;fontColor=#FFB366;opacity=75;verticalAlign=top;fontStyle=1" vertex="1" parent="1">
          <mxGeometry x="412.5" y="200" width="140" height="560" as="geometry" />
        </mxCell>
      </root>
    </mxGraphModel>
  </diagram>
</mxfile>
